%TF.GenerationSoftware,KiCad,Pcbnew,(6.0.4)*%
%TF.CreationDate,2023-07-24T12:45:13-04:00*%
%TF.ProjectId,BREAD_Slice,42524541-445f-4536-9c69-63652e6b6963,rev?*%
%TF.SameCoordinates,PX74eba40PY8552dc0*%
%TF.FileFunction,Legend,Top*%
%TF.FilePolarity,Positive*%
%FSLAX46Y46*%
G04 Gerber Fmt 4.6, Leading zero omitted, Abs format (unit mm)*
G04 Created by KiCad (PCBNEW (6.0.4)) date 2023-07-24 12:45:13*
%MOMM*%
%LPD*%
G01*
G04 APERTURE LIST*
%ADD10C,0.300000*%
%ADD11C,0.150000*%
%ADD12C,0.120000*%
%ADD13C,0.010000*%
%ADD14R,2.500000X2.500000*%
%ADD15C,2.500000*%
%ADD16C,1.524000*%
G04 APERTURE END LIST*
D10*
X59275714Y60800000D02*
X59347142Y60728572D01*
X59418571Y60514286D01*
X59418571Y60371429D01*
X59347142Y60157143D01*
X59204285Y60014286D01*
X59061428Y59942858D01*
X58775714Y59871429D01*
X58561428Y59871429D01*
X58275714Y59942858D01*
X58132857Y60014286D01*
X57990000Y60157143D01*
X57918571Y60371429D01*
X57918571Y60514286D01*
X57990000Y60728572D01*
X58061428Y60800000D01*
X59418571Y62228572D02*
X59418571Y61371429D01*
X59418571Y61800000D02*
X57918571Y61800000D01*
X58132857Y61657143D01*
X58275714Y61514286D01*
X58347142Y61371429D01*
X57908571Y35164286D02*
X57908571Y34450000D01*
X58622857Y34378572D01*
X58551428Y34450000D01*
X58480000Y34592858D01*
X58480000Y34950000D01*
X58551428Y35092858D01*
X58622857Y35164286D01*
X58765714Y35235715D01*
X59122857Y35235715D01*
X59265714Y35164286D01*
X59337142Y35092858D01*
X59408571Y34950000D01*
X59408571Y34592858D01*
X59337142Y34450000D01*
X59265714Y34378572D01*
X57908571Y35664286D02*
X59408571Y36164286D01*
X57908571Y36664286D01*
X58000000Y30892858D02*
X57928571Y30750000D01*
X57928571Y30535715D01*
X58000000Y30321429D01*
X58142857Y30178572D01*
X58285714Y30107143D01*
X58571428Y30035715D01*
X58785714Y30035715D01*
X59071428Y30107143D01*
X59214285Y30178572D01*
X59357142Y30321429D01*
X59428571Y30535715D01*
X59428571Y30678572D01*
X59357142Y30892858D01*
X59285714Y30964286D01*
X58785714Y30964286D01*
X58785714Y30678572D01*
D11*
X8471428Y42838096D02*
X8471428Y43638096D01*
X8852380Y42838096D02*
X8852380Y43638096D01*
X9309523Y42838096D01*
X9309523Y43638096D01*
X9576190Y43638096D02*
X10033333Y43638096D01*
X9804761Y42838096D02*
X9804761Y43638096D01*
X8890476Y38550000D02*
X8814285Y38588096D01*
X8700000Y38588096D01*
X8585714Y38550000D01*
X8509523Y38473810D01*
X8471428Y38397620D01*
X8433333Y38245239D01*
X8433333Y38130953D01*
X8471428Y37978572D01*
X8509523Y37902381D01*
X8585714Y37826191D01*
X8700000Y37788096D01*
X8776190Y37788096D01*
X8890476Y37826191D01*
X8928571Y37864286D01*
X8928571Y38130953D01*
X8776190Y38130953D01*
X9271428Y37788096D02*
X9271428Y38588096D01*
X9728571Y37788096D01*
X9728571Y38588096D01*
X10109523Y37788096D02*
X10109523Y38588096D01*
X10300000Y38588096D01*
X10414285Y38550000D01*
X10490476Y38473810D01*
X10528571Y38397620D01*
X10566666Y38245239D01*
X10566666Y38130953D01*
X10528571Y37978572D01*
X10490476Y37902381D01*
X10414285Y37826191D01*
X10300000Y37788096D01*
X10109523Y37788096D01*
X8890476Y40288096D02*
X8433334Y40288096D01*
X8661905Y40288096D02*
X8661905Y41088096D01*
X8585715Y40973810D01*
X8509524Y40897620D01*
X8433334Y40859524D01*
X9195238Y41011905D02*
X9233334Y41050000D01*
X9309524Y41088096D01*
X9500000Y41088096D01*
X9576191Y41050000D01*
X9614286Y41011905D01*
X9652381Y40935715D01*
X9652381Y40859524D01*
X9614286Y40745239D01*
X9157143Y40288096D01*
X9652381Y40288096D01*
X9880953Y41088096D02*
X10147619Y40288096D01*
X10414286Y41088096D01*
X8890476Y61400000D02*
X8814285Y61438096D01*
X8700000Y61438096D01*
X8585714Y61400000D01*
X8509523Y61323810D01*
X8471428Y61247620D01*
X8433333Y61095239D01*
X8433333Y60980953D01*
X8471428Y60828572D01*
X8509523Y60752381D01*
X8585714Y60676191D01*
X8700000Y60638096D01*
X8776190Y60638096D01*
X8890476Y60676191D01*
X8928571Y60714286D01*
X8928571Y60980953D01*
X8776190Y60980953D01*
X9271428Y60638096D02*
X9271428Y61438096D01*
X9728571Y60638096D01*
X9728571Y61438096D01*
X10109523Y60638096D02*
X10109523Y61438096D01*
X10300000Y61438096D01*
X10414285Y61400000D01*
X10490476Y61323810D01*
X10528571Y61247620D01*
X10566666Y61095239D01*
X10566666Y60980953D01*
X10528571Y60828572D01*
X10490476Y60752381D01*
X10414285Y60676191D01*
X10300000Y60638096D01*
X10109523Y60638096D01*
X8433334Y55576191D02*
X8547619Y55538096D01*
X8738095Y55538096D01*
X8814286Y55576191D01*
X8852381Y55614286D01*
X8890476Y55690477D01*
X8890476Y55766667D01*
X8852381Y55842858D01*
X8814286Y55880953D01*
X8738095Y55919048D01*
X8585715Y55957143D01*
X8509524Y55995239D01*
X8471429Y56033334D01*
X8433334Y56109524D01*
X8433334Y56185715D01*
X8471429Y56261905D01*
X8509524Y56300000D01*
X8585715Y56338096D01*
X8776191Y56338096D01*
X8890476Y56300000D01*
X9690476Y55614286D02*
X9652381Y55576191D01*
X9538095Y55538096D01*
X9461905Y55538096D01*
X9347619Y55576191D01*
X9271429Y55652381D01*
X9233334Y55728572D01*
X9195238Y55880953D01*
X9195238Y55995239D01*
X9233334Y56147620D01*
X9271429Y56223810D01*
X9347619Y56300000D01*
X9461905Y56338096D01*
X9538095Y56338096D01*
X9652381Y56300000D01*
X9690476Y56261905D01*
X10414286Y55538096D02*
X10033334Y55538096D01*
X10033334Y56338096D01*
X8433333Y45426191D02*
X8547619Y45388096D01*
X8738095Y45388096D01*
X8814286Y45426191D01*
X8852381Y45464286D01*
X8890476Y45540477D01*
X8890476Y45616667D01*
X8852381Y45692858D01*
X8814286Y45730953D01*
X8738095Y45769048D01*
X8585714Y45807143D01*
X8509524Y45845239D01*
X8471429Y45883334D01*
X8433333Y45959524D01*
X8433333Y46035715D01*
X8471429Y46111905D01*
X8509524Y46150000D01*
X8585714Y46188096D01*
X8776190Y46188096D01*
X8890476Y46150000D01*
X9385714Y45769048D02*
X9385714Y45388096D01*
X9119048Y46188096D02*
X9385714Y45769048D01*
X9652381Y46188096D01*
X9919048Y45388096D02*
X9919048Y46188096D01*
X10376190Y45388096D01*
X10376190Y46188096D01*
X11214286Y45464286D02*
X11176190Y45426191D01*
X11061905Y45388096D01*
X10985714Y45388096D01*
X10871429Y45426191D01*
X10795238Y45502381D01*
X10757143Y45578572D01*
X10719048Y45730953D01*
X10719048Y45845239D01*
X10757143Y45997620D01*
X10795238Y46073810D01*
X10871429Y46150000D01*
X10985714Y46188096D01*
X11061905Y46188096D01*
X11176190Y46150000D01*
X11214286Y46111905D01*
D10*
X59255714Y65750000D02*
X59327142Y65678572D01*
X59398571Y65464286D01*
X59398571Y65321429D01*
X59327142Y65107143D01*
X59184285Y64964286D01*
X59041428Y64892858D01*
X58755714Y64821429D01*
X58541428Y64821429D01*
X58255714Y64892858D01*
X58112857Y64964286D01*
X57970000Y65107143D01*
X57898571Y65321429D01*
X57898571Y65464286D01*
X57970000Y65678572D01*
X58041428Y65750000D01*
X57898571Y66678572D02*
X57898571Y66821429D01*
X57970000Y66964286D01*
X58041428Y67035715D01*
X58184285Y67107143D01*
X58470000Y67178572D01*
X58827142Y67178572D01*
X59112857Y67107143D01*
X59255714Y67035715D01*
X59327142Y66964286D01*
X59398571Y66821429D01*
X59398571Y66678572D01*
X59327142Y66535715D01*
X59255714Y66464286D01*
X59112857Y66392858D01*
X58827142Y66321429D01*
X58470000Y66321429D01*
X58184285Y66392858D01*
X58041428Y66464286D01*
X57970000Y66535715D01*
X57898571Y66678572D01*
X59245714Y55650000D02*
X59317142Y55578572D01*
X59388571Y55364286D01*
X59388571Y55221429D01*
X59317142Y55007143D01*
X59174285Y54864286D01*
X59031428Y54792858D01*
X58745714Y54721429D01*
X58531428Y54721429D01*
X58245714Y54792858D01*
X58102857Y54864286D01*
X57960000Y55007143D01*
X57888571Y55221429D01*
X57888571Y55364286D01*
X57960000Y55578572D01*
X58031428Y55650000D01*
X58031428Y56221429D02*
X57960000Y56292858D01*
X57888571Y56435715D01*
X57888571Y56792858D01*
X57960000Y56935715D01*
X58031428Y57007143D01*
X58174285Y57078572D01*
X58317142Y57078572D01*
X58531428Y57007143D01*
X59388571Y56150000D01*
X59388571Y57078572D01*
D11*
X8433333Y53026191D02*
X8547619Y52988096D01*
X8738095Y52988096D01*
X8814285Y53026191D01*
X8852381Y53064286D01*
X8890476Y53140477D01*
X8890476Y53216667D01*
X8852381Y53292858D01*
X8814285Y53330953D01*
X8738095Y53369048D01*
X8585714Y53407143D01*
X8509523Y53445239D01*
X8471428Y53483334D01*
X8433333Y53559524D01*
X8433333Y53635715D01*
X8471428Y53711905D01*
X8509523Y53750000D01*
X8585714Y53788096D01*
X8776190Y53788096D01*
X8890476Y53750000D01*
X9233333Y52988096D02*
X9233333Y53788096D01*
X9423809Y53788096D01*
X9538095Y53750000D01*
X9614285Y53673810D01*
X9652381Y53597620D01*
X9690476Y53445239D01*
X9690476Y53330953D01*
X9652381Y53178572D01*
X9614285Y53102381D01*
X9538095Y53026191D01*
X9423809Y52988096D01*
X9233333Y52988096D01*
X9995238Y53216667D02*
X10376190Y53216667D01*
X9919047Y52988096D02*
X10185714Y53788096D01*
X10452381Y52988096D01*
D10*
X59235714Y40530000D02*
X59307142Y40458572D01*
X59378571Y40244286D01*
X59378571Y40101429D01*
X59307142Y39887143D01*
X59164285Y39744286D01*
X59021428Y39672858D01*
X58735714Y39601429D01*
X58521428Y39601429D01*
X58235714Y39672858D01*
X58092857Y39744286D01*
X57950000Y39887143D01*
X57878571Y40101429D01*
X57878571Y40244286D01*
X57950000Y40458572D01*
X58021428Y40530000D01*
X57878571Y41887143D02*
X57878571Y41172858D01*
X58592857Y41101429D01*
X58521428Y41172858D01*
X58450000Y41315715D01*
X58450000Y41672858D01*
X58521428Y41815715D01*
X58592857Y41887143D01*
X58735714Y41958572D01*
X59092857Y41958572D01*
X59235714Y41887143D01*
X59307142Y41815715D01*
X59378571Y41672858D01*
X59378571Y41315715D01*
X59307142Y41172858D01*
X59235714Y41101429D01*
D11*
X20343333Y9892858D02*
X20343333Y10845239D01*
X20914761Y9702381D02*
X18914761Y10369048D01*
X20914761Y11035715D01*
X20914761Y12845239D02*
X19962380Y12178572D01*
X20914761Y11702381D02*
X18914761Y11702381D01*
X18914761Y12464286D01*
X19010000Y12654762D01*
X19105238Y12750000D01*
X19295714Y12845239D01*
X19581428Y12845239D01*
X19771904Y12750000D01*
X19867142Y12654762D01*
X19962380Y12464286D01*
X19962380Y11702381D01*
X20914761Y13702381D02*
X18914761Y13702381D01*
X18914761Y14178572D01*
X19010000Y14464286D01*
X19200476Y14654762D01*
X19390952Y14750000D01*
X19771904Y14845239D01*
X20057619Y14845239D01*
X20438571Y14750000D01*
X20629047Y14654762D01*
X20819523Y14464286D01*
X20914761Y14178572D01*
X20914761Y13702381D01*
X18914761Y15702381D02*
X20533809Y15702381D01*
X20724285Y15797620D01*
X20819523Y15892858D01*
X20914761Y16083334D01*
X20914761Y16464286D01*
X20819523Y16654762D01*
X20724285Y16750000D01*
X20533809Y16845239D01*
X18914761Y16845239D01*
X20914761Y17797620D02*
X18914761Y17797620D01*
X20914761Y18750000D02*
X18914761Y18750000D01*
X20914761Y19892858D01*
X18914761Y19892858D01*
X18914761Y21226191D02*
X18914761Y21607143D01*
X19010000Y21797620D01*
X19200476Y21988096D01*
X19581428Y22083334D01*
X20248095Y22083334D01*
X20629047Y21988096D01*
X20819523Y21797620D01*
X20914761Y21607143D01*
X20914761Y21226191D01*
X20819523Y21035715D01*
X20629047Y20845239D01*
X20248095Y20750000D01*
X19581428Y20750000D01*
X19200476Y20845239D01*
X19010000Y21035715D01*
X18914761Y21226191D01*
X20914761Y24464286D02*
X18914761Y24464286D01*
X20914761Y25607143D01*
X18914761Y25607143D01*
X20343333Y26464286D02*
X20343333Y27416667D01*
X20914761Y26273810D02*
X18914761Y26940477D01*
X20914761Y27607143D01*
X20914761Y28273810D02*
X18914761Y28273810D01*
X20914761Y29416667D01*
X18914761Y29416667D01*
X18914761Y30750000D02*
X18914761Y31130953D01*
X19010000Y31321429D01*
X19200476Y31511905D01*
X19581428Y31607143D01*
X20248095Y31607143D01*
X20629047Y31511905D01*
X20819523Y31321429D01*
X20914761Y31130953D01*
X20914761Y30750000D01*
X20819523Y30559524D01*
X20629047Y30369048D01*
X20248095Y30273810D01*
X19581428Y30273810D01*
X19200476Y30369048D01*
X19010000Y30559524D01*
X18914761Y30750000D01*
X30761903Y5443334D02*
X31238094Y5443334D01*
X30666665Y5157620D02*
X30999999Y6157620D01*
X31333332Y5157620D01*
X31666665Y5157620D02*
X31666665Y5824286D01*
X31666665Y5729048D02*
X31714284Y5776667D01*
X31809522Y5824286D01*
X31952379Y5824286D01*
X32047618Y5776667D01*
X32095237Y5681429D01*
X32095237Y5157620D01*
X32095237Y5681429D02*
X32142856Y5776667D01*
X32238094Y5824286D01*
X32380951Y5824286D01*
X32476189Y5776667D01*
X32523808Y5681429D01*
X32523808Y5157620D01*
X32999999Y5824286D02*
X32999999Y4824286D01*
X32999999Y5776667D02*
X33095237Y5824286D01*
X33285713Y5824286D01*
X33380951Y5776667D01*
X33428570Y5729048D01*
X33476189Y5633810D01*
X33476189Y5348096D01*
X33428570Y5252858D01*
X33380951Y5205239D01*
X33285713Y5157620D01*
X33095237Y5157620D01*
X32999999Y5205239D01*
X34619046Y5443334D02*
X35095237Y5443334D01*
X34523808Y5157620D02*
X34857141Y6157620D01*
X35190475Y5157620D01*
X35523808Y5824286D02*
X35523808Y5157620D01*
X35523808Y5729048D02*
X35571427Y5776667D01*
X35666665Y5824286D01*
X35809522Y5824286D01*
X35904760Y5776667D01*
X35952379Y5681429D01*
X35952379Y5157620D01*
X36857141Y5157620D02*
X36857141Y5681429D01*
X36809522Y5776667D01*
X36714284Y5824286D01*
X36523808Y5824286D01*
X36428570Y5776667D01*
X36857141Y5205239D02*
X36761903Y5157620D01*
X36523808Y5157620D01*
X36428570Y5205239D01*
X36380951Y5300477D01*
X36380951Y5395715D01*
X36428570Y5490953D01*
X36523808Y5538572D01*
X36761903Y5538572D01*
X36857141Y5586191D01*
X37476189Y5157620D02*
X37380951Y5205239D01*
X37333332Y5300477D01*
X37333332Y6157620D01*
X37999999Y5157620D02*
X37904760Y5205239D01*
X37857141Y5252858D01*
X37809522Y5348096D01*
X37809522Y5633810D01*
X37857141Y5729048D01*
X37904760Y5776667D01*
X37999999Y5824286D01*
X38142856Y5824286D01*
X38238094Y5776667D01*
X38285713Y5729048D01*
X38333332Y5633810D01*
X38333332Y5348096D01*
X38285713Y5252858D01*
X38238094Y5205239D01*
X38142856Y5157620D01*
X37999999Y5157620D01*
X39190475Y5824286D02*
X39190475Y5014762D01*
X39142856Y4919524D01*
X39095237Y4871905D01*
X38999999Y4824286D01*
X38857141Y4824286D01*
X38761903Y4871905D01*
X39190475Y5205239D02*
X39095237Y5157620D01*
X38904760Y5157620D01*
X38809522Y5205239D01*
X38761903Y5252858D01*
X38714284Y5348096D01*
X38714284Y5633810D01*
X38761903Y5729048D01*
X38809522Y5776667D01*
X38904760Y5824286D01*
X39095237Y5824286D01*
X39190475Y5776667D01*
X31928570Y3595239D02*
X32071427Y3547620D01*
X32309522Y3547620D01*
X32404760Y3595239D01*
X32452379Y3642858D01*
X32499999Y3738096D01*
X32499999Y3833334D01*
X32452379Y3928572D01*
X32404760Y3976191D01*
X32309522Y4023810D01*
X32119046Y4071429D01*
X32023808Y4119048D01*
X31976189Y4166667D01*
X31928570Y4261905D01*
X31928570Y4357143D01*
X31976189Y4452381D01*
X32023808Y4500000D01*
X32119046Y4547620D01*
X32357141Y4547620D01*
X32499999Y4500000D01*
X33404760Y3547620D02*
X32928570Y3547620D01*
X32928570Y4547620D01*
X34309522Y3642858D02*
X34261903Y3595239D01*
X34119046Y3547620D01*
X34023808Y3547620D01*
X33880951Y3595239D01*
X33785713Y3690477D01*
X33738094Y3785715D01*
X33690475Y3976191D01*
X33690475Y4119048D01*
X33738094Y4309524D01*
X33785713Y4404762D01*
X33880951Y4500000D01*
X34023808Y4547620D01*
X34119046Y4547620D01*
X34261903Y4500000D01*
X34309522Y4452381D01*
X34499999Y3452381D02*
X35261903Y3452381D01*
X35976189Y3547620D02*
X35499999Y3547620D01*
X35499999Y4547620D01*
X36166665Y4547620D02*
X36499999Y3547620D01*
X36833332Y4547620D01*
X37119046Y3833334D02*
X37595237Y3833334D01*
X37023808Y3547620D02*
X37357141Y4547620D01*
X37690475Y3547620D01*
X38023808Y3547620D02*
X38023808Y4547620D01*
X32547618Y1937620D02*
X32214284Y2413810D01*
X31976189Y1937620D02*
X31976189Y2937620D01*
X32357141Y2937620D01*
X32452379Y2890000D01*
X32499999Y2842381D01*
X32547618Y2747143D01*
X32547618Y2604286D01*
X32499999Y2509048D01*
X32452379Y2461429D01*
X32357141Y2413810D01*
X31976189Y2413810D01*
X33166665Y2937620D02*
X33261903Y2937620D01*
X33357141Y2890000D01*
X33404760Y2842381D01*
X33452379Y2747143D01*
X33499999Y2556667D01*
X33499999Y2318572D01*
X33452379Y2128096D01*
X33404760Y2032858D01*
X33357141Y1985239D01*
X33261903Y1937620D01*
X33166665Y1937620D01*
X33071427Y1985239D01*
X33023808Y2032858D01*
X32976189Y2128096D01*
X32928570Y2318572D01*
X32928570Y2556667D01*
X32976189Y2747143D01*
X33023808Y2842381D01*
X33071427Y2890000D01*
X33166665Y2937620D01*
X34642856Y2842381D02*
X34690475Y2890000D01*
X34785713Y2937620D01*
X35023808Y2937620D01*
X35119046Y2890000D01*
X35166665Y2842381D01*
X35214284Y2747143D01*
X35214284Y2651905D01*
X35166665Y2509048D01*
X34595237Y1937620D01*
X35214284Y1937620D01*
X35833332Y2937620D02*
X35928570Y2937620D01*
X36023808Y2890000D01*
X36071427Y2842381D01*
X36119046Y2747143D01*
X36166665Y2556667D01*
X36166665Y2318572D01*
X36119046Y2128096D01*
X36071427Y2032858D01*
X36023808Y1985239D01*
X35928570Y1937620D01*
X35833332Y1937620D01*
X35738094Y1985239D01*
X35690475Y2032858D01*
X35642856Y2128096D01*
X35595237Y2318572D01*
X35595237Y2556667D01*
X35642856Y2747143D01*
X35690475Y2842381D01*
X35738094Y2890000D01*
X35833332Y2937620D01*
X36547618Y2842381D02*
X36595237Y2890000D01*
X36690475Y2937620D01*
X36928570Y2937620D01*
X37023808Y2890000D01*
X37071427Y2842381D01*
X37119046Y2747143D01*
X37119046Y2651905D01*
X37071427Y2509048D01*
X36499999Y1937620D01*
X37119046Y1937620D01*
X38071427Y1937620D02*
X37499999Y1937620D01*
X37785713Y1937620D02*
X37785713Y2937620D01*
X37690475Y2794762D01*
X37595237Y2699524D01*
X37499999Y2651905D01*
X8471428Y48307143D02*
X8738095Y48307143D01*
X8852380Y47888096D02*
X8471428Y47888096D01*
X8471428Y48688096D01*
X8852380Y48688096D01*
X9157142Y47926191D02*
X9271428Y47888096D01*
X9461904Y47888096D01*
X9538095Y47926191D01*
X9576190Y47964286D01*
X9614285Y48040477D01*
X9614285Y48116667D01*
X9576190Y48192858D01*
X9538095Y48230953D01*
X9461904Y48269048D01*
X9309523Y48307143D01*
X9233333Y48345239D01*
X9195238Y48383334D01*
X9157142Y48459524D01*
X9157142Y48535715D01*
X9195238Y48611905D01*
X9233333Y48650000D01*
X9309523Y48688096D01*
X9499999Y48688096D01*
X9614285Y48650000D01*
X9842857Y48688096D02*
X10299999Y48688096D01*
X10071428Y47888096D02*
X10071428Y48688096D01*
X10719047Y48688096D02*
X10871428Y48688096D01*
X10947619Y48650000D01*
X11023809Y48573810D01*
X11061904Y48421429D01*
X11061904Y48154762D01*
X11023809Y48002381D01*
X10947619Y47926191D01*
X10871428Y47888096D01*
X10719047Y47888096D01*
X10642857Y47926191D01*
X10566666Y48002381D01*
X10528571Y48154762D01*
X10528571Y48421429D01*
X10566666Y48573810D01*
X10642857Y48650000D01*
X10719047Y48688096D01*
X11404761Y47888096D02*
X11404761Y48688096D01*
X11709523Y48688096D01*
X11785714Y48650000D01*
X11823809Y48611905D01*
X11861904Y48535715D01*
X11861904Y48421429D01*
X11823809Y48345239D01*
X11785714Y48307143D01*
X11709523Y48269048D01*
X11404761Y48269048D01*
D10*
X59265714Y50700000D02*
X59337142Y50628572D01*
X59408571Y50414286D01*
X59408571Y50271429D01*
X59337142Y50057143D01*
X59194285Y49914286D01*
X59051428Y49842858D01*
X58765714Y49771429D01*
X58551428Y49771429D01*
X58265714Y49842858D01*
X58122857Y49914286D01*
X57980000Y50057143D01*
X57908571Y50271429D01*
X57908571Y50414286D01*
X57980000Y50628572D01*
X58051428Y50700000D01*
X57908571Y51200000D02*
X57908571Y52128572D01*
X58480000Y51628572D01*
X58480000Y51842858D01*
X58551428Y51985715D01*
X58622857Y52057143D01*
X58765714Y52128572D01*
X59122857Y52128572D01*
X59265714Y52057143D01*
X59337142Y51985715D01*
X59408571Y51842858D01*
X59408571Y51414286D01*
X59337142Y51271429D01*
X59265714Y51200000D01*
X59215714Y45480000D02*
X59287142Y45408572D01*
X59358571Y45194286D01*
X59358571Y45051429D01*
X59287142Y44837143D01*
X59144285Y44694286D01*
X59001428Y44622858D01*
X58715714Y44551429D01*
X58501428Y44551429D01*
X58215714Y44622858D01*
X58072857Y44694286D01*
X57930000Y44837143D01*
X57858571Y45051429D01*
X57858571Y45194286D01*
X57930000Y45408572D01*
X58001428Y45480000D01*
X58358571Y46765715D02*
X59358571Y46765715D01*
X57787142Y46408572D02*
X58858571Y46051429D01*
X58858571Y46980000D01*
D11*
X8890476Y51200000D02*
X8814285Y51238096D01*
X8700000Y51238096D01*
X8585714Y51200000D01*
X8509523Y51123810D01*
X8471428Y51047620D01*
X8433333Y50895239D01*
X8433333Y50780953D01*
X8471428Y50628572D01*
X8509523Y50552381D01*
X8585714Y50476191D01*
X8700000Y50438096D01*
X8776190Y50438096D01*
X8890476Y50476191D01*
X8928571Y50514286D01*
X8928571Y50780953D01*
X8776190Y50780953D01*
X9271428Y50438096D02*
X9271428Y51238096D01*
X9728571Y50438096D01*
X9728571Y51238096D01*
X10109523Y50438096D02*
X10109523Y51238096D01*
X10300000Y51238096D01*
X10414285Y51200000D01*
X10490476Y51123810D01*
X10528571Y51047620D01*
X10566666Y50895239D01*
X10566666Y50780953D01*
X10528571Y50628572D01*
X10490476Y50552381D01*
X10414285Y50476191D01*
X10300000Y50438096D01*
X10109523Y50438096D01*
X8890476Y58088096D02*
X8433334Y58088096D01*
X8661905Y58088096D02*
X8661905Y58888096D01*
X8585715Y58773810D01*
X8509524Y58697620D01*
X8433334Y58659524D01*
X9195238Y58811905D02*
X9233334Y58850000D01*
X9309524Y58888096D01*
X9500000Y58888096D01*
X9576191Y58850000D01*
X9614286Y58811905D01*
X9652381Y58735715D01*
X9652381Y58659524D01*
X9614286Y58545239D01*
X9157143Y58088096D01*
X9652381Y58088096D01*
X9880953Y58888096D02*
X10147619Y58088096D01*
X10414286Y58888096D01*
%TO.C,A1*%
X19305714Y44713334D02*
X19781904Y44713334D01*
X19210476Y44427620D02*
X19543809Y45427620D01*
X19877142Y44427620D01*
X20734285Y44427620D02*
X20162857Y44427620D01*
X20448571Y44427620D02*
X20448571Y45427620D01*
X20353333Y45284762D01*
X20258095Y45189524D01*
X20162857Y45141905D01*
%TO.C,J1*%
X2286666Y64317620D02*
X2286666Y63603334D01*
X2239047Y63460477D01*
X2143809Y63365239D01*
X2000952Y63317620D01*
X1905714Y63317620D01*
X3286666Y63317620D02*
X2715238Y63317620D01*
X3000952Y63317620D02*
X3000952Y64317620D01*
X2905714Y64174762D01*
X2810476Y64079524D01*
X2715238Y64031905D01*
%TO.C,J2*%
X58052380Y63126667D02*
X58766666Y63126667D01*
X58909523Y63079048D01*
X59004761Y62983810D01*
X59052380Y62840953D01*
X59052380Y62745715D01*
X58147619Y63555239D02*
X58100000Y63602858D01*
X58052380Y63698096D01*
X58052380Y63936191D01*
X58100000Y64031429D01*
X58147619Y64079048D01*
X58242857Y64126667D01*
X58338095Y64126667D01*
X58480952Y64079048D01*
X59052380Y63507620D01*
X59052380Y64126667D01*
%TO.C,J3*%
X58052380Y53046667D02*
X58766666Y53046667D01*
X58909523Y52999048D01*
X59004761Y52903810D01*
X59052380Y52760953D01*
X59052380Y52665715D01*
X58052380Y53427620D02*
X58052380Y54046667D01*
X58433333Y53713334D01*
X58433333Y53856191D01*
X58480952Y53951429D01*
X58528571Y53999048D01*
X58623809Y54046667D01*
X58861904Y54046667D01*
X58957142Y53999048D01*
X59004761Y53951429D01*
X59052380Y53856191D01*
X59052380Y53570477D01*
X59004761Y53475239D01*
X58957142Y53427620D01*
%TO.C,J4*%
X58052380Y42886667D02*
X58766666Y42886667D01*
X58909523Y42839048D01*
X59004761Y42743810D01*
X59052380Y42600953D01*
X59052380Y42505715D01*
X58385714Y43791429D02*
X59052380Y43791429D01*
X58004761Y43553334D02*
X58719047Y43315239D01*
X58719047Y43934286D01*
%TO.C,J5*%
X58052380Y32726667D02*
X58766666Y32726667D01*
X58909523Y32679048D01*
X59004761Y32583810D01*
X59052380Y32440953D01*
X59052380Y32345715D01*
X58052380Y33679048D02*
X58052380Y33202858D01*
X58528571Y33155239D01*
X58480952Y33202858D01*
X58433333Y33298096D01*
X58433333Y33536191D01*
X58480952Y33631429D01*
X58528571Y33679048D01*
X58623809Y33726667D01*
X58861904Y33726667D01*
X58957142Y33679048D01*
X59004761Y33631429D01*
X59052380Y33536191D01*
X59052380Y33298096D01*
X59004761Y33202858D01*
X58957142Y33155239D01*
%TO.C,RV1*%
X13524761Y95707620D02*
X13191428Y96183810D01*
X12953333Y95707620D02*
X12953333Y96707620D01*
X13334285Y96707620D01*
X13429523Y96660000D01*
X13477142Y96612381D01*
X13524761Y96517143D01*
X13524761Y96374286D01*
X13477142Y96279048D01*
X13429523Y96231429D01*
X13334285Y96183810D01*
X12953333Y96183810D01*
X13810476Y96707620D02*
X14143809Y95707620D01*
X14477142Y96707620D01*
X15334285Y95707620D02*
X14762857Y95707620D01*
X15048571Y95707620D02*
X15048571Y96707620D01*
X14953333Y96564762D01*
X14858095Y96469524D01*
X14762857Y96421905D01*
%TO.C,RV7*%
X31614761Y96407620D02*
X31281428Y96883810D01*
X31043333Y96407620D02*
X31043333Y97407620D01*
X31424285Y97407620D01*
X31519523Y97360000D01*
X31567142Y97312381D01*
X31614761Y97217143D01*
X31614761Y97074286D01*
X31567142Y96979048D01*
X31519523Y96931429D01*
X31424285Y96883810D01*
X31043333Y96883810D01*
X31900476Y97407620D02*
X32233809Y96407620D01*
X32567142Y97407620D01*
X32805238Y97407620D02*
X33471904Y97407620D01*
X33043333Y96407620D01*
%TO.C,U1*%
X22048095Y98237620D02*
X22048095Y97428096D01*
X22095714Y97332858D01*
X22143333Y97285239D01*
X22238571Y97237620D01*
X22429047Y97237620D01*
X22524285Y97285239D01*
X22571904Y97332858D01*
X22619523Y97428096D01*
X22619523Y98237620D01*
X23619523Y97237620D02*
X23048095Y97237620D01*
X23333809Y97237620D02*
X23333809Y98237620D01*
X23238571Y98094762D01*
X23143333Y97999524D01*
X23048095Y97951905D01*
%TO.C,RV2*%
X37524761Y95707620D02*
X37191428Y96183810D01*
X36953333Y95707620D02*
X36953333Y96707620D01*
X37334285Y96707620D01*
X37429523Y96660000D01*
X37477142Y96612381D01*
X37524761Y96517143D01*
X37524761Y96374286D01*
X37477142Y96279048D01*
X37429523Y96231429D01*
X37334285Y96183810D01*
X36953333Y96183810D01*
X37810476Y96707620D02*
X38143809Y95707620D01*
X38477142Y96707620D01*
X38762857Y96612381D02*
X38810476Y96660000D01*
X38905714Y96707620D01*
X39143809Y96707620D01*
X39239047Y96660000D01*
X39286666Y96612381D01*
X39334285Y96517143D01*
X39334285Y96421905D01*
X39286666Y96279048D01*
X38715238Y95707620D01*
X39334285Y95707620D01*
%TO.C,RV8*%
X55614761Y96407620D02*
X55281428Y96883810D01*
X55043333Y96407620D02*
X55043333Y97407620D01*
X55424285Y97407620D01*
X55519523Y97360000D01*
X55567142Y97312381D01*
X55614761Y97217143D01*
X55614761Y97074286D01*
X55567142Y96979048D01*
X55519523Y96931429D01*
X55424285Y96883810D01*
X55043333Y96883810D01*
X55900476Y97407620D02*
X56233809Y96407620D01*
X56567142Y97407620D01*
X57043333Y96979048D02*
X56948095Y97026667D01*
X56900476Y97074286D01*
X56852857Y97169524D01*
X56852857Y97217143D01*
X56900476Y97312381D01*
X56948095Y97360000D01*
X57043333Y97407620D01*
X57233809Y97407620D01*
X57329047Y97360000D01*
X57376666Y97312381D01*
X57424285Y97217143D01*
X57424285Y97169524D01*
X57376666Y97074286D01*
X57329047Y97026667D01*
X57233809Y96979048D01*
X57043333Y96979048D01*
X56948095Y96931429D01*
X56900476Y96883810D01*
X56852857Y96788572D01*
X56852857Y96598096D01*
X56900476Y96502858D01*
X56948095Y96455239D01*
X57043333Y96407620D01*
X57233809Y96407620D01*
X57329047Y96455239D01*
X57376666Y96502858D01*
X57424285Y96598096D01*
X57424285Y96788572D01*
X57376666Y96883810D01*
X57329047Y96931429D01*
X57233809Y96979048D01*
%TO.C,U2*%
X46048095Y98237620D02*
X46048095Y97428096D01*
X46095714Y97332858D01*
X46143333Y97285239D01*
X46238571Y97237620D01*
X46429047Y97237620D01*
X46524285Y97285239D01*
X46571904Y97332858D01*
X46619523Y97428096D01*
X46619523Y98237620D01*
X47048095Y98142381D02*
X47095714Y98190000D01*
X47190952Y98237620D01*
X47429047Y98237620D01*
X47524285Y98190000D01*
X47571904Y98142381D01*
X47619523Y98047143D01*
X47619523Y97951905D01*
X47571904Y97809048D01*
X47000476Y97237620D01*
X47619523Y97237620D01*
%TO.C,RV3*%
X13524761Y71707620D02*
X13191428Y72183810D01*
X12953333Y71707620D02*
X12953333Y72707620D01*
X13334285Y72707620D01*
X13429523Y72660000D01*
X13477142Y72612381D01*
X13524761Y72517143D01*
X13524761Y72374286D01*
X13477142Y72279048D01*
X13429523Y72231429D01*
X13334285Y72183810D01*
X12953333Y72183810D01*
X13810476Y72707620D02*
X14143809Y71707620D01*
X14477142Y72707620D01*
X14715238Y72707620D02*
X15334285Y72707620D01*
X15000952Y72326667D01*
X15143809Y72326667D01*
X15239047Y72279048D01*
X15286666Y72231429D01*
X15334285Y72136191D01*
X15334285Y71898096D01*
X15286666Y71802858D01*
X15239047Y71755239D01*
X15143809Y71707620D01*
X14858095Y71707620D01*
X14762857Y71755239D01*
X14715238Y71802858D01*
%TO.C,RV9*%
X31614761Y72407620D02*
X31281428Y72883810D01*
X31043333Y72407620D02*
X31043333Y73407620D01*
X31424285Y73407620D01*
X31519523Y73360000D01*
X31567142Y73312381D01*
X31614761Y73217143D01*
X31614761Y73074286D01*
X31567142Y72979048D01*
X31519523Y72931429D01*
X31424285Y72883810D01*
X31043333Y72883810D01*
X31900476Y73407620D02*
X32233809Y72407620D01*
X32567142Y73407620D01*
X32948095Y72407620D02*
X33138571Y72407620D01*
X33233809Y72455239D01*
X33281428Y72502858D01*
X33376666Y72645715D01*
X33424285Y72836191D01*
X33424285Y73217143D01*
X33376666Y73312381D01*
X33329047Y73360000D01*
X33233809Y73407620D01*
X33043333Y73407620D01*
X32948095Y73360000D01*
X32900476Y73312381D01*
X32852857Y73217143D01*
X32852857Y72979048D01*
X32900476Y72883810D01*
X32948095Y72836191D01*
X33043333Y72788572D01*
X33233809Y72788572D01*
X33329047Y72836191D01*
X33376666Y72883810D01*
X33424285Y72979048D01*
%TO.C,U3*%
X22048095Y74237620D02*
X22048095Y73428096D01*
X22095714Y73332858D01*
X22143333Y73285239D01*
X22238571Y73237620D01*
X22429047Y73237620D01*
X22524285Y73285239D01*
X22571904Y73332858D01*
X22619523Y73428096D01*
X22619523Y74237620D01*
X23000476Y74237620D02*
X23619523Y74237620D01*
X23286190Y73856667D01*
X23429047Y73856667D01*
X23524285Y73809048D01*
X23571904Y73761429D01*
X23619523Y73666191D01*
X23619523Y73428096D01*
X23571904Y73332858D01*
X23524285Y73285239D01*
X23429047Y73237620D01*
X23143333Y73237620D01*
X23048095Y73285239D01*
X23000476Y73332858D01*
%TO.C,RV4*%
X37524761Y71707620D02*
X37191428Y72183810D01*
X36953333Y71707620D02*
X36953333Y72707620D01*
X37334285Y72707620D01*
X37429523Y72660000D01*
X37477142Y72612381D01*
X37524761Y72517143D01*
X37524761Y72374286D01*
X37477142Y72279048D01*
X37429523Y72231429D01*
X37334285Y72183810D01*
X36953333Y72183810D01*
X37810476Y72707620D02*
X38143809Y71707620D01*
X38477142Y72707620D01*
X39239047Y72374286D02*
X39239047Y71707620D01*
X39000952Y72755239D02*
X38762857Y72040953D01*
X39381904Y72040953D01*
%TO.C,RV10*%
X55138571Y72407620D02*
X54805238Y72883810D01*
X54567142Y72407620D02*
X54567142Y73407620D01*
X54948095Y73407620D01*
X55043333Y73360000D01*
X55090952Y73312381D01*
X55138571Y73217143D01*
X55138571Y73074286D01*
X55090952Y72979048D01*
X55043333Y72931429D01*
X54948095Y72883810D01*
X54567142Y72883810D01*
X55424285Y73407620D02*
X55757619Y72407620D01*
X56090952Y73407620D01*
X56948095Y72407620D02*
X56376666Y72407620D01*
X56662380Y72407620D02*
X56662380Y73407620D01*
X56567142Y73264762D01*
X56471904Y73169524D01*
X56376666Y73121905D01*
X57567142Y73407620D02*
X57662380Y73407620D01*
X57757619Y73360000D01*
X57805238Y73312381D01*
X57852857Y73217143D01*
X57900476Y73026667D01*
X57900476Y72788572D01*
X57852857Y72598096D01*
X57805238Y72502858D01*
X57757619Y72455239D01*
X57662380Y72407620D01*
X57567142Y72407620D01*
X57471904Y72455239D01*
X57424285Y72502858D01*
X57376666Y72598096D01*
X57329047Y72788572D01*
X57329047Y73026667D01*
X57376666Y73217143D01*
X57424285Y73312381D01*
X57471904Y73360000D01*
X57567142Y73407620D01*
%TO.C,U4*%
X46048095Y74237620D02*
X46048095Y73428096D01*
X46095714Y73332858D01*
X46143333Y73285239D01*
X46238571Y73237620D01*
X46429047Y73237620D01*
X46524285Y73285239D01*
X46571904Y73332858D01*
X46619523Y73428096D01*
X46619523Y74237620D01*
X47524285Y73904286D02*
X47524285Y73237620D01*
X47286190Y74285239D02*
X47048095Y73570953D01*
X47667142Y73570953D01*
%TO.C,RV5*%
X37524761Y48707620D02*
X37191428Y49183810D01*
X36953333Y48707620D02*
X36953333Y49707620D01*
X37334285Y49707620D01*
X37429523Y49660000D01*
X37477142Y49612381D01*
X37524761Y49517143D01*
X37524761Y49374286D01*
X37477142Y49279048D01*
X37429523Y49231429D01*
X37334285Y49183810D01*
X36953333Y49183810D01*
X37810476Y49707620D02*
X38143809Y48707620D01*
X38477142Y49707620D01*
X39286666Y49707620D02*
X38810476Y49707620D01*
X38762857Y49231429D01*
X38810476Y49279048D01*
X38905714Y49326667D01*
X39143809Y49326667D01*
X39239047Y49279048D01*
X39286666Y49231429D01*
X39334285Y49136191D01*
X39334285Y48898096D01*
X39286666Y48802858D01*
X39239047Y48755239D01*
X39143809Y48707620D01*
X38905714Y48707620D01*
X38810476Y48755239D01*
X38762857Y48802858D01*
%TO.C,RV11*%
X55138571Y49407620D02*
X54805238Y49883810D01*
X54567142Y49407620D02*
X54567142Y50407620D01*
X54948095Y50407620D01*
X55043333Y50360000D01*
X55090952Y50312381D01*
X55138571Y50217143D01*
X55138571Y50074286D01*
X55090952Y49979048D01*
X55043333Y49931429D01*
X54948095Y49883810D01*
X54567142Y49883810D01*
X55424285Y50407620D02*
X55757619Y49407620D01*
X56090952Y50407620D01*
X56948095Y49407620D02*
X56376666Y49407620D01*
X56662380Y49407620D02*
X56662380Y50407620D01*
X56567142Y50264762D01*
X56471904Y50169524D01*
X56376666Y50121905D01*
X57900476Y49407620D02*
X57329047Y49407620D01*
X57614761Y49407620D02*
X57614761Y50407620D01*
X57519523Y50264762D01*
X57424285Y50169524D01*
X57329047Y50121905D01*
%TO.C,U5*%
X46048095Y51237620D02*
X46048095Y50428096D01*
X46095714Y50332858D01*
X46143333Y50285239D01*
X46238571Y50237620D01*
X46429047Y50237620D01*
X46524285Y50285239D01*
X46571904Y50332858D01*
X46619523Y50428096D01*
X46619523Y51237620D01*
X47571904Y51237620D02*
X47095714Y51237620D01*
X47048095Y50761429D01*
X47095714Y50809048D01*
X47190952Y50856667D01*
X47429047Y50856667D01*
X47524285Y50809048D01*
X47571904Y50761429D01*
X47619523Y50666191D01*
X47619523Y50428096D01*
X47571904Y50332858D01*
X47524285Y50285239D01*
X47429047Y50237620D01*
X47190952Y50237620D01*
X47095714Y50285239D01*
X47048095Y50332858D01*
%TO.C,RV6*%
X37524761Y24707620D02*
X37191428Y25183810D01*
X36953333Y24707620D02*
X36953333Y25707620D01*
X37334285Y25707620D01*
X37429523Y25660000D01*
X37477142Y25612381D01*
X37524761Y25517143D01*
X37524761Y25374286D01*
X37477142Y25279048D01*
X37429523Y25231429D01*
X37334285Y25183810D01*
X36953333Y25183810D01*
X37810476Y25707620D02*
X38143809Y24707620D01*
X38477142Y25707620D01*
X39239047Y25707620D02*
X39048571Y25707620D01*
X38953333Y25660000D01*
X38905714Y25612381D01*
X38810476Y25469524D01*
X38762857Y25279048D01*
X38762857Y24898096D01*
X38810476Y24802858D01*
X38858095Y24755239D01*
X38953333Y24707620D01*
X39143809Y24707620D01*
X39239047Y24755239D01*
X39286666Y24802858D01*
X39334285Y24898096D01*
X39334285Y25136191D01*
X39286666Y25231429D01*
X39239047Y25279048D01*
X39143809Y25326667D01*
X38953333Y25326667D01*
X38858095Y25279048D01*
X38810476Y25231429D01*
X38762857Y25136191D01*
%TO.C,RV12*%
X55138571Y25407620D02*
X54805238Y25883810D01*
X54567142Y25407620D02*
X54567142Y26407620D01*
X54948095Y26407620D01*
X55043333Y26360000D01*
X55090952Y26312381D01*
X55138571Y26217143D01*
X55138571Y26074286D01*
X55090952Y25979048D01*
X55043333Y25931429D01*
X54948095Y25883810D01*
X54567142Y25883810D01*
X55424285Y26407620D02*
X55757619Y25407620D01*
X56090952Y26407620D01*
X56948095Y25407620D02*
X56376666Y25407620D01*
X56662380Y25407620D02*
X56662380Y26407620D01*
X56567142Y26264762D01*
X56471904Y26169524D01*
X56376666Y26121905D01*
X57329047Y26312381D02*
X57376666Y26360000D01*
X57471904Y26407620D01*
X57710000Y26407620D01*
X57805238Y26360000D01*
X57852857Y26312381D01*
X57900476Y26217143D01*
X57900476Y26121905D01*
X57852857Y25979048D01*
X57281428Y25407620D01*
X57900476Y25407620D01*
%TO.C,U6*%
X46048095Y27237620D02*
X46048095Y26428096D01*
X46095714Y26332858D01*
X46143333Y26285239D01*
X46238571Y26237620D01*
X46429047Y26237620D01*
X46524285Y26285239D01*
X46571904Y26332858D01*
X46619523Y26428096D01*
X46619523Y27237620D01*
X47524285Y27237620D02*
X47333809Y27237620D01*
X47238571Y27190000D01*
X47190952Y27142381D01*
X47095714Y26999524D01*
X47048095Y26809048D01*
X47048095Y26428096D01*
X47095714Y26332858D01*
X47143333Y26285239D01*
X47238571Y26237620D01*
X47429047Y26237620D01*
X47524285Y26285239D01*
X47571904Y26332858D01*
X47619523Y26428096D01*
X47619523Y26666191D01*
X47571904Y26761429D01*
X47524285Y26809048D01*
X47429047Y26856667D01*
X47238571Y26856667D01*
X47143333Y26809048D01*
X47095714Y26761429D01*
X47048095Y26666191D01*
D12*
%TO.C,A1*%
X13670000Y41070000D02*
X11000000Y41070000D01*
X26370000Y41070000D02*
X29040000Y41070000D01*
X13670000Y38530000D02*
X11000000Y38530000D01*
X26370000Y41070000D02*
X26370000Y2970000D01*
X29040000Y43740000D02*
X11000000Y43740000D01*
X11000000Y43740000D02*
X11000000Y41070000D01*
X11000000Y300000D02*
X29040000Y300000D01*
X29040000Y300000D02*
X29040000Y43740000D01*
X26370000Y2970000D02*
X29040000Y2970000D01*
X11000000Y38530000D02*
X11000000Y300000D01*
X13670000Y38530000D02*
X13670000Y2970000D01*
X13670000Y2970000D02*
X11000000Y2970000D01*
X13670000Y38530000D02*
X13670000Y41070000D01*
%TO.C,J1*%
X5540000Y50480000D02*
X5950000Y50480000D01*
X5540000Y62330000D02*
X5540000Y36810000D01*
X5540000Y51200000D02*
X5950000Y51200000D01*
X-3090000Y47030000D02*
X5540000Y47030000D01*
X-3090000Y61973810D02*
X5540000Y61973810D01*
X-3090000Y61029050D02*
X5540000Y61029050D01*
X8110000Y62330000D02*
X8110000Y61000000D01*
X-3090000Y59848100D02*
X5540000Y59848100D01*
X-3090000Y59730000D02*
X5540000Y59730000D01*
X5540000Y46120000D02*
X5950000Y46120000D01*
X-3090000Y62091905D02*
X5540000Y62091905D01*
X5540000Y40320000D02*
X5950000Y40320000D01*
X-3090000Y60674765D02*
X5540000Y60674765D01*
X-3090000Y61619525D02*
X5540000Y61619525D01*
X-3090000Y60202385D02*
X5540000Y60202385D01*
X5540000Y37780000D02*
X5950000Y37780000D01*
X-3090000Y61737620D02*
X5540000Y61737620D01*
X-3090000Y60556670D02*
X5540000Y60556670D01*
X-3090000Y36810000D02*
X5540000Y36810000D01*
X5540000Y53020000D02*
X5950000Y53020000D01*
X-3090000Y54650000D02*
X5540000Y54650000D01*
X5540000Y48660000D02*
X5950000Y48660000D01*
X5540000Y41040000D02*
X5950000Y41040000D01*
X-3090000Y60438575D02*
X5540000Y60438575D01*
X-3090000Y61855715D02*
X5540000Y61855715D01*
X5540000Y60640000D02*
X5890000Y60640000D01*
X7000000Y62330000D02*
X8110000Y62330000D01*
X5540000Y61360000D02*
X5890000Y61360000D01*
X5540000Y53740000D02*
X5950000Y53740000D01*
X5540000Y47940000D02*
X5950000Y47940000D01*
X-3090000Y62330000D02*
X-3090000Y36810000D01*
X-3090000Y60792860D02*
X5540000Y60792860D01*
X-3090000Y44490000D02*
X5540000Y44490000D01*
X-3090000Y60320480D02*
X5540000Y60320480D01*
X-3090000Y60084290D02*
X5540000Y60084290D01*
X-3090000Y39410000D02*
X5540000Y39410000D01*
X-3090000Y60910955D02*
X5540000Y60910955D01*
X-3090000Y49570000D02*
X5540000Y49570000D01*
X-3090000Y57190000D02*
X5540000Y57190000D01*
X-3090000Y52110000D02*
X5540000Y52110000D01*
X5540000Y55560000D02*
X5950000Y55560000D01*
X5540000Y56280000D02*
X5950000Y56280000D01*
X5540000Y58100000D02*
X5950000Y58100000D01*
X5540000Y43580000D02*
X5950000Y43580000D01*
X-3090000Y59966195D02*
X5540000Y59966195D01*
X-3090000Y61501430D02*
X5540000Y61501430D01*
X-3090000Y62330000D02*
X5540000Y62330000D01*
X-3090000Y61383335D02*
X5540000Y61383335D01*
X5540000Y38500000D02*
X5950000Y38500000D01*
X-3090000Y62210000D02*
X5540000Y62210000D01*
X5540000Y58820000D02*
X5950000Y58820000D01*
X-3090000Y61147145D02*
X5540000Y61147145D01*
X-3090000Y61265240D02*
X5540000Y61265240D01*
X-3090000Y41950000D02*
X5540000Y41950000D01*
X5540000Y45400000D02*
X5950000Y45400000D01*
X5540000Y42860000D02*
X5950000Y42860000D01*
%TO.C,Logo1*%
G36*
X44555814Y6531069D02*
G01*
X44639635Y6086445D01*
X44948920Y5958947D01*
X45258206Y5831449D01*
X45629246Y6083754D01*
X45733157Y6154004D01*
X45827087Y6216728D01*
X45906652Y6269062D01*
X45967470Y6308143D01*
X46005157Y6331107D01*
X46015421Y6336058D01*
X46033910Y6323324D01*
X46073420Y6288118D01*
X46129522Y6234938D01*
X46197787Y6168282D01*
X46273786Y6092646D01*
X46353092Y6012528D01*
X46431275Y5932426D01*
X46503907Y5856836D01*
X46566559Y5790255D01*
X46614803Y5737182D01*
X46644210Y5702113D01*
X46651241Y5690377D01*
X46641123Y5668740D01*
X46612759Y5621338D01*
X46569129Y5552807D01*
X46513218Y5467785D01*
X46448006Y5370907D01*
X46410219Y5315650D01*
X46341343Y5214752D01*
X46280140Y5123701D01*
X46229578Y5047030D01*
X46192628Y4989272D01*
X46172258Y4954957D01*
X46169197Y4947746D01*
X46176136Y4927252D01*
X46195051Y4879487D01*
X46223087Y4811168D01*
X46257391Y4729011D01*
X46295109Y4639730D01*
X46333387Y4550042D01*
X46369370Y4466662D01*
X46400206Y4396306D01*
X46423039Y4345690D01*
X46435017Y4321529D01*
X46435724Y4320578D01*
X46454531Y4315964D01*
X46504618Y4305672D01*
X46580793Y4290713D01*
X46677865Y4272099D01*
X46790643Y4250841D01*
X46856442Y4238582D01*
X46976950Y4215638D01*
X47085797Y4193805D01*
X47177476Y4174278D01*
X47246481Y4158252D01*
X47287304Y4146921D01*
X47295511Y4143326D01*
X47303548Y4118994D01*
X47310033Y4064041D01*
X47314970Y3984892D01*
X47318364Y3887974D01*
X47320218Y3779713D01*
X47320538Y3666535D01*
X47319327Y3554865D01*
X47316590Y3451132D01*
X47312331Y3361759D01*
X47306555Y3293174D01*
X47299267Y3251803D01*
X47294895Y3243190D01*
X47268764Y3232867D01*
X47213393Y3218108D01*
X47136107Y3200648D01*
X47044230Y3182220D01*
X47012158Y3176259D01*
X46857524Y3147934D01*
X46735375Y3125124D01*
X46641673Y3106920D01*
X46572384Y3092417D01*
X46523471Y3080708D01*
X46490897Y3070885D01*
X46470628Y3062044D01*
X46458626Y3053276D01*
X46456947Y3051543D01*
X46440184Y3023629D01*
X46414614Y2969305D01*
X46382788Y2895223D01*
X46347260Y2808035D01*
X46310583Y2714392D01*
X46275311Y2620948D01*
X46243996Y2534353D01*
X46219193Y2461260D01*
X46203454Y2408322D01*
X46199332Y2382189D01*
X46199676Y2381274D01*
X46213641Y2359914D01*
X46245322Y2312916D01*
X46291391Y2245173D01*
X46348518Y2161577D01*
X46413373Y2067018D01*
X46431843Y2040146D01*
X46497699Y1942725D01*
X46555650Y1853837D01*
X46602538Y1778588D01*
X46635207Y1722080D01*
X46650500Y1689419D01*
X46651241Y1685407D01*
X46638392Y1664316D01*
X46602888Y1622536D01*
X46549293Y1564555D01*
X46482171Y1494865D01*
X46406087Y1417955D01*
X46325604Y1338317D01*
X46245287Y1260439D01*
X46169699Y1188814D01*
X46103405Y1127930D01*
X46050969Y1082279D01*
X46016955Y1056350D01*
X46007545Y1052117D01*
X45985643Y1062088D01*
X45940800Y1088980D01*
X45880321Y1128264D01*
X45833789Y1159883D01*
X45749475Y1217902D01*
X45649626Y1286216D01*
X45549473Y1354421D01*
X45495627Y1390925D01*
X45313371Y1514200D01*
X45160381Y1431480D01*
X45090682Y1395241D01*
X45031414Y1367074D01*
X44991311Y1351009D01*
X44981103Y1348774D01*
X44968829Y1365278D01*
X44944613Y1411918D01*
X44910263Y1484391D01*
X44867588Y1578394D01*
X44818394Y1689626D01*
X44764490Y1813785D01*
X44707684Y1946568D01*
X44649782Y2083673D01*
X44592593Y2220798D01*
X44537924Y2353642D01*
X44487584Y2477902D01*
X44443380Y2589275D01*
X44407119Y2683461D01*
X44380609Y2756156D01*
X44365658Y2803059D01*
X44363254Y2819167D01*
X44382311Y2839714D01*
X44424036Y2873067D01*
X44479706Y2912298D01*
X44484378Y2915401D01*
X44628264Y3030577D01*
X44744283Y3164947D01*
X44831430Y3314216D01*
X44888699Y3474087D01*
X44915086Y3640263D01*
X44909585Y3808448D01*
X44871190Y3974345D01*
X44798895Y4133658D01*
X44777626Y4168513D01*
X44666996Y4309263D01*
X44536302Y4422286D01*
X44390064Y4506997D01*
X44232808Y4562806D01*
X44069057Y4589126D01*
X43903333Y4585370D01*
X43740162Y4550950D01*
X43584065Y4485277D01*
X43439567Y4387765D01*
X43394869Y4348187D01*
X43281112Y4224297D01*
X43198218Y4093876D01*
X43141356Y3947685D01*
X43109687Y3802912D01*
X43101869Y3640140D01*
X43127938Y3476560D01*
X43185245Y3317702D01*
X43271144Y3169094D01*
X43382986Y3036265D01*
X43518123Y2924744D01*
X43535883Y2912989D01*
X43592150Y2874492D01*
X43634923Y2841137D01*
X43655372Y2819840D01*
X43655669Y2819167D01*
X43651279Y2796129D01*
X43633876Y2743843D01*
X43605268Y2666610D01*
X43567265Y2568732D01*
X43521674Y2454509D01*
X43470303Y2328242D01*
X43414962Y2194233D01*
X43357458Y2056782D01*
X43299601Y1920192D01*
X43243198Y1788763D01*
X43190058Y1666795D01*
X43141990Y1558591D01*
X43100801Y1468451D01*
X43068301Y1400677D01*
X43046297Y1359570D01*
X43037436Y1348774D01*
X43010360Y1357181D01*
X42959697Y1379728D01*
X42894183Y1412387D01*
X42858159Y1431480D01*
X42705168Y1514200D01*
X42522912Y1390925D01*
X42429875Y1327772D01*
X42328015Y1258273D01*
X42232562Y1192835D01*
X42184750Y1159883D01*
X42117505Y1114727D01*
X42060564Y1078943D01*
X42021354Y1057062D01*
X42008619Y1052437D01*
X41990083Y1064915D01*
X41949059Y1099748D01*
X41889525Y1153322D01*
X41815458Y1222017D01*
X41730835Y1302219D01*
X41677315Y1353714D01*
X41583681Y1445714D01*
X41502759Y1528001D01*
X41437823Y1597055D01*
X41392142Y1649356D01*
X41368989Y1681384D01*
X41366768Y1687884D01*
X41377076Y1712606D01*
X41405561Y1762595D01*
X41449063Y1832788D01*
X41504423Y1918125D01*
X41568480Y2013544D01*
X41586697Y2040146D01*
X41653073Y2136833D01*
X41712622Y2223883D01*
X41762016Y2296405D01*
X41797925Y2349507D01*
X41817019Y2378297D01*
X41818864Y2381274D01*
X41816105Y2404218D01*
X41801462Y2454664D01*
X41777487Y2525959D01*
X41746734Y2611453D01*
X41711756Y2704493D01*
X41675107Y2798426D01*
X41639339Y2886601D01*
X41607006Y2962366D01*
X41580662Y3019069D01*
X41562858Y3050057D01*
X41561593Y3051543D01*
X41550706Y3060399D01*
X41532318Y3069157D01*
X41502394Y3078723D01*
X41456897Y3090004D01*
X41391791Y3103907D01*
X41303039Y3121337D01*
X41186607Y3143202D01*
X41038458Y3170409D01*
X41006382Y3176259D01*
X40911314Y3194626D01*
X40828435Y3212595D01*
X40765070Y3228431D01*
X40728542Y3240400D01*
X40723644Y3243190D01*
X40715573Y3267928D01*
X40709013Y3323210D01*
X40703967Y3402611D01*
X40700441Y3499704D01*
X40698439Y3608062D01*
X40697964Y3721260D01*
X40699023Y3832872D01*
X40701618Y3936471D01*
X40705754Y4025632D01*
X40711437Y4093928D01*
X40718669Y4134934D01*
X40723029Y4143326D01*
X40747302Y4151792D01*
X40802574Y4165565D01*
X40883338Y4183450D01*
X40984088Y4204252D01*
X41099317Y4226777D01*
X41162098Y4238582D01*
X41281213Y4260849D01*
X41387435Y4281021D01*
X41475573Y4298085D01*
X41540434Y4311031D01*
X41576826Y4318845D01*
X41582816Y4320578D01*
X41592939Y4340110D01*
X41614338Y4387157D01*
X41644161Y4454997D01*
X41679555Y4536909D01*
X41717668Y4626172D01*
X41755647Y4716065D01*
X41790640Y4799865D01*
X41819794Y4870853D01*
X41840257Y4922306D01*
X41849177Y4947503D01*
X41849343Y4948604D01*
X41839231Y4968481D01*
X41810883Y5014223D01*
X41767277Y5081283D01*
X41711394Y5165116D01*
X41646213Y5261174D01*
X41608321Y5316350D01*
X41539275Y5417519D01*
X41477950Y5509370D01*
X41427337Y5587256D01*
X41390429Y5646531D01*
X41370218Y5682549D01*
X41367299Y5690623D01*
X41379847Y5709416D01*
X41414537Y5749543D01*
X41466937Y5806507D01*
X41532616Y5875815D01*
X41607144Y5952969D01*
X41686087Y6033475D01*
X41765017Y6112837D01*
X41839500Y6186560D01*
X41905106Y6250148D01*
X41957404Y6299106D01*
X41991961Y6328939D01*
X42003522Y6336058D01*
X42022346Y6326047D01*
X42067369Y6297922D01*
X42134213Y6254546D01*
X42218501Y6198782D01*
X42315856Y6133494D01*
X42389293Y6083754D01*
X42760333Y5831449D01*
X43378905Y6086445D01*
X43462725Y6531069D01*
X43546546Y6975693D01*
X44471994Y6975693D01*
X44555814Y6531069D01*
G37*
D13*
X44555814Y6531069D02*
X44639635Y6086445D01*
X44948920Y5958947D01*
X45258206Y5831449D01*
X45629246Y6083754D01*
X45733157Y6154004D01*
X45827087Y6216728D01*
X45906652Y6269062D01*
X45967470Y6308143D01*
X46005157Y6331107D01*
X46015421Y6336058D01*
X46033910Y6323324D01*
X46073420Y6288118D01*
X46129522Y6234938D01*
X46197787Y6168282D01*
X46273786Y6092646D01*
X46353092Y6012528D01*
X46431275Y5932426D01*
X46503907Y5856836D01*
X46566559Y5790255D01*
X46614803Y5737182D01*
X46644210Y5702113D01*
X46651241Y5690377D01*
X46641123Y5668740D01*
X46612759Y5621338D01*
X46569129Y5552807D01*
X46513218Y5467785D01*
X46448006Y5370907D01*
X46410219Y5315650D01*
X46341343Y5214752D01*
X46280140Y5123701D01*
X46229578Y5047030D01*
X46192628Y4989272D01*
X46172258Y4954957D01*
X46169197Y4947746D01*
X46176136Y4927252D01*
X46195051Y4879487D01*
X46223087Y4811168D01*
X46257391Y4729011D01*
X46295109Y4639730D01*
X46333387Y4550042D01*
X46369370Y4466662D01*
X46400206Y4396306D01*
X46423039Y4345690D01*
X46435017Y4321529D01*
X46435724Y4320578D01*
X46454531Y4315964D01*
X46504618Y4305672D01*
X46580793Y4290713D01*
X46677865Y4272099D01*
X46790643Y4250841D01*
X46856442Y4238582D01*
X46976950Y4215638D01*
X47085797Y4193805D01*
X47177476Y4174278D01*
X47246481Y4158252D01*
X47287304Y4146921D01*
X47295511Y4143326D01*
X47303548Y4118994D01*
X47310033Y4064041D01*
X47314970Y3984892D01*
X47318364Y3887974D01*
X47320218Y3779713D01*
X47320538Y3666535D01*
X47319327Y3554865D01*
X47316590Y3451132D01*
X47312331Y3361759D01*
X47306555Y3293174D01*
X47299267Y3251803D01*
X47294895Y3243190D01*
X47268764Y3232867D01*
X47213393Y3218108D01*
X47136107Y3200648D01*
X47044230Y3182220D01*
X47012158Y3176259D01*
X46857524Y3147934D01*
X46735375Y3125124D01*
X46641673Y3106920D01*
X46572384Y3092417D01*
X46523471Y3080708D01*
X46490897Y3070885D01*
X46470628Y3062044D01*
X46458626Y3053276D01*
X46456947Y3051543D01*
X46440184Y3023629D01*
X46414614Y2969305D01*
X46382788Y2895223D01*
X46347260Y2808035D01*
X46310583Y2714392D01*
X46275311Y2620948D01*
X46243996Y2534353D01*
X46219193Y2461260D01*
X46203454Y2408322D01*
X46199332Y2382189D01*
X46199676Y2381274D01*
X46213641Y2359914D01*
X46245322Y2312916D01*
X46291391Y2245173D01*
X46348518Y2161577D01*
X46413373Y2067018D01*
X46431843Y2040146D01*
X46497699Y1942725D01*
X46555650Y1853837D01*
X46602538Y1778588D01*
X46635207Y1722080D01*
X46650500Y1689419D01*
X46651241Y1685407D01*
X46638392Y1664316D01*
X46602888Y1622536D01*
X46549293Y1564555D01*
X46482171Y1494865D01*
X46406087Y1417955D01*
X46325604Y1338317D01*
X46245287Y1260439D01*
X46169699Y1188814D01*
X46103405Y1127930D01*
X46050969Y1082279D01*
X46016955Y1056350D01*
X46007545Y1052117D01*
X45985643Y1062088D01*
X45940800Y1088980D01*
X45880321Y1128264D01*
X45833789Y1159883D01*
X45749475Y1217902D01*
X45649626Y1286216D01*
X45549473Y1354421D01*
X45495627Y1390925D01*
X45313371Y1514200D01*
X45160381Y1431480D01*
X45090682Y1395241D01*
X45031414Y1367074D01*
X44991311Y1351009D01*
X44981103Y1348774D01*
X44968829Y1365278D01*
X44944613Y1411918D01*
X44910263Y1484391D01*
X44867588Y1578394D01*
X44818394Y1689626D01*
X44764490Y1813785D01*
X44707684Y1946568D01*
X44649782Y2083673D01*
X44592593Y2220798D01*
X44537924Y2353642D01*
X44487584Y2477902D01*
X44443380Y2589275D01*
X44407119Y2683461D01*
X44380609Y2756156D01*
X44365658Y2803059D01*
X44363254Y2819167D01*
X44382311Y2839714D01*
X44424036Y2873067D01*
X44479706Y2912298D01*
X44484378Y2915401D01*
X44628264Y3030577D01*
X44744283Y3164947D01*
X44831430Y3314216D01*
X44888699Y3474087D01*
X44915086Y3640263D01*
X44909585Y3808448D01*
X44871190Y3974345D01*
X44798895Y4133658D01*
X44777626Y4168513D01*
X44666996Y4309263D01*
X44536302Y4422286D01*
X44390064Y4506997D01*
X44232808Y4562806D01*
X44069057Y4589126D01*
X43903333Y4585370D01*
X43740162Y4550950D01*
X43584065Y4485277D01*
X43439567Y4387765D01*
X43394869Y4348187D01*
X43281112Y4224297D01*
X43198218Y4093876D01*
X43141356Y3947685D01*
X43109687Y3802912D01*
X43101869Y3640140D01*
X43127938Y3476560D01*
X43185245Y3317702D01*
X43271144Y3169094D01*
X43382986Y3036265D01*
X43518123Y2924744D01*
X43535883Y2912989D01*
X43592150Y2874492D01*
X43634923Y2841137D01*
X43655372Y2819840D01*
X43655669Y2819167D01*
X43651279Y2796129D01*
X43633876Y2743843D01*
X43605268Y2666610D01*
X43567265Y2568732D01*
X43521674Y2454509D01*
X43470303Y2328242D01*
X43414962Y2194233D01*
X43357458Y2056782D01*
X43299601Y1920192D01*
X43243198Y1788763D01*
X43190058Y1666795D01*
X43141990Y1558591D01*
X43100801Y1468451D01*
X43068301Y1400677D01*
X43046297Y1359570D01*
X43037436Y1348774D01*
X43010360Y1357181D01*
X42959697Y1379728D01*
X42894183Y1412387D01*
X42858159Y1431480D01*
X42705168Y1514200D01*
X42522912Y1390925D01*
X42429875Y1327772D01*
X42328015Y1258273D01*
X42232562Y1192835D01*
X42184750Y1159883D01*
X42117505Y1114727D01*
X42060564Y1078943D01*
X42021354Y1057062D01*
X42008619Y1052437D01*
X41990083Y1064915D01*
X41949059Y1099748D01*
X41889525Y1153322D01*
X41815458Y1222017D01*
X41730835Y1302219D01*
X41677315Y1353714D01*
X41583681Y1445714D01*
X41502759Y1528001D01*
X41437823Y1597055D01*
X41392142Y1649356D01*
X41368989Y1681384D01*
X41366768Y1687884D01*
X41377076Y1712606D01*
X41405561Y1762595D01*
X41449063Y1832788D01*
X41504423Y1918125D01*
X41568480Y2013544D01*
X41586697Y2040146D01*
X41653073Y2136833D01*
X41712622Y2223883D01*
X41762016Y2296405D01*
X41797925Y2349507D01*
X41817019Y2378297D01*
X41818864Y2381274D01*
X41816105Y2404218D01*
X41801462Y2454664D01*
X41777487Y2525959D01*
X41746734Y2611453D01*
X41711756Y2704493D01*
X41675107Y2798426D01*
X41639339Y2886601D01*
X41607006Y2962366D01*
X41580662Y3019069D01*
X41562858Y3050057D01*
X41561593Y3051543D01*
X41550706Y3060399D01*
X41532318Y3069157D01*
X41502394Y3078723D01*
X41456897Y3090004D01*
X41391791Y3103907D01*
X41303039Y3121337D01*
X41186607Y3143202D01*
X41038458Y3170409D01*
X41006382Y3176259D01*
X40911314Y3194626D01*
X40828435Y3212595D01*
X40765070Y3228431D01*
X40728542Y3240400D01*
X40723644Y3243190D01*
X40715573Y3267928D01*
X40709013Y3323210D01*
X40703967Y3402611D01*
X40700441Y3499704D01*
X40698439Y3608062D01*
X40697964Y3721260D01*
X40699023Y3832872D01*
X40701618Y3936471D01*
X40705754Y4025632D01*
X40711437Y4093928D01*
X40718669Y4134934D01*
X40723029Y4143326D01*
X40747302Y4151792D01*
X40802574Y4165565D01*
X40883338Y4183450D01*
X40984088Y4204252D01*
X41099317Y4226777D01*
X41162098Y4238582D01*
X41281213Y4260849D01*
X41387435Y4281021D01*
X41475573Y4298085D01*
X41540434Y4311031D01*
X41576826Y4318845D01*
X41582816Y4320578D01*
X41592939Y4340110D01*
X41614338Y4387157D01*
X41644161Y4454997D01*
X41679555Y4536909D01*
X41717668Y4626172D01*
X41755647Y4716065D01*
X41790640Y4799865D01*
X41819794Y4870853D01*
X41840257Y4922306D01*
X41849177Y4947503D01*
X41849343Y4948604D01*
X41839231Y4968481D01*
X41810883Y5014223D01*
X41767277Y5081283D01*
X41711394Y5165116D01*
X41646213Y5261174D01*
X41608321Y5316350D01*
X41539275Y5417519D01*
X41477950Y5509370D01*
X41427337Y5587256D01*
X41390429Y5646531D01*
X41370218Y5682549D01*
X41367299Y5690623D01*
X41379847Y5709416D01*
X41414537Y5749543D01*
X41466937Y5806507D01*
X41532616Y5875815D01*
X41607144Y5952969D01*
X41686087Y6033475D01*
X41765017Y6112837D01*
X41839500Y6186560D01*
X41905106Y6250148D01*
X41957404Y6299106D01*
X41991961Y6328939D01*
X42003522Y6336058D01*
X42022346Y6326047D01*
X42067369Y6297922D01*
X42134213Y6254546D01*
X42218501Y6198782D01*
X42315856Y6133494D01*
X42389293Y6083754D01*
X42760333Y5831449D01*
X43378905Y6086445D01*
X43462725Y6531069D01*
X43546546Y6975693D01*
X44471994Y6975693D01*
X44555814Y6531069D01*
D11*
%TO.C,J2*%
X66800000Y68460000D02*
X66800000Y58460000D01*
X60400000Y63460000D02*
X59900000Y63460000D01*
X69700000Y58460000D02*
X69700000Y68460000D01*
X69700000Y68460000D02*
X59900000Y68460000D01*
X59900000Y58460000D02*
X69700000Y58460000D01*
X60400000Y68460000D02*
X60400000Y58460000D01*
X61900000Y68460000D02*
X61900000Y58460000D01*
X59900000Y68460000D02*
X59900000Y58460000D01*
X66400000Y60960000D02*
G75*
G03*
X66400000Y60960000I-2000000J0D01*
G01*
X66400000Y65960000D02*
G75*
G03*
X66400000Y65960000I-2000000J0D01*
G01*
%TO.C,J3*%
X69700000Y48380000D02*
X69700000Y58380000D01*
X60400000Y58380000D02*
X60400000Y48380000D01*
X61900000Y58380000D02*
X61900000Y48380000D01*
X60400000Y53380000D02*
X59900000Y53380000D01*
X59900000Y58380000D02*
X59900000Y48380000D01*
X66800000Y58380000D02*
X66800000Y48380000D01*
X69700000Y58380000D02*
X59900000Y58380000D01*
X59900000Y48380000D02*
X69700000Y48380000D01*
X66400000Y55880000D02*
G75*
G03*
X66400000Y55880000I-2000000J0D01*
G01*
X66400000Y50880000D02*
G75*
G03*
X66400000Y50880000I-2000000J0D01*
G01*
%TO.C,J4*%
X69700000Y38220000D02*
X69700000Y48220000D01*
X66800000Y48220000D02*
X66800000Y38220000D01*
X59900000Y48220000D02*
X59900000Y38220000D01*
X60400000Y48220000D02*
X60400000Y38220000D01*
X59900000Y38220000D02*
X69700000Y38220000D01*
X60400000Y43220000D02*
X59900000Y43220000D01*
X69700000Y48220000D02*
X59900000Y48220000D01*
X61900000Y48220000D02*
X61900000Y38220000D01*
X66400000Y40720000D02*
G75*
G03*
X66400000Y40720000I-2000000J0D01*
G01*
X66400000Y45720000D02*
G75*
G03*
X66400000Y45720000I-2000000J0D01*
G01*
%TO.C,J5*%
X59900000Y28060000D02*
X69700000Y28060000D01*
X60400000Y38060000D02*
X60400000Y28060000D01*
X69700000Y28060000D02*
X69700000Y38060000D01*
X66800000Y38060000D02*
X66800000Y28060000D01*
X59900000Y38060000D02*
X59900000Y28060000D01*
X61900000Y38060000D02*
X61900000Y28060000D01*
X69700000Y38060000D02*
X59900000Y38060000D01*
X60400000Y33060000D02*
X59900000Y33060000D01*
X66400000Y35560000D02*
G75*
G03*
X66400000Y35560000I-2000000J0D01*
G01*
X66400000Y30560000D02*
G75*
G03*
X66400000Y30560000I-2000000J0D01*
G01*
%TO.C,RV1*%
X12763300Y87473300D02*
X12483900Y87295500D01*
X12458500Y86177900D02*
X12750600Y86000100D01*
X11760000Y85454000D02*
X11760000Y95106000D01*
X12750600Y86000100D02*
X13068100Y85949300D01*
X12255300Y86533500D02*
X12458500Y86177900D01*
X16078000Y95106000D02*
X16078000Y85454000D01*
X13728500Y86393800D02*
X13817400Y86571600D01*
X11760000Y95106000D02*
X16840000Y95106000D01*
X12483900Y87295500D02*
X12268000Y86978000D01*
X12268000Y86724000D02*
X13538000Y86724000D01*
X16840000Y85454000D02*
X14300000Y85454000D01*
X13068100Y85949300D02*
X13474500Y86050900D01*
X13030000Y85454000D02*
X11760000Y85454000D01*
X12268000Y86978000D02*
X12255300Y86533500D01*
X14300000Y85454000D02*
X13030000Y85454000D01*
X13474500Y86050900D02*
X13728500Y86393800D01*
X13017300Y87511400D02*
X12763300Y87473300D01*
%TO.C,RV7*%
X34750000Y84414000D02*
X32210000Y84414000D01*
X30927300Y86471400D02*
X30673300Y86433300D01*
X30165300Y85493500D02*
X30368500Y85137900D01*
X30940000Y84414000D02*
X29670000Y84414000D01*
X29670000Y84414000D02*
X29670000Y94066000D01*
X30178000Y85684000D02*
X31448000Y85684000D01*
X30393900Y86255500D02*
X30178000Y85938000D01*
X29670000Y94066000D02*
X34750000Y94066000D01*
X30178000Y85938000D02*
X30165300Y85493500D01*
X33988000Y94066000D02*
X33988000Y84414000D01*
X30978100Y84909300D02*
X31384500Y85010900D01*
X31384500Y85010900D02*
X31638500Y85353800D01*
X31638500Y85353800D02*
X31727400Y85531600D01*
X30368500Y85137900D02*
X30660600Y84960100D01*
X30660600Y84960100D02*
X30978100Y84909300D01*
X32210000Y84414000D02*
X30940000Y84414000D01*
X30673300Y86433300D02*
X30393900Y86255500D01*
D12*
%TO.C,U1*%
X28060000Y96750000D02*
X17560000Y96750000D01*
X28060000Y78730000D02*
X28060000Y96750000D01*
X17560000Y78730000D02*
X28060000Y78730000D01*
X21810000Y96690000D02*
X20560000Y96690000D01*
X25060000Y96690000D02*
X23810000Y96690000D01*
X25060000Y78790000D02*
X25060000Y96690000D01*
X20560000Y96690000D02*
X20560000Y78790000D01*
X20560000Y78790000D02*
X25060000Y78790000D01*
X17560000Y96750000D02*
X17560000Y78730000D01*
X21810000Y96690000D02*
G75*
G03*
X23810000Y96690000I1000000J0D01*
G01*
D11*
%TO.C,RV2*%
X38300000Y85454000D02*
X37030000Y85454000D01*
X37017300Y87511400D02*
X36763300Y87473300D01*
X37474500Y86050900D02*
X37728500Y86393800D01*
X37728500Y86393800D02*
X37817400Y86571600D01*
X36268000Y86724000D02*
X37538000Y86724000D01*
X35760000Y95106000D02*
X40840000Y95106000D01*
X36255300Y86533500D02*
X36458500Y86177900D01*
X37068100Y85949300D02*
X37474500Y86050900D01*
X37030000Y85454000D02*
X35760000Y85454000D01*
X36763300Y87473300D02*
X36483900Y87295500D01*
X40840000Y85454000D02*
X38300000Y85454000D01*
X36458500Y86177900D02*
X36750600Y86000100D01*
X36483900Y87295500D02*
X36268000Y86978000D01*
X36268000Y86978000D02*
X36255300Y86533500D01*
X35760000Y85454000D02*
X35760000Y95106000D01*
X36750600Y86000100D02*
X37068100Y85949300D01*
X40078000Y95106000D02*
X40078000Y85454000D01*
%TO.C,RV8*%
X57988000Y94066000D02*
X57988000Y84414000D01*
X54927300Y86471400D02*
X54673300Y86433300D01*
X56210000Y84414000D02*
X54940000Y84414000D01*
X54940000Y84414000D02*
X53670000Y84414000D01*
X58750000Y84414000D02*
X56210000Y84414000D01*
X54165300Y85493500D02*
X54368500Y85137900D01*
X54178000Y85684000D02*
X55448000Y85684000D01*
X54178000Y85938000D02*
X54165300Y85493500D01*
X54673300Y86433300D02*
X54393900Y86255500D01*
X54368500Y85137900D02*
X54660600Y84960100D01*
X54393900Y86255500D02*
X54178000Y85938000D01*
X55638500Y85353800D02*
X55727400Y85531600D01*
X54660600Y84960100D02*
X54978100Y84909300D01*
X54978100Y84909300D02*
X55384500Y85010900D01*
X53670000Y84414000D02*
X53670000Y94066000D01*
X55384500Y85010900D02*
X55638500Y85353800D01*
X53670000Y94066000D02*
X58750000Y94066000D01*
D12*
%TO.C,U2*%
X52060000Y96750000D02*
X41560000Y96750000D01*
X41560000Y96750000D02*
X41560000Y78730000D01*
X49060000Y96690000D02*
X47810000Y96690000D01*
X44560000Y96690000D02*
X44560000Y78790000D01*
X41560000Y78730000D02*
X52060000Y78730000D01*
X44560000Y78790000D02*
X49060000Y78790000D01*
X49060000Y78790000D02*
X49060000Y96690000D01*
X45810000Y96690000D02*
X44560000Y96690000D01*
X52060000Y78730000D02*
X52060000Y96750000D01*
X45810000Y96690000D02*
G75*
G03*
X47810000Y96690000I1000000J0D01*
G01*
D11*
%TO.C,RV3*%
X12255300Y62533500D02*
X12458500Y62177900D01*
X12458500Y62177900D02*
X12750600Y62000100D01*
X12268000Y62724000D02*
X13538000Y62724000D01*
X13728500Y62393800D02*
X13817400Y62571600D01*
X12763300Y63473300D02*
X12483900Y63295500D01*
X13068100Y61949300D02*
X13474500Y62050900D01*
X16840000Y61454000D02*
X14300000Y61454000D01*
X12750600Y62000100D02*
X13068100Y61949300D01*
X11760000Y61454000D02*
X11760000Y71106000D01*
X12268000Y62978000D02*
X12255300Y62533500D01*
X14300000Y61454000D02*
X13030000Y61454000D01*
X12483900Y63295500D02*
X12268000Y62978000D01*
X13474500Y62050900D02*
X13728500Y62393800D01*
X11760000Y71106000D02*
X16840000Y71106000D01*
X13030000Y61454000D02*
X11760000Y61454000D01*
X16078000Y71106000D02*
X16078000Y61454000D01*
X13017300Y63511400D02*
X12763300Y63473300D01*
%TO.C,RV9*%
X32210000Y60414000D02*
X30940000Y60414000D01*
X29670000Y60414000D02*
X29670000Y70066000D01*
X29670000Y70066000D02*
X34750000Y70066000D01*
X33988000Y70066000D02*
X33988000Y60414000D01*
X30673300Y62433300D02*
X30393900Y62255500D01*
X31638500Y61353800D02*
X31727400Y61531600D01*
X30368500Y61137900D02*
X30660600Y60960100D01*
X30660600Y60960100D02*
X30978100Y60909300D01*
X30178000Y61938000D02*
X30165300Y61493500D01*
X30393900Y62255500D02*
X30178000Y61938000D01*
X30940000Y60414000D02*
X29670000Y60414000D01*
X30165300Y61493500D02*
X30368500Y61137900D01*
X34750000Y60414000D02*
X32210000Y60414000D01*
X30978100Y60909300D02*
X31384500Y61010900D01*
X30927300Y62471400D02*
X30673300Y62433300D01*
X30178000Y61684000D02*
X31448000Y61684000D01*
X31384500Y61010900D02*
X31638500Y61353800D01*
D12*
%TO.C,U3*%
X25060000Y54790000D02*
X25060000Y72690000D01*
X28060000Y54730000D02*
X28060000Y72750000D01*
X17560000Y54730000D02*
X28060000Y54730000D01*
X21810000Y72690000D02*
X20560000Y72690000D01*
X20560000Y54790000D02*
X25060000Y54790000D01*
X28060000Y72750000D02*
X17560000Y72750000D01*
X25060000Y72690000D02*
X23810000Y72690000D01*
X20560000Y72690000D02*
X20560000Y54790000D01*
X17560000Y72750000D02*
X17560000Y54730000D01*
X21810000Y72690000D02*
G75*
G03*
X23810000Y72690000I1000000J0D01*
G01*
D11*
%TO.C,RV4*%
X37728500Y62393800D02*
X37817400Y62571600D01*
X36268000Y62978000D02*
X36255300Y62533500D01*
X35760000Y71106000D02*
X40840000Y71106000D01*
X37030000Y61454000D02*
X35760000Y61454000D01*
X40840000Y61454000D02*
X38300000Y61454000D01*
X36268000Y62724000D02*
X37538000Y62724000D01*
X36483900Y63295500D02*
X36268000Y62978000D01*
X38300000Y61454000D02*
X37030000Y61454000D01*
X36458500Y62177900D02*
X36750600Y62000100D01*
X37474500Y62050900D02*
X37728500Y62393800D01*
X36255300Y62533500D02*
X36458500Y62177900D01*
X37068100Y61949300D02*
X37474500Y62050900D01*
X35760000Y61454000D02*
X35760000Y71106000D01*
X36750600Y62000100D02*
X37068100Y61949300D01*
X40078000Y71106000D02*
X40078000Y61454000D01*
X36763300Y63473300D02*
X36483900Y63295500D01*
X37017300Y63511400D02*
X36763300Y63473300D01*
%TO.C,RV10*%
X54178000Y61684000D02*
X55448000Y61684000D01*
X54178000Y61938000D02*
X54165300Y61493500D01*
X54660600Y60960100D02*
X54978100Y60909300D01*
X54927300Y62471400D02*
X54673300Y62433300D01*
X58750000Y60414000D02*
X56210000Y60414000D01*
X53670000Y60414000D02*
X53670000Y70066000D01*
X54165300Y61493500D02*
X54368500Y61137900D01*
X54393900Y62255500D02*
X54178000Y61938000D01*
X54673300Y62433300D02*
X54393900Y62255500D01*
X54978100Y60909300D02*
X55384500Y61010900D01*
X55638500Y61353800D02*
X55727400Y61531600D01*
X57988000Y70066000D02*
X57988000Y60414000D01*
X54940000Y60414000D02*
X53670000Y60414000D01*
X53670000Y70066000D02*
X58750000Y70066000D01*
X55384500Y61010900D02*
X55638500Y61353800D01*
X56210000Y60414000D02*
X54940000Y60414000D01*
X54368500Y61137900D02*
X54660600Y60960100D01*
D12*
%TO.C,U4*%
X44560000Y54790000D02*
X49060000Y54790000D01*
X45810000Y72690000D02*
X44560000Y72690000D01*
X41560000Y72750000D02*
X41560000Y54730000D01*
X52060000Y54730000D02*
X52060000Y72750000D01*
X49060000Y72690000D02*
X47810000Y72690000D01*
X44560000Y72690000D02*
X44560000Y54790000D01*
X52060000Y72750000D02*
X41560000Y72750000D01*
X41560000Y54730000D02*
X52060000Y54730000D01*
X49060000Y54790000D02*
X49060000Y72690000D01*
X45810000Y72690000D02*
G75*
G03*
X47810000Y72690000I1000000J0D01*
G01*
D11*
%TO.C,RV5*%
X35760000Y38454000D02*
X35760000Y48106000D01*
X36255300Y39533500D02*
X36458500Y39177900D01*
X36483900Y40295500D02*
X36268000Y39978000D01*
X36268000Y39978000D02*
X36255300Y39533500D01*
X36268000Y39724000D02*
X37538000Y39724000D01*
X38300000Y38454000D02*
X37030000Y38454000D01*
X36763300Y40473300D02*
X36483900Y40295500D01*
X35760000Y48106000D02*
X40840000Y48106000D01*
X37728500Y39393800D02*
X37817400Y39571600D01*
X36750600Y39000100D02*
X37068100Y38949300D01*
X40840000Y38454000D02*
X38300000Y38454000D01*
X37017300Y40511400D02*
X36763300Y40473300D01*
X37068100Y38949300D02*
X37474500Y39050900D01*
X37030000Y38454000D02*
X35760000Y38454000D01*
X40078000Y48106000D02*
X40078000Y38454000D01*
X37474500Y39050900D02*
X37728500Y39393800D01*
X36458500Y39177900D02*
X36750600Y39000100D01*
%TO.C,RV11*%
X54978100Y37909300D02*
X55384500Y38010900D01*
X54673300Y39433300D02*
X54393900Y39255500D01*
X54660600Y37960100D02*
X54978100Y37909300D01*
X54178000Y38684000D02*
X55448000Y38684000D01*
X55384500Y38010900D02*
X55638500Y38353800D01*
X54165300Y38493500D02*
X54368500Y38137900D01*
X53670000Y47066000D02*
X58750000Y47066000D01*
X54940000Y37414000D02*
X53670000Y37414000D01*
X55638500Y38353800D02*
X55727400Y38531600D01*
X54393900Y39255500D02*
X54178000Y38938000D01*
X58750000Y37414000D02*
X56210000Y37414000D01*
X56210000Y37414000D02*
X54940000Y37414000D01*
X54927300Y39471400D02*
X54673300Y39433300D01*
X54178000Y38938000D02*
X54165300Y38493500D01*
X53670000Y37414000D02*
X53670000Y47066000D01*
X57988000Y47066000D02*
X57988000Y37414000D01*
X54368500Y38137900D02*
X54660600Y37960100D01*
D12*
%TO.C,U5*%
X49060000Y49690000D02*
X47810000Y49690000D01*
X41560000Y31730000D02*
X52060000Y31730000D01*
X44560000Y31790000D02*
X49060000Y31790000D01*
X52060000Y49750000D02*
X41560000Y49750000D01*
X45810000Y49690000D02*
X44560000Y49690000D01*
X41560000Y49750000D02*
X41560000Y31730000D01*
X44560000Y49690000D02*
X44560000Y31790000D01*
X49060000Y31790000D02*
X49060000Y49690000D01*
X52060000Y31730000D02*
X52060000Y49750000D01*
X45810000Y49690000D02*
G75*
G03*
X47810000Y49690000I1000000J0D01*
G01*
D11*
%TO.C,RV6*%
X37030000Y14454000D02*
X35760000Y14454000D01*
X38300000Y14454000D02*
X37030000Y14454000D01*
X35760000Y24106000D02*
X40840000Y24106000D01*
X37728500Y15393800D02*
X37817400Y15571600D01*
X36458500Y15177900D02*
X36750600Y15000100D01*
X37017300Y16511400D02*
X36763300Y16473300D01*
X36268000Y15978000D02*
X36255300Y15533500D01*
X37068100Y14949300D02*
X37474500Y15050900D01*
X37474500Y15050900D02*
X37728500Y15393800D01*
X36763300Y16473300D02*
X36483900Y16295500D01*
X40840000Y14454000D02*
X38300000Y14454000D01*
X36268000Y15724000D02*
X37538000Y15724000D01*
X40078000Y24106000D02*
X40078000Y14454000D01*
X35760000Y14454000D02*
X35760000Y24106000D01*
X36483900Y16295500D02*
X36268000Y15978000D01*
X36750600Y15000100D02*
X37068100Y14949300D01*
X36255300Y15533500D02*
X36458500Y15177900D01*
%TO.C,RV12*%
X54178000Y14684000D02*
X55448000Y14684000D01*
X54368500Y14137900D02*
X54660600Y13960100D01*
X56210000Y13414000D02*
X54940000Y13414000D01*
X54393900Y15255500D02*
X54178000Y14938000D01*
X58750000Y13414000D02*
X56210000Y13414000D01*
X54940000Y13414000D02*
X53670000Y13414000D01*
X54978100Y13909300D02*
X55384500Y14010900D01*
X54660600Y13960100D02*
X54978100Y13909300D01*
X54165300Y14493500D02*
X54368500Y14137900D01*
X55384500Y14010900D02*
X55638500Y14353800D01*
X54178000Y14938000D02*
X54165300Y14493500D01*
X54927300Y15471400D02*
X54673300Y15433300D01*
X54673300Y15433300D02*
X54393900Y15255500D01*
X53670000Y23066000D02*
X58750000Y23066000D01*
X55638500Y14353800D02*
X55727400Y14531600D01*
X53670000Y13414000D02*
X53670000Y23066000D01*
X57988000Y23066000D02*
X57988000Y13414000D01*
D12*
%TO.C,U6*%
X41560000Y7730000D02*
X52060000Y7730000D01*
X49060000Y7790000D02*
X49060000Y25690000D01*
X49060000Y25690000D02*
X47810000Y25690000D01*
X52060000Y25750000D02*
X41560000Y25750000D01*
X45810000Y25690000D02*
X44560000Y25690000D01*
X41560000Y25750000D02*
X41560000Y7730000D01*
X52060000Y7730000D02*
X52060000Y25750000D01*
X44560000Y7790000D02*
X49060000Y7790000D01*
X44560000Y25690000D02*
X44560000Y7790000D01*
X45810000Y25690000D02*
G75*
G03*
X47810000Y25690000I1000000J0D01*
G01*
%TD*%
D14*
%TO.C,J2*%
X64500000Y65960000D03*
D15*
X64500000Y60960000D03*
%TD*%
D14*
%TO.C,J3*%
X64500000Y55880000D03*
D15*
X64500000Y50880000D03*
%TD*%
D14*
%TO.C,J4*%
X64500000Y45720000D03*
D15*
X64500000Y40720000D03*
%TD*%
D14*
%TO.C,J5*%
X64500000Y35560000D03*
D15*
X64500000Y30560000D03*
%TD*%
D16*
%TO.C,RV1*%
X14300000Y87740000D03*
X14300000Y90280000D03*
X14300000Y92820000D03*
%TD*%
%TO.C,RV7*%
X32210000Y86700000D03*
X32210000Y89240000D03*
X32210000Y91780000D03*
%TD*%
%TO.C,RV2*%
X38300000Y87740000D03*
X38300000Y90280000D03*
X38300000Y92820000D03*
%TD*%
%TO.C,RV8*%
X56210000Y86700000D03*
X56210000Y89240000D03*
X56210000Y91780000D03*
%TD*%
%TO.C,RV3*%
X14300000Y63740000D03*
X14300000Y66280000D03*
X14300000Y68820000D03*
%TD*%
%TO.C,RV9*%
X32210000Y62700000D03*
X32210000Y65240000D03*
X32210000Y67780000D03*
%TD*%
%TO.C,RV4*%
X38300000Y63740000D03*
X38300000Y66280000D03*
X38300000Y68820000D03*
%TD*%
%TO.C,RV10*%
X56210000Y62700000D03*
X56210000Y65240000D03*
X56210000Y67780000D03*
%TD*%
%TO.C,RV5*%
X38300000Y40740000D03*
X38300000Y43280000D03*
X38300000Y45820000D03*
%TD*%
%TO.C,RV11*%
X56210000Y39700000D03*
X56210000Y42240000D03*
X56210000Y44780000D03*
%TD*%
%TO.C,RV6*%
X38300000Y16740000D03*
X38300000Y19280000D03*
X38300000Y21820000D03*
%TD*%
%TO.C,RV12*%
X56210000Y15700000D03*
X56210000Y18240000D03*
X56210000Y20780000D03*
%TD*%
M02*
