%TF.GenerationSoftware,KiCad,Pcbnew,8.0.5*%
%TF.CreationDate,2024-09-29T17:50:40-04:00*%
%TF.ProjectId,BREAD_Slice,42524541-445f-4536-9c69-63652e6b6963,rev?*%
%TF.SameCoordinates,PX74eba40PY8552dc0*%
%TF.FileFunction,Paste,Bot*%
%TF.FilePolarity,Positive*%
%FSLAX46Y46*%
G04 Gerber Fmt 4.6, Leading zero omitted, Abs format (unit mm)*
G04 Created by KiCad (PCBNEW 8.0.5) date 2024-09-29 17:50:40*
%MOMM*%
%LPD*%
G01*
G04 APERTURE LIST*
G04 Aperture macros list*
%AMRoundRect*
0 Rectangle with rounded corners*
0 $1 Rounding radius*
0 $2 $3 $4 $5 $6 $7 $8 $9 X,Y pos of 4 corners*
0 Add a 4 corners polygon primitive as box body*
4,1,4,$2,$3,$4,$5,$6,$7,$8,$9,$2,$3,0*
0 Add four circle primitives for the rounded corners*
1,1,$1+$1,$2,$3*
1,1,$1+$1,$4,$5*
1,1,$1+$1,$6,$7*
1,1,$1+$1,$8,$9*
0 Add four rect primitives between the rounded corners*
20,1,$1+$1,$2,$3,$4,$5,0*
20,1,$1+$1,$4,$5,$6,$7,0*
20,1,$1+$1,$6,$7,$8,$9,0*
20,1,$1+$1,$8,$9,$2,$3,0*%
G04 Aperture macros list end*
%ADD10RoundRect,0.250000X-0.625000X0.400000X-0.625000X-0.400000X0.625000X-0.400000X0.625000X0.400000X0*%
%ADD11RoundRect,0.250000X0.625000X-0.400000X0.625000X0.400000X-0.625000X0.400000X-0.625000X-0.400000X0*%
%ADD12RoundRect,0.250000X0.412500X0.650000X-0.412500X0.650000X-0.412500X-0.650000X0.412500X-0.650000X0*%
%ADD13RoundRect,0.250000X-0.400000X-0.625000X0.400000X-0.625000X0.400000X0.625000X-0.400000X0.625000X0*%
%ADD14RoundRect,0.250000X0.400000X0.625000X-0.400000X0.625000X-0.400000X-0.625000X0.400000X-0.625000X0*%
%ADD15RoundRect,0.150000X0.150000X0.625000X-0.150000X0.625000X-0.150000X-0.625000X0.150000X-0.625000X0*%
%ADD16RoundRect,0.250000X0.350000X0.650000X-0.350000X0.650000X-0.350000X-0.650000X0.350000X-0.650000X0*%
%ADD17RoundRect,0.250000X0.325000X0.650000X-0.325000X0.650000X-0.325000X-0.650000X0.325000X-0.650000X0*%
%ADD18RoundRect,0.250000X-0.650000X0.412500X-0.650000X-0.412500X0.650000X-0.412500X0.650000X0.412500X0*%
%ADD19RoundRect,0.150000X-0.512500X-0.150000X0.512500X-0.150000X0.512500X0.150000X-0.512500X0.150000X0*%
%ADD20RoundRect,0.250000X-0.412500X-0.650000X0.412500X-0.650000X0.412500X0.650000X-0.412500X0.650000X0*%
%ADD21RoundRect,0.250000X-0.325000X-0.650000X0.325000X-0.650000X0.325000X0.650000X-0.325000X0.650000X0*%
%ADD22RoundRect,0.250000X-0.375000X-1.075000X0.375000X-1.075000X0.375000X1.075000X-0.375000X1.075000X0*%
G04 APERTURE END LIST*
D10*
%TO.C,R30*%
X57890000Y48415000D03*
X57890000Y45315000D03*
%TD*%
D11*
%TO.C,R19*%
X49135000Y67387500D03*
X49135000Y70487500D03*
%TD*%
D12*
%TO.C,C5*%
X40262500Y77700000D03*
X37137500Y77700000D03*
%TD*%
D13*
%TO.C,R28*%
X12087500Y60512500D03*
X15187500Y60512500D03*
%TD*%
D14*
%TO.C,R34*%
X41740000Y50515000D03*
X38640000Y50515000D03*
%TD*%
%TO.C,R1*%
X58050000Y77675000D03*
X54950000Y77675000D03*
%TD*%
D10*
%TO.C,R32*%
X55090000Y48415000D03*
X55090000Y45315000D03*
%TD*%
D15*
%TO.C,J1*%
X29098000Y5400000D03*
X28098000Y5400000D03*
X27098000Y5400000D03*
X26098000Y5400000D03*
D16*
X30398000Y1525000D03*
X24798000Y1525000D03*
%TD*%
D10*
%TO.C,R4*%
X55200000Y93875000D03*
X55200000Y90775000D03*
%TD*%
%TO.C,R18*%
X55135000Y70937500D03*
X55135000Y67837500D03*
%TD*%
D14*
%TO.C,R22*%
X31850000Y54800000D03*
X28750000Y54800000D03*
%TD*%
D12*
%TO.C,C12*%
X15200000Y58012500D03*
X12075000Y58012500D03*
%TD*%
D17*
%TO.C,C1*%
X7425000Y20345000D03*
X4475000Y20345000D03*
%TD*%
D10*
%TO.C,R16*%
X57935000Y70937500D03*
X57935000Y67837500D03*
%TD*%
%TO.C,R23*%
X31800000Y71000000D03*
X31800000Y67900000D03*
%TD*%
D18*
%TO.C,C15*%
X54600000Y17500000D03*
X54600000Y14375000D03*
%TD*%
D14*
%TO.C,R27*%
X15650000Y73100000D03*
X12550000Y73100000D03*
%TD*%
D18*
%TO.C,C13*%
X58600000Y39625000D03*
X58600000Y36500000D03*
%TD*%
D11*
%TO.C,R10*%
X23000000Y83825000D03*
X23000000Y86925000D03*
%TD*%
%TO.C,R33*%
X49090000Y44865000D03*
X49090000Y47965000D03*
%TD*%
D13*
%TO.C,R7*%
X38287500Y83387500D03*
X41387500Y83387500D03*
%TD*%
D11*
%TO.C,R24*%
X23000000Y60925000D03*
X23000000Y64025000D03*
%TD*%
D14*
%TO.C,R13*%
X15650000Y96000000D03*
X12550000Y96000000D03*
%TD*%
D10*
%TO.C,R2*%
X58000000Y93875000D03*
X58000000Y90775000D03*
%TD*%
D13*
%TO.C,R35*%
X38177500Y37927500D03*
X41277500Y37927500D03*
%TD*%
D18*
%TO.C,C7*%
X33100000Y85162500D03*
X33100000Y82037500D03*
%TD*%
D19*
%TO.C,U1*%
X5012500Y16095000D03*
X5012500Y17045000D03*
X5012500Y17995000D03*
X7287500Y17995000D03*
X7287500Y17045000D03*
X7287500Y16095000D03*
%TD*%
D10*
%TO.C,R39*%
X55300000Y26375000D03*
X55300000Y23275000D03*
%TD*%
D14*
%TO.C,R20*%
X41785000Y73037500D03*
X38685000Y73037500D03*
%TD*%
D11*
%TO.C,R31*%
X49090000Y38340000D03*
X49090000Y41440000D03*
%TD*%
D12*
%TO.C,C6*%
X41400000Y80887500D03*
X38275000Y80887500D03*
%TD*%
D11*
%TO.C,R40*%
X49300000Y22825000D03*
X49300000Y25925000D03*
%TD*%
D12*
%TO.C,C14*%
X41290000Y35427500D03*
X38165000Y35427500D03*
%TD*%
D14*
%TO.C,R6*%
X41850000Y94800000D03*
X38750000Y94800000D03*
%TD*%
D11*
%TO.C,R38*%
X49300000Y16300000D03*
X49300000Y19400000D03*
%TD*%
D12*
%TO.C,C8*%
X15200000Y80912500D03*
X12075000Y80912500D03*
%TD*%
D20*
%TO.C,C11*%
X12187500Y54525000D03*
X15312500Y54525000D03*
%TD*%
D17*
%TO.C,C2*%
X10025000Y13545000D03*
X7075000Y13545000D03*
%TD*%
D13*
%TO.C,R42*%
X38387500Y15887500D03*
X41487500Y15887500D03*
%TD*%
D12*
%TO.C,C16*%
X41500000Y13387500D03*
X38375000Y13387500D03*
%TD*%
D21*
%TO.C,C3*%
X9775000Y20345000D03*
X12725000Y20345000D03*
%TD*%
D18*
%TO.C,C9*%
X58700000Y62300000D03*
X58700000Y59175000D03*
%TD*%
D10*
%TO.C,R37*%
X58100000Y26375000D03*
X58100000Y23275000D03*
%TD*%
D11*
%TO.C,R5*%
X49200000Y90325000D03*
X49200000Y93425000D03*
%TD*%
D10*
%TO.C,R25*%
X29000000Y71000000D03*
X29000000Y67900000D03*
%TD*%
D12*
%TO.C,C10*%
X41335000Y57950000D03*
X38210000Y57950000D03*
%TD*%
D14*
%TO.C,R15*%
X57985000Y54737500D03*
X54885000Y54737500D03*
%TD*%
D21*
%TO.C,C4*%
X9775000Y23345000D03*
X12725000Y23345000D03*
%TD*%
D11*
%TO.C,R17*%
X49135000Y60862500D03*
X49135000Y63962500D03*
%TD*%
D14*
%TO.C,R41*%
X41950000Y28475000D03*
X38850000Y28475000D03*
%TD*%
D10*
%TO.C,R9*%
X31800000Y93900000D03*
X31800000Y90800000D03*
%TD*%
D14*
%TO.C,R36*%
X58150000Y10175000D03*
X55050000Y10175000D03*
%TD*%
D11*
%TO.C,R26*%
X23000000Y67450000D03*
X23000000Y70550000D03*
%TD*%
D14*
%TO.C,R29*%
X57940000Y32215000D03*
X54840000Y32215000D03*
%TD*%
%TO.C,R8*%
X31850000Y77700000D03*
X28750000Y77700000D03*
%TD*%
D22*
%TO.C,L1*%
X9850000Y17045000D03*
X12650000Y17045000D03*
%TD*%
D11*
%TO.C,R12*%
X23000000Y90350000D03*
X23000000Y93450000D03*
%TD*%
D10*
%TO.C,R11*%
X29000000Y93900000D03*
X29000000Y90800000D03*
%TD*%
D11*
%TO.C,R3*%
X49200000Y83800000D03*
X49200000Y86900000D03*
%TD*%
D13*
%TO.C,R14*%
X12087500Y83412500D03*
X15187500Y83412500D03*
%TD*%
%TO.C,R21*%
X38222500Y60450000D03*
X41322500Y60450000D03*
%TD*%
M02*
