%TF.GenerationSoftware,KiCad,Pcbnew,8.0.5*%
%TF.CreationDate,2024-09-29T17:50:40-04:00*%
%TF.ProjectId,BREAD_Slice,42524541-445f-4536-9c69-63652e6b6963,rev?*%
%TF.SameCoordinates,PX74eba40PY8552dc0*%
%TF.FileFunction,Legend,Bot*%
%TF.FilePolarity,Positive*%
%FSLAX46Y46*%
G04 Gerber Fmt 4.6, Leading zero omitted, Abs format (unit mm)*
G04 Created by KiCad (PCBNEW 8.0.5) date 2024-09-29 17:50:40*
%MOMM*%
%LPD*%
G01*
G04 APERTURE LIST*
%ADD10C,0.120000*%
%ADD11C,0.150000*%
G04 APERTURE END LIST*
D10*
X2450000Y26913000D02*
X3770000Y26913000D01*
X4250000Y26913000D02*
X5570000Y26913000D01*
X6050000Y26913000D02*
X7370000Y26913000D01*
X7850000Y26913000D02*
X9170000Y26913000D01*
X9650000Y26913000D02*
X10970000Y26913000D01*
X11450000Y26913000D02*
X12770000Y26913000D01*
X13250000Y26913000D02*
X14570000Y26913000D01*
X15050000Y26913000D02*
X16150000Y26913000D01*
X16150000Y26913000D02*
X16150000Y25593000D01*
X16150000Y25113000D02*
X16150000Y23793000D01*
X16150000Y23313000D02*
X16150000Y21993000D01*
X16150000Y21513000D02*
X16150000Y20193000D01*
X16150000Y19713000D02*
X16150000Y18393000D01*
X16150000Y17913000D02*
X16150000Y16593000D01*
X16150000Y16113000D02*
X16150000Y14793000D01*
X16150000Y14313000D02*
X16150000Y12993000D01*
X16150000Y12513000D02*
X16150000Y11193000D01*
X16150000Y10713000D02*
X16150000Y10445000D01*
X16150000Y10445000D02*
X14830000Y10445000D01*
X14350000Y10445000D02*
X13030000Y10445000D01*
X12550000Y10445000D02*
X11230000Y10445000D01*
X10750000Y10445000D02*
X9430000Y10445000D01*
X8950000Y10445000D02*
X7630000Y10445000D01*
X7150000Y10445000D02*
X5830000Y10445000D01*
X5350000Y10445000D02*
X4030000Y10445000D01*
X3550000Y10445000D02*
X2450000Y10445000D01*
X2450000Y10445000D02*
X2450000Y11765000D01*
X2450000Y12245000D02*
X2450000Y13565000D01*
X2450000Y14045000D02*
X2450000Y15365000D01*
X2450000Y15845000D02*
X2450000Y17165000D01*
X2450000Y17645000D02*
X2450000Y18965000D01*
X2450000Y19445000D02*
X2450000Y20765000D01*
X2450000Y21245000D02*
X2450000Y22565000D01*
X2450000Y23045000D02*
X2450000Y24365000D01*
X2450000Y24845000D02*
X2450000Y26165000D01*
X2450000Y26645000D02*
X2450000Y26913000D01*
D11*
X13773809Y25375181D02*
X14345237Y25375181D01*
X14059523Y25375181D02*
X14059523Y26375181D01*
X14059523Y26375181D02*
X14154761Y26232324D01*
X14154761Y26232324D02*
X14249999Y26137086D01*
X14249999Y26137086D02*
X14345237Y26089467D01*
X13392856Y26279943D02*
X13345237Y26327562D01*
X13345237Y26327562D02*
X13249999Y26375181D01*
X13249999Y26375181D02*
X13011904Y26375181D01*
X13011904Y26375181D02*
X12916666Y26327562D01*
X12916666Y26327562D02*
X12869047Y26279943D01*
X12869047Y26279943D02*
X12821428Y26184705D01*
X12821428Y26184705D02*
X12821428Y26089467D01*
X12821428Y26089467D02*
X12869047Y25946610D01*
X12869047Y25946610D02*
X13440475Y25375181D01*
X13440475Y25375181D02*
X12821428Y25375181D01*
X12535713Y26375181D02*
X12202380Y25375181D01*
X12202380Y25375181D02*
X11869047Y26375181D01*
X11535713Y25756134D02*
X10773809Y25756134D01*
X10297618Y26041848D02*
X9535714Y25756134D01*
X9535714Y25756134D02*
X10297618Y25470420D01*
X8583333Y26375181D02*
X9059523Y26375181D01*
X9059523Y26375181D02*
X9107142Y25898991D01*
X9107142Y25898991D02*
X9059523Y25946610D01*
X9059523Y25946610D02*
X8964285Y25994229D01*
X8964285Y25994229D02*
X8726190Y25994229D01*
X8726190Y25994229D02*
X8630952Y25946610D01*
X8630952Y25946610D02*
X8583333Y25898991D01*
X8583333Y25898991D02*
X8535714Y25803753D01*
X8535714Y25803753D02*
X8535714Y25565658D01*
X8535714Y25565658D02*
X8583333Y25470420D01*
X8583333Y25470420D02*
X8630952Y25422800D01*
X8630952Y25422800D02*
X8726190Y25375181D01*
X8726190Y25375181D02*
X8964285Y25375181D01*
X8964285Y25375181D02*
X9059523Y25422800D01*
X9059523Y25422800D02*
X9107142Y25470420D01*
X8249999Y26375181D02*
X7916666Y25375181D01*
X7916666Y25375181D02*
X7583333Y26375181D01*
X5916666Y25375181D02*
X6249999Y25851372D01*
X6488094Y25375181D02*
X6488094Y26375181D01*
X6488094Y26375181D02*
X6107142Y26375181D01*
X6107142Y26375181D02*
X6011904Y26327562D01*
X6011904Y26327562D02*
X5964285Y26279943D01*
X5964285Y26279943D02*
X5916666Y26184705D01*
X5916666Y26184705D02*
X5916666Y26041848D01*
X5916666Y26041848D02*
X5964285Y25946610D01*
X5964285Y25946610D02*
X6011904Y25898991D01*
X6011904Y25898991D02*
X6107142Y25851372D01*
X6107142Y25851372D02*
X6488094Y25851372D01*
X5107142Y25422800D02*
X5202380Y25375181D01*
X5202380Y25375181D02*
X5392856Y25375181D01*
X5392856Y25375181D02*
X5488094Y25422800D01*
X5488094Y25422800D02*
X5535713Y25518039D01*
X5535713Y25518039D02*
X5535713Y25898991D01*
X5535713Y25898991D02*
X5488094Y25994229D01*
X5488094Y25994229D02*
X5392856Y26041848D01*
X5392856Y26041848D02*
X5202380Y26041848D01*
X5202380Y26041848D02*
X5107142Y25994229D01*
X5107142Y25994229D02*
X5059523Y25898991D01*
X5059523Y25898991D02*
X5059523Y25803753D01*
X5059523Y25803753D02*
X5535713Y25708515D01*
X4202380Y26041848D02*
X4202380Y25232324D01*
X4202380Y25232324D02*
X4249999Y25137086D01*
X4249999Y25137086D02*
X4297618Y25089467D01*
X4297618Y25089467D02*
X4392856Y25041848D01*
X4392856Y25041848D02*
X4535713Y25041848D01*
X4535713Y25041848D02*
X4630951Y25089467D01*
X4202380Y25422800D02*
X4297618Y25375181D01*
X4297618Y25375181D02*
X4488094Y25375181D01*
X4488094Y25375181D02*
X4583332Y25422800D01*
X4583332Y25422800D02*
X4630951Y25470420D01*
X4630951Y25470420D02*
X4678570Y25565658D01*
X4678570Y25565658D02*
X4678570Y25851372D01*
X4678570Y25851372D02*
X4630951Y25946610D01*
X4630951Y25946610D02*
X4583332Y25994229D01*
X4583332Y25994229D02*
X4488094Y26041848D01*
X4488094Y26041848D02*
X4297618Y26041848D01*
X4297618Y26041848D02*
X4202380Y25994229D01*
X29764666Y10740125D02*
X30240856Y10740125D01*
X30240856Y10740125D02*
X30288475Y10263935D01*
X30288475Y10263935D02*
X30240856Y10311554D01*
X30240856Y10311554D02*
X30145618Y10359173D01*
X30145618Y10359173D02*
X29907523Y10359173D01*
X29907523Y10359173D02*
X29812285Y10311554D01*
X29812285Y10311554D02*
X29764666Y10263935D01*
X29764666Y10263935D02*
X29717047Y10168697D01*
X29717047Y10168697D02*
X29717047Y9930602D01*
X29717047Y9930602D02*
X29764666Y9835364D01*
X29764666Y9835364D02*
X29812285Y9787744D01*
X29812285Y9787744D02*
X29907523Y9740125D01*
X29907523Y9740125D02*
X30145618Y9740125D01*
X30145618Y9740125D02*
X30240856Y9787744D01*
X30240856Y9787744D02*
X30288475Y9835364D01*
X29431332Y10740125D02*
X29097999Y9740125D01*
X29097999Y9740125D02*
X28764666Y10740125D01*
X27669427Y9740125D02*
X27669427Y10740125D01*
X27240856Y10644887D02*
X27193237Y10692506D01*
X27193237Y10692506D02*
X27097999Y10740125D01*
X27097999Y10740125D02*
X26859904Y10740125D01*
X26859904Y10740125D02*
X26764666Y10692506D01*
X26764666Y10692506D02*
X26717047Y10644887D01*
X26717047Y10644887D02*
X26669428Y10549649D01*
X26669428Y10549649D02*
X26669428Y10454411D01*
X26669428Y10454411D02*
X26717047Y10311554D01*
X26717047Y10311554D02*
X27288475Y9740125D01*
X27288475Y9740125D02*
X26669428Y9740125D01*
X25669428Y9835364D02*
X25717047Y9787744D01*
X25717047Y9787744D02*
X25859904Y9740125D01*
X25859904Y9740125D02*
X25955142Y9740125D01*
X25955142Y9740125D02*
X26097999Y9787744D01*
X26097999Y9787744D02*
X26193237Y9882983D01*
X26193237Y9882983D02*
X26240856Y9978221D01*
X26240856Y9978221D02*
X26288475Y10168697D01*
X26288475Y10168697D02*
X26288475Y10311554D01*
X26288475Y10311554D02*
X26240856Y10502030D01*
X26240856Y10502030D02*
X26193237Y10597268D01*
X26193237Y10597268D02*
X26097999Y10692506D01*
X26097999Y10692506D02*
X25955142Y10740125D01*
X25955142Y10740125D02*
X25859904Y10740125D01*
X25859904Y10740125D02*
X25717047Y10692506D01*
X25717047Y10692506D02*
X25669428Y10644887D01*
X30550381Y8225420D02*
X30598000Y8177800D01*
X30598000Y8177800D02*
X30740857Y8130181D01*
X30740857Y8130181D02*
X30836095Y8130181D01*
X30836095Y8130181D02*
X30978952Y8177800D01*
X30978952Y8177800D02*
X31074190Y8273039D01*
X31074190Y8273039D02*
X31121809Y8368277D01*
X31121809Y8368277D02*
X31169428Y8558753D01*
X31169428Y8558753D02*
X31169428Y8701610D01*
X31169428Y8701610D02*
X31121809Y8892086D01*
X31121809Y8892086D02*
X31074190Y8987324D01*
X31074190Y8987324D02*
X30978952Y9082562D01*
X30978952Y9082562D02*
X30836095Y9130181D01*
X30836095Y9130181D02*
X30740857Y9130181D01*
X30740857Y9130181D02*
X30598000Y9082562D01*
X30598000Y9082562D02*
X30550381Y9034943D01*
X29978952Y8130181D02*
X30074190Y8177800D01*
X30074190Y8177800D02*
X30121809Y8225420D01*
X30121809Y8225420D02*
X30169428Y8320658D01*
X30169428Y8320658D02*
X30169428Y8606372D01*
X30169428Y8606372D02*
X30121809Y8701610D01*
X30121809Y8701610D02*
X30074190Y8749229D01*
X30074190Y8749229D02*
X29978952Y8796848D01*
X29978952Y8796848D02*
X29836095Y8796848D01*
X29836095Y8796848D02*
X29740857Y8749229D01*
X29740857Y8749229D02*
X29693238Y8701610D01*
X29693238Y8701610D02*
X29645619Y8606372D01*
X29645619Y8606372D02*
X29645619Y8320658D01*
X29645619Y8320658D02*
X29693238Y8225420D01*
X29693238Y8225420D02*
X29740857Y8177800D01*
X29740857Y8177800D02*
X29836095Y8130181D01*
X29836095Y8130181D02*
X29978952Y8130181D01*
X29217047Y8796848D02*
X29217047Y8130181D01*
X29217047Y8701610D02*
X29169428Y8749229D01*
X29169428Y8749229D02*
X29074190Y8796848D01*
X29074190Y8796848D02*
X28931333Y8796848D01*
X28931333Y8796848D02*
X28836095Y8749229D01*
X28836095Y8749229D02*
X28788476Y8653991D01*
X28788476Y8653991D02*
X28788476Y8130181D01*
X28312285Y8796848D02*
X28312285Y8130181D01*
X28312285Y8701610D02*
X28264666Y8749229D01*
X28264666Y8749229D02*
X28169428Y8796848D01*
X28169428Y8796848D02*
X28026571Y8796848D01*
X28026571Y8796848D02*
X27931333Y8749229D01*
X27931333Y8749229D02*
X27883714Y8653991D01*
X27883714Y8653991D02*
X27883714Y8130181D01*
X27026571Y8177800D02*
X27121809Y8130181D01*
X27121809Y8130181D02*
X27312285Y8130181D01*
X27312285Y8130181D02*
X27407523Y8177800D01*
X27407523Y8177800D02*
X27455142Y8273039D01*
X27455142Y8273039D02*
X27455142Y8653991D01*
X27455142Y8653991D02*
X27407523Y8749229D01*
X27407523Y8749229D02*
X27312285Y8796848D01*
X27312285Y8796848D02*
X27121809Y8796848D01*
X27121809Y8796848D02*
X27026571Y8749229D01*
X27026571Y8749229D02*
X26978952Y8653991D01*
X26978952Y8653991D02*
X26978952Y8558753D01*
X26978952Y8558753D02*
X27455142Y8463515D01*
X26121809Y8177800D02*
X26217047Y8130181D01*
X26217047Y8130181D02*
X26407523Y8130181D01*
X26407523Y8130181D02*
X26502761Y8177800D01*
X26502761Y8177800D02*
X26550380Y8225420D01*
X26550380Y8225420D02*
X26597999Y8320658D01*
X26597999Y8320658D02*
X26597999Y8606372D01*
X26597999Y8606372D02*
X26550380Y8701610D01*
X26550380Y8701610D02*
X26502761Y8749229D01*
X26502761Y8749229D02*
X26407523Y8796848D01*
X26407523Y8796848D02*
X26217047Y8796848D01*
X26217047Y8796848D02*
X26121809Y8749229D01*
X25836094Y8796848D02*
X25455142Y8796848D01*
X25693237Y9130181D02*
X25693237Y8273039D01*
X25693237Y8273039D02*
X25645618Y8177800D01*
X25645618Y8177800D02*
X25550380Y8130181D01*
X25550380Y8130181D02*
X25455142Y8130181D01*
X24978951Y8130181D02*
X25074189Y8177800D01*
X25074189Y8177800D02*
X25121808Y8225420D01*
X25121808Y8225420D02*
X25169427Y8320658D01*
X25169427Y8320658D02*
X25169427Y8606372D01*
X25169427Y8606372D02*
X25121808Y8701610D01*
X25121808Y8701610D02*
X25074189Y8749229D01*
X25074189Y8749229D02*
X24978951Y8796848D01*
X24978951Y8796848D02*
X24836094Y8796848D01*
X24836094Y8796848D02*
X24740856Y8749229D01*
X24740856Y8749229D02*
X24693237Y8701610D01*
X24693237Y8701610D02*
X24645618Y8606372D01*
X24645618Y8606372D02*
X24645618Y8320658D01*
X24645618Y8320658D02*
X24693237Y8225420D01*
X24693237Y8225420D02*
X24740856Y8177800D01*
X24740856Y8177800D02*
X24836094Y8130181D01*
X24836094Y8130181D02*
X24978951Y8130181D01*
X24217046Y8130181D02*
X24217046Y8796848D01*
X24217046Y8606372D02*
X24169427Y8701610D01*
X24169427Y8701610D02*
X24121808Y8749229D01*
X24121808Y8749229D02*
X24026570Y8796848D01*
X24026570Y8796848D02*
X23931332Y8796848D01*
X58454819Y51542858D02*
X57978628Y51876191D01*
X58454819Y52114286D02*
X57454819Y52114286D01*
X57454819Y52114286D02*
X57454819Y51733334D01*
X57454819Y51733334D02*
X57502438Y51638096D01*
X57502438Y51638096D02*
X57550057Y51590477D01*
X57550057Y51590477D02*
X57645295Y51542858D01*
X57645295Y51542858D02*
X57788152Y51542858D01*
X57788152Y51542858D02*
X57883390Y51590477D01*
X57883390Y51590477D02*
X57931009Y51638096D01*
X57931009Y51638096D02*
X57978628Y51733334D01*
X57978628Y51733334D02*
X57978628Y52114286D01*
X57454819Y51209524D02*
X57454819Y50590477D01*
X57454819Y50590477D02*
X57835771Y50923810D01*
X57835771Y50923810D02*
X57835771Y50780953D01*
X57835771Y50780953D02*
X57883390Y50685715D01*
X57883390Y50685715D02*
X57931009Y50638096D01*
X57931009Y50638096D02*
X58026247Y50590477D01*
X58026247Y50590477D02*
X58264342Y50590477D01*
X58264342Y50590477D02*
X58359580Y50638096D01*
X58359580Y50638096D02*
X58407200Y50685715D01*
X58407200Y50685715D02*
X58454819Y50780953D01*
X58454819Y50780953D02*
X58454819Y51066667D01*
X58454819Y51066667D02*
X58407200Y51161905D01*
X58407200Y51161905D02*
X58359580Y51209524D01*
X57454819Y49971429D02*
X57454819Y49876191D01*
X57454819Y49876191D02*
X57502438Y49780953D01*
X57502438Y49780953D02*
X57550057Y49733334D01*
X57550057Y49733334D02*
X57645295Y49685715D01*
X57645295Y49685715D02*
X57835771Y49638096D01*
X57835771Y49638096D02*
X58073866Y49638096D01*
X58073866Y49638096D02*
X58264342Y49685715D01*
X58264342Y49685715D02*
X58359580Y49733334D01*
X58359580Y49733334D02*
X58407200Y49780953D01*
X58407200Y49780953D02*
X58454819Y49876191D01*
X58454819Y49876191D02*
X58454819Y49971429D01*
X58454819Y49971429D02*
X58407200Y50066667D01*
X58407200Y50066667D02*
X58359580Y50114286D01*
X58359580Y50114286D02*
X58264342Y50161905D01*
X58264342Y50161905D02*
X58073866Y50209524D01*
X58073866Y50209524D02*
X57835771Y50209524D01*
X57835771Y50209524D02*
X57645295Y50161905D01*
X57645295Y50161905D02*
X57550057Y50114286D01*
X57550057Y50114286D02*
X57502438Y50066667D01*
X57502438Y50066667D02*
X57454819Y49971429D01*
X47554819Y69642858D02*
X47078628Y69976191D01*
X47554819Y70214286D02*
X46554819Y70214286D01*
X46554819Y70214286D02*
X46554819Y69833334D01*
X46554819Y69833334D02*
X46602438Y69738096D01*
X46602438Y69738096D02*
X46650057Y69690477D01*
X46650057Y69690477D02*
X46745295Y69642858D01*
X46745295Y69642858D02*
X46888152Y69642858D01*
X46888152Y69642858D02*
X46983390Y69690477D01*
X46983390Y69690477D02*
X47031009Y69738096D01*
X47031009Y69738096D02*
X47078628Y69833334D01*
X47078628Y69833334D02*
X47078628Y70214286D01*
X47554819Y68690477D02*
X47554819Y69261905D01*
X47554819Y68976191D02*
X46554819Y68976191D01*
X46554819Y68976191D02*
X46697676Y69071429D01*
X46697676Y69071429D02*
X46792914Y69166667D01*
X46792914Y69166667D02*
X46840533Y69261905D01*
X47554819Y68214286D02*
X47554819Y68023810D01*
X47554819Y68023810D02*
X47507200Y67928572D01*
X47507200Y67928572D02*
X47459580Y67880953D01*
X47459580Y67880953D02*
X47316723Y67785715D01*
X47316723Y67785715D02*
X47126247Y67738096D01*
X47126247Y67738096D02*
X46745295Y67738096D01*
X46745295Y67738096D02*
X46650057Y67785715D01*
X46650057Y67785715D02*
X46602438Y67833334D01*
X46602438Y67833334D02*
X46554819Y67928572D01*
X46554819Y67928572D02*
X46554819Y68119048D01*
X46554819Y68119048D02*
X46602438Y68214286D01*
X46602438Y68214286D02*
X46650057Y68261905D01*
X46650057Y68261905D02*
X46745295Y68309524D01*
X46745295Y68309524D02*
X46983390Y68309524D01*
X46983390Y68309524D02*
X47078628Y68261905D01*
X47078628Y68261905D02*
X47126247Y68214286D01*
X47126247Y68214286D02*
X47173866Y68119048D01*
X47173866Y68119048D02*
X47173866Y67928572D01*
X47173866Y67928572D02*
X47126247Y67833334D01*
X47126247Y67833334D02*
X47078628Y67785715D01*
X47078628Y67785715D02*
X46983390Y67738096D01*
X35316666Y77340420D02*
X35364285Y77292800D01*
X35364285Y77292800D02*
X35507142Y77245181D01*
X35507142Y77245181D02*
X35602380Y77245181D01*
X35602380Y77245181D02*
X35745237Y77292800D01*
X35745237Y77292800D02*
X35840475Y77388039D01*
X35840475Y77388039D02*
X35888094Y77483277D01*
X35888094Y77483277D02*
X35935713Y77673753D01*
X35935713Y77673753D02*
X35935713Y77816610D01*
X35935713Y77816610D02*
X35888094Y78007086D01*
X35888094Y78007086D02*
X35840475Y78102324D01*
X35840475Y78102324D02*
X35745237Y78197562D01*
X35745237Y78197562D02*
X35602380Y78245181D01*
X35602380Y78245181D02*
X35507142Y78245181D01*
X35507142Y78245181D02*
X35364285Y78197562D01*
X35364285Y78197562D02*
X35316666Y78149943D01*
X34411904Y78245181D02*
X34888094Y78245181D01*
X34888094Y78245181D02*
X34935713Y77768991D01*
X34935713Y77768991D02*
X34888094Y77816610D01*
X34888094Y77816610D02*
X34792856Y77864229D01*
X34792856Y77864229D02*
X34554761Y77864229D01*
X34554761Y77864229D02*
X34459523Y77816610D01*
X34459523Y77816610D02*
X34411904Y77768991D01*
X34411904Y77768991D02*
X34364285Y77673753D01*
X34364285Y77673753D02*
X34364285Y77435658D01*
X34364285Y77435658D02*
X34411904Y77340420D01*
X34411904Y77340420D02*
X34459523Y77292800D01*
X34459523Y77292800D02*
X34554761Y77245181D01*
X34554761Y77245181D02*
X34792856Y77245181D01*
X34792856Y77245181D02*
X34888094Y77292800D01*
X34888094Y77292800D02*
X34935713Y77340420D01*
X10292857Y57395181D02*
X10626190Y57871372D01*
X10864285Y57395181D02*
X10864285Y58395181D01*
X10864285Y58395181D02*
X10483333Y58395181D01*
X10483333Y58395181D02*
X10388095Y58347562D01*
X10388095Y58347562D02*
X10340476Y58299943D01*
X10340476Y58299943D02*
X10292857Y58204705D01*
X10292857Y58204705D02*
X10292857Y58061848D01*
X10292857Y58061848D02*
X10340476Y57966610D01*
X10340476Y57966610D02*
X10388095Y57918991D01*
X10388095Y57918991D02*
X10483333Y57871372D01*
X10483333Y57871372D02*
X10864285Y57871372D01*
X9911904Y58299943D02*
X9864285Y58347562D01*
X9864285Y58347562D02*
X9769047Y58395181D01*
X9769047Y58395181D02*
X9530952Y58395181D01*
X9530952Y58395181D02*
X9435714Y58347562D01*
X9435714Y58347562D02*
X9388095Y58299943D01*
X9388095Y58299943D02*
X9340476Y58204705D01*
X9340476Y58204705D02*
X9340476Y58109467D01*
X9340476Y58109467D02*
X9388095Y57966610D01*
X9388095Y57966610D02*
X9959523Y57395181D01*
X9959523Y57395181D02*
X9340476Y57395181D01*
X8769047Y57966610D02*
X8864285Y58014229D01*
X8864285Y58014229D02*
X8911904Y58061848D01*
X8911904Y58061848D02*
X8959523Y58157086D01*
X8959523Y58157086D02*
X8959523Y58204705D01*
X8959523Y58204705D02*
X8911904Y58299943D01*
X8911904Y58299943D02*
X8864285Y58347562D01*
X8864285Y58347562D02*
X8769047Y58395181D01*
X8769047Y58395181D02*
X8578571Y58395181D01*
X8578571Y58395181D02*
X8483333Y58347562D01*
X8483333Y58347562D02*
X8435714Y58299943D01*
X8435714Y58299943D02*
X8388095Y58204705D01*
X8388095Y58204705D02*
X8388095Y58157086D01*
X8388095Y58157086D02*
X8435714Y58061848D01*
X8435714Y58061848D02*
X8483333Y58014229D01*
X8483333Y58014229D02*
X8578571Y57966610D01*
X8578571Y57966610D02*
X8769047Y57966610D01*
X8769047Y57966610D02*
X8864285Y57918991D01*
X8864285Y57918991D02*
X8911904Y57871372D01*
X8911904Y57871372D02*
X8959523Y57776134D01*
X8959523Y57776134D02*
X8959523Y57585658D01*
X8959523Y57585658D02*
X8911904Y57490420D01*
X8911904Y57490420D02*
X8864285Y57442800D01*
X8864285Y57442800D02*
X8769047Y57395181D01*
X8769047Y57395181D02*
X8578571Y57395181D01*
X8578571Y57395181D02*
X8483333Y57442800D01*
X8483333Y57442800D02*
X8435714Y57490420D01*
X8435714Y57490420D02*
X8388095Y57585658D01*
X8388095Y57585658D02*
X8388095Y57776134D01*
X8388095Y57776134D02*
X8435714Y57871372D01*
X8435714Y57871372D02*
X8483333Y57918991D01*
X8483333Y57918991D02*
X8578571Y57966610D01*
X40832857Y51880181D02*
X41166190Y52356372D01*
X41404285Y51880181D02*
X41404285Y52880181D01*
X41404285Y52880181D02*
X41023333Y52880181D01*
X41023333Y52880181D02*
X40928095Y52832562D01*
X40928095Y52832562D02*
X40880476Y52784943D01*
X40880476Y52784943D02*
X40832857Y52689705D01*
X40832857Y52689705D02*
X40832857Y52546848D01*
X40832857Y52546848D02*
X40880476Y52451610D01*
X40880476Y52451610D02*
X40928095Y52403991D01*
X40928095Y52403991D02*
X41023333Y52356372D01*
X41023333Y52356372D02*
X41404285Y52356372D01*
X40499523Y52880181D02*
X39880476Y52880181D01*
X39880476Y52880181D02*
X40213809Y52499229D01*
X40213809Y52499229D02*
X40070952Y52499229D01*
X40070952Y52499229D02*
X39975714Y52451610D01*
X39975714Y52451610D02*
X39928095Y52403991D01*
X39928095Y52403991D02*
X39880476Y52308753D01*
X39880476Y52308753D02*
X39880476Y52070658D01*
X39880476Y52070658D02*
X39928095Y51975420D01*
X39928095Y51975420D02*
X39975714Y51927800D01*
X39975714Y51927800D02*
X40070952Y51880181D01*
X40070952Y51880181D02*
X40356666Y51880181D01*
X40356666Y51880181D02*
X40451904Y51927800D01*
X40451904Y51927800D02*
X40499523Y51975420D01*
X39023333Y52546848D02*
X39023333Y51880181D01*
X39261428Y52927800D02*
X39499523Y52213515D01*
X39499523Y52213515D02*
X38880476Y52213515D01*
X56666666Y79040181D02*
X56999999Y79516372D01*
X57238094Y79040181D02*
X57238094Y80040181D01*
X57238094Y80040181D02*
X56857142Y80040181D01*
X56857142Y80040181D02*
X56761904Y79992562D01*
X56761904Y79992562D02*
X56714285Y79944943D01*
X56714285Y79944943D02*
X56666666Y79849705D01*
X56666666Y79849705D02*
X56666666Y79706848D01*
X56666666Y79706848D02*
X56714285Y79611610D01*
X56714285Y79611610D02*
X56761904Y79563991D01*
X56761904Y79563991D02*
X56857142Y79516372D01*
X56857142Y79516372D02*
X57238094Y79516372D01*
X55714285Y79040181D02*
X56285713Y79040181D01*
X55999999Y79040181D02*
X55999999Y80040181D01*
X55999999Y80040181D02*
X56095237Y79897324D01*
X56095237Y79897324D02*
X56190475Y79802086D01*
X56190475Y79802086D02*
X56285713Y79754467D01*
X55704819Y51492858D02*
X55228628Y51826191D01*
X55704819Y52064286D02*
X54704819Y52064286D01*
X54704819Y52064286D02*
X54704819Y51683334D01*
X54704819Y51683334D02*
X54752438Y51588096D01*
X54752438Y51588096D02*
X54800057Y51540477D01*
X54800057Y51540477D02*
X54895295Y51492858D01*
X54895295Y51492858D02*
X55038152Y51492858D01*
X55038152Y51492858D02*
X55133390Y51540477D01*
X55133390Y51540477D02*
X55181009Y51588096D01*
X55181009Y51588096D02*
X55228628Y51683334D01*
X55228628Y51683334D02*
X55228628Y52064286D01*
X54704819Y51159524D02*
X54704819Y50540477D01*
X54704819Y50540477D02*
X55085771Y50873810D01*
X55085771Y50873810D02*
X55085771Y50730953D01*
X55085771Y50730953D02*
X55133390Y50635715D01*
X55133390Y50635715D02*
X55181009Y50588096D01*
X55181009Y50588096D02*
X55276247Y50540477D01*
X55276247Y50540477D02*
X55514342Y50540477D01*
X55514342Y50540477D02*
X55609580Y50588096D01*
X55609580Y50588096D02*
X55657200Y50635715D01*
X55657200Y50635715D02*
X55704819Y50730953D01*
X55704819Y50730953D02*
X55704819Y51016667D01*
X55704819Y51016667D02*
X55657200Y51111905D01*
X55657200Y51111905D02*
X55609580Y51159524D01*
X54800057Y50159524D02*
X54752438Y50111905D01*
X54752438Y50111905D02*
X54704819Y50016667D01*
X54704819Y50016667D02*
X54704819Y49778572D01*
X54704819Y49778572D02*
X54752438Y49683334D01*
X54752438Y49683334D02*
X54800057Y49635715D01*
X54800057Y49635715D02*
X54895295Y49588096D01*
X54895295Y49588096D02*
X54990533Y49588096D01*
X54990533Y49588096D02*
X55133390Y49635715D01*
X55133390Y49635715D02*
X55704819Y50207143D01*
X55704819Y50207143D02*
X55704819Y49588096D01*
X27921333Y2245181D02*
X27921333Y1530896D01*
X27921333Y1530896D02*
X27968952Y1388039D01*
X27968952Y1388039D02*
X28064190Y1292800D01*
X28064190Y1292800D02*
X28207047Y1245181D01*
X28207047Y1245181D02*
X28302285Y1245181D01*
X26921333Y1245181D02*
X27492761Y1245181D01*
X27207047Y1245181D02*
X27207047Y2245181D01*
X27207047Y2245181D02*
X27302285Y2102324D01*
X27302285Y2102324D02*
X27397523Y2007086D01*
X27397523Y2007086D02*
X27492761Y1959467D01*
X55704819Y96266667D02*
X55228628Y96600000D01*
X55704819Y96838095D02*
X54704819Y96838095D01*
X54704819Y96838095D02*
X54704819Y96457143D01*
X54704819Y96457143D02*
X54752438Y96361905D01*
X54752438Y96361905D02*
X54800057Y96314286D01*
X54800057Y96314286D02*
X54895295Y96266667D01*
X54895295Y96266667D02*
X55038152Y96266667D01*
X55038152Y96266667D02*
X55133390Y96314286D01*
X55133390Y96314286D02*
X55181009Y96361905D01*
X55181009Y96361905D02*
X55228628Y96457143D01*
X55228628Y96457143D02*
X55228628Y96838095D01*
X55038152Y95409524D02*
X55704819Y95409524D01*
X54657200Y95647619D02*
X55371485Y95885714D01*
X55371485Y95885714D02*
X55371485Y95266667D01*
X55704819Y73992858D02*
X55228628Y74326191D01*
X55704819Y74564286D02*
X54704819Y74564286D01*
X54704819Y74564286D02*
X54704819Y74183334D01*
X54704819Y74183334D02*
X54752438Y74088096D01*
X54752438Y74088096D02*
X54800057Y74040477D01*
X54800057Y74040477D02*
X54895295Y73992858D01*
X54895295Y73992858D02*
X55038152Y73992858D01*
X55038152Y73992858D02*
X55133390Y74040477D01*
X55133390Y74040477D02*
X55181009Y74088096D01*
X55181009Y74088096D02*
X55228628Y74183334D01*
X55228628Y74183334D02*
X55228628Y74564286D01*
X55704819Y73040477D02*
X55704819Y73611905D01*
X55704819Y73326191D02*
X54704819Y73326191D01*
X54704819Y73326191D02*
X54847676Y73421429D01*
X54847676Y73421429D02*
X54942914Y73516667D01*
X54942914Y73516667D02*
X54990533Y73611905D01*
X55133390Y72469048D02*
X55085771Y72564286D01*
X55085771Y72564286D02*
X55038152Y72611905D01*
X55038152Y72611905D02*
X54942914Y72659524D01*
X54942914Y72659524D02*
X54895295Y72659524D01*
X54895295Y72659524D02*
X54800057Y72611905D01*
X54800057Y72611905D02*
X54752438Y72564286D01*
X54752438Y72564286D02*
X54704819Y72469048D01*
X54704819Y72469048D02*
X54704819Y72278572D01*
X54704819Y72278572D02*
X54752438Y72183334D01*
X54752438Y72183334D02*
X54800057Y72135715D01*
X54800057Y72135715D02*
X54895295Y72088096D01*
X54895295Y72088096D02*
X54942914Y72088096D01*
X54942914Y72088096D02*
X55038152Y72135715D01*
X55038152Y72135715D02*
X55085771Y72183334D01*
X55085771Y72183334D02*
X55133390Y72278572D01*
X55133390Y72278572D02*
X55133390Y72469048D01*
X55133390Y72469048D02*
X55181009Y72564286D01*
X55181009Y72564286D02*
X55228628Y72611905D01*
X55228628Y72611905D02*
X55323866Y72659524D01*
X55323866Y72659524D02*
X55514342Y72659524D01*
X55514342Y72659524D02*
X55609580Y72611905D01*
X55609580Y72611905D02*
X55657200Y72564286D01*
X55657200Y72564286D02*
X55704819Y72469048D01*
X55704819Y72469048D02*
X55704819Y72278572D01*
X55704819Y72278572D02*
X55657200Y72183334D01*
X55657200Y72183334D02*
X55609580Y72135715D01*
X55609580Y72135715D02*
X55514342Y72088096D01*
X55514342Y72088096D02*
X55323866Y72088096D01*
X55323866Y72088096D02*
X55228628Y72135715D01*
X55228628Y72135715D02*
X55181009Y72183334D01*
X55181009Y72183334D02*
X55133390Y72278572D01*
X30692857Y52395181D02*
X31026190Y52871372D01*
X31264285Y52395181D02*
X31264285Y53395181D01*
X31264285Y53395181D02*
X30883333Y53395181D01*
X30883333Y53395181D02*
X30788095Y53347562D01*
X30788095Y53347562D02*
X30740476Y53299943D01*
X30740476Y53299943D02*
X30692857Y53204705D01*
X30692857Y53204705D02*
X30692857Y53061848D01*
X30692857Y53061848D02*
X30740476Y52966610D01*
X30740476Y52966610D02*
X30788095Y52918991D01*
X30788095Y52918991D02*
X30883333Y52871372D01*
X30883333Y52871372D02*
X31264285Y52871372D01*
X30311904Y53299943D02*
X30264285Y53347562D01*
X30264285Y53347562D02*
X30169047Y53395181D01*
X30169047Y53395181D02*
X29930952Y53395181D01*
X29930952Y53395181D02*
X29835714Y53347562D01*
X29835714Y53347562D02*
X29788095Y53299943D01*
X29788095Y53299943D02*
X29740476Y53204705D01*
X29740476Y53204705D02*
X29740476Y53109467D01*
X29740476Y53109467D02*
X29788095Y52966610D01*
X29788095Y52966610D02*
X30359523Y52395181D01*
X30359523Y52395181D02*
X29740476Y52395181D01*
X29359523Y53299943D02*
X29311904Y53347562D01*
X29311904Y53347562D02*
X29216666Y53395181D01*
X29216666Y53395181D02*
X28978571Y53395181D01*
X28978571Y53395181D02*
X28883333Y53347562D01*
X28883333Y53347562D02*
X28835714Y53299943D01*
X28835714Y53299943D02*
X28788095Y53204705D01*
X28788095Y53204705D02*
X28788095Y53109467D01*
X28788095Y53109467D02*
X28835714Y52966610D01*
X28835714Y52966610D02*
X29407142Y52395181D01*
X29407142Y52395181D02*
X28788095Y52395181D01*
X10192857Y59940420D02*
X10240476Y59892800D01*
X10240476Y59892800D02*
X10383333Y59845181D01*
X10383333Y59845181D02*
X10478571Y59845181D01*
X10478571Y59845181D02*
X10621428Y59892800D01*
X10621428Y59892800D02*
X10716666Y59988039D01*
X10716666Y59988039D02*
X10764285Y60083277D01*
X10764285Y60083277D02*
X10811904Y60273753D01*
X10811904Y60273753D02*
X10811904Y60416610D01*
X10811904Y60416610D02*
X10764285Y60607086D01*
X10764285Y60607086D02*
X10716666Y60702324D01*
X10716666Y60702324D02*
X10621428Y60797562D01*
X10621428Y60797562D02*
X10478571Y60845181D01*
X10478571Y60845181D02*
X10383333Y60845181D01*
X10383333Y60845181D02*
X10240476Y60797562D01*
X10240476Y60797562D02*
X10192857Y60749943D01*
X9240476Y59845181D02*
X9811904Y59845181D01*
X9526190Y59845181D02*
X9526190Y60845181D01*
X9526190Y60845181D02*
X9621428Y60702324D01*
X9621428Y60702324D02*
X9716666Y60607086D01*
X9716666Y60607086D02*
X9811904Y60559467D01*
X8859523Y60749943D02*
X8811904Y60797562D01*
X8811904Y60797562D02*
X8716666Y60845181D01*
X8716666Y60845181D02*
X8478571Y60845181D01*
X8478571Y60845181D02*
X8383333Y60797562D01*
X8383333Y60797562D02*
X8335714Y60749943D01*
X8335714Y60749943D02*
X8288095Y60654705D01*
X8288095Y60654705D02*
X8288095Y60559467D01*
X8288095Y60559467D02*
X8335714Y60416610D01*
X8335714Y60416610D02*
X8907142Y59845181D01*
X8907142Y59845181D02*
X8288095Y59845181D01*
X6116666Y21835420D02*
X6164285Y21787800D01*
X6164285Y21787800D02*
X6307142Y21740181D01*
X6307142Y21740181D02*
X6402380Y21740181D01*
X6402380Y21740181D02*
X6545237Y21787800D01*
X6545237Y21787800D02*
X6640475Y21883039D01*
X6640475Y21883039D02*
X6688094Y21978277D01*
X6688094Y21978277D02*
X6735713Y22168753D01*
X6735713Y22168753D02*
X6735713Y22311610D01*
X6735713Y22311610D02*
X6688094Y22502086D01*
X6688094Y22502086D02*
X6640475Y22597324D01*
X6640475Y22597324D02*
X6545237Y22692562D01*
X6545237Y22692562D02*
X6402380Y22740181D01*
X6402380Y22740181D02*
X6307142Y22740181D01*
X6307142Y22740181D02*
X6164285Y22692562D01*
X6164285Y22692562D02*
X6116666Y22644943D01*
X5164285Y21740181D02*
X5735713Y21740181D01*
X5449999Y21740181D02*
X5449999Y22740181D01*
X5449999Y22740181D02*
X5545237Y22597324D01*
X5545237Y22597324D02*
X5640475Y22502086D01*
X5640475Y22502086D02*
X5735713Y22454467D01*
X58404819Y73942858D02*
X57928628Y74276191D01*
X58404819Y74514286D02*
X57404819Y74514286D01*
X57404819Y74514286D02*
X57404819Y74133334D01*
X57404819Y74133334D02*
X57452438Y74038096D01*
X57452438Y74038096D02*
X57500057Y73990477D01*
X57500057Y73990477D02*
X57595295Y73942858D01*
X57595295Y73942858D02*
X57738152Y73942858D01*
X57738152Y73942858D02*
X57833390Y73990477D01*
X57833390Y73990477D02*
X57881009Y74038096D01*
X57881009Y74038096D02*
X57928628Y74133334D01*
X57928628Y74133334D02*
X57928628Y74514286D01*
X58404819Y72990477D02*
X58404819Y73561905D01*
X58404819Y73276191D02*
X57404819Y73276191D01*
X57404819Y73276191D02*
X57547676Y73371429D01*
X57547676Y73371429D02*
X57642914Y73466667D01*
X57642914Y73466667D02*
X57690533Y73561905D01*
X57404819Y72133334D02*
X57404819Y72323810D01*
X57404819Y72323810D02*
X57452438Y72419048D01*
X57452438Y72419048D02*
X57500057Y72466667D01*
X57500057Y72466667D02*
X57642914Y72561905D01*
X57642914Y72561905D02*
X57833390Y72609524D01*
X57833390Y72609524D02*
X58214342Y72609524D01*
X58214342Y72609524D02*
X58309580Y72561905D01*
X58309580Y72561905D02*
X58357200Y72514286D01*
X58357200Y72514286D02*
X58404819Y72419048D01*
X58404819Y72419048D02*
X58404819Y72228572D01*
X58404819Y72228572D02*
X58357200Y72133334D01*
X58357200Y72133334D02*
X58309580Y72085715D01*
X58309580Y72085715D02*
X58214342Y72038096D01*
X58214342Y72038096D02*
X57976247Y72038096D01*
X57976247Y72038096D02*
X57881009Y72085715D01*
X57881009Y72085715D02*
X57833390Y72133334D01*
X57833390Y72133334D02*
X57785771Y72228572D01*
X57785771Y72228572D02*
X57785771Y72419048D01*
X57785771Y72419048D02*
X57833390Y72514286D01*
X57833390Y72514286D02*
X57881009Y72561905D01*
X57881009Y72561905D02*
X57976247Y72609524D01*
X32354819Y74042858D02*
X31878628Y74376191D01*
X32354819Y74614286D02*
X31354819Y74614286D01*
X31354819Y74614286D02*
X31354819Y74233334D01*
X31354819Y74233334D02*
X31402438Y74138096D01*
X31402438Y74138096D02*
X31450057Y74090477D01*
X31450057Y74090477D02*
X31545295Y74042858D01*
X31545295Y74042858D02*
X31688152Y74042858D01*
X31688152Y74042858D02*
X31783390Y74090477D01*
X31783390Y74090477D02*
X31831009Y74138096D01*
X31831009Y74138096D02*
X31878628Y74233334D01*
X31878628Y74233334D02*
X31878628Y74614286D01*
X31450057Y73661905D02*
X31402438Y73614286D01*
X31402438Y73614286D02*
X31354819Y73519048D01*
X31354819Y73519048D02*
X31354819Y73280953D01*
X31354819Y73280953D02*
X31402438Y73185715D01*
X31402438Y73185715D02*
X31450057Y73138096D01*
X31450057Y73138096D02*
X31545295Y73090477D01*
X31545295Y73090477D02*
X31640533Y73090477D01*
X31640533Y73090477D02*
X31783390Y73138096D01*
X31783390Y73138096D02*
X32354819Y73709524D01*
X32354819Y73709524D02*
X32354819Y73090477D01*
X31354819Y72757143D02*
X31354819Y72138096D01*
X31354819Y72138096D02*
X31735771Y72471429D01*
X31735771Y72471429D02*
X31735771Y72328572D01*
X31735771Y72328572D02*
X31783390Y72233334D01*
X31783390Y72233334D02*
X31831009Y72185715D01*
X31831009Y72185715D02*
X31926247Y72138096D01*
X31926247Y72138096D02*
X32164342Y72138096D01*
X32164342Y72138096D02*
X32259580Y72185715D01*
X32259580Y72185715D02*
X32307200Y72233334D01*
X32307200Y72233334D02*
X32354819Y72328572D01*
X32354819Y72328572D02*
X32354819Y72614286D01*
X32354819Y72614286D02*
X32307200Y72709524D01*
X32307200Y72709524D02*
X32259580Y72757143D01*
X53109580Y16580358D02*
X53157200Y16627977D01*
X53157200Y16627977D02*
X53204819Y16770834D01*
X53204819Y16770834D02*
X53204819Y16866072D01*
X53204819Y16866072D02*
X53157200Y17008929D01*
X53157200Y17008929D02*
X53061961Y17104167D01*
X53061961Y17104167D02*
X52966723Y17151786D01*
X52966723Y17151786D02*
X52776247Y17199405D01*
X52776247Y17199405D02*
X52633390Y17199405D01*
X52633390Y17199405D02*
X52442914Y17151786D01*
X52442914Y17151786D02*
X52347676Y17104167D01*
X52347676Y17104167D02*
X52252438Y17008929D01*
X52252438Y17008929D02*
X52204819Y16866072D01*
X52204819Y16866072D02*
X52204819Y16770834D01*
X52204819Y16770834D02*
X52252438Y16627977D01*
X52252438Y16627977D02*
X52300057Y16580358D01*
X53204819Y15627977D02*
X53204819Y16199405D01*
X53204819Y15913691D02*
X52204819Y15913691D01*
X52204819Y15913691D02*
X52347676Y16008929D01*
X52347676Y16008929D02*
X52442914Y16104167D01*
X52442914Y16104167D02*
X52490533Y16199405D01*
X52204819Y14723215D02*
X52204819Y15199405D01*
X52204819Y15199405D02*
X52681009Y15247024D01*
X52681009Y15247024D02*
X52633390Y15199405D01*
X52633390Y15199405D02*
X52585771Y15104167D01*
X52585771Y15104167D02*
X52585771Y14866072D01*
X52585771Y14866072D02*
X52633390Y14770834D01*
X52633390Y14770834D02*
X52681009Y14723215D01*
X52681009Y14723215D02*
X52776247Y14675596D01*
X52776247Y14675596D02*
X53014342Y14675596D01*
X53014342Y14675596D02*
X53109580Y14723215D01*
X53109580Y14723215D02*
X53157200Y14770834D01*
X53157200Y14770834D02*
X53204819Y14866072D01*
X53204819Y14866072D02*
X53204819Y15104167D01*
X53204819Y15104167D02*
X53157200Y15199405D01*
X53157200Y15199405D02*
X53109580Y15247024D01*
X14742857Y74465181D02*
X15076190Y74941372D01*
X15314285Y74465181D02*
X15314285Y75465181D01*
X15314285Y75465181D02*
X14933333Y75465181D01*
X14933333Y75465181D02*
X14838095Y75417562D01*
X14838095Y75417562D02*
X14790476Y75369943D01*
X14790476Y75369943D02*
X14742857Y75274705D01*
X14742857Y75274705D02*
X14742857Y75131848D01*
X14742857Y75131848D02*
X14790476Y75036610D01*
X14790476Y75036610D02*
X14838095Y74988991D01*
X14838095Y74988991D02*
X14933333Y74941372D01*
X14933333Y74941372D02*
X15314285Y74941372D01*
X14361904Y75369943D02*
X14314285Y75417562D01*
X14314285Y75417562D02*
X14219047Y75465181D01*
X14219047Y75465181D02*
X13980952Y75465181D01*
X13980952Y75465181D02*
X13885714Y75417562D01*
X13885714Y75417562D02*
X13838095Y75369943D01*
X13838095Y75369943D02*
X13790476Y75274705D01*
X13790476Y75274705D02*
X13790476Y75179467D01*
X13790476Y75179467D02*
X13838095Y75036610D01*
X13838095Y75036610D02*
X14409523Y74465181D01*
X14409523Y74465181D02*
X13790476Y74465181D01*
X13457142Y75465181D02*
X12790476Y75465181D01*
X12790476Y75465181D02*
X13219047Y74465181D01*
X60959580Y38705358D02*
X61007200Y38752977D01*
X61007200Y38752977D02*
X61054819Y38895834D01*
X61054819Y38895834D02*
X61054819Y38991072D01*
X61054819Y38991072D02*
X61007200Y39133929D01*
X61007200Y39133929D02*
X60911961Y39229167D01*
X60911961Y39229167D02*
X60816723Y39276786D01*
X60816723Y39276786D02*
X60626247Y39324405D01*
X60626247Y39324405D02*
X60483390Y39324405D01*
X60483390Y39324405D02*
X60292914Y39276786D01*
X60292914Y39276786D02*
X60197676Y39229167D01*
X60197676Y39229167D02*
X60102438Y39133929D01*
X60102438Y39133929D02*
X60054819Y38991072D01*
X60054819Y38991072D02*
X60054819Y38895834D01*
X60054819Y38895834D02*
X60102438Y38752977D01*
X60102438Y38752977D02*
X60150057Y38705358D01*
X61054819Y37752977D02*
X61054819Y38324405D01*
X61054819Y38038691D02*
X60054819Y38038691D01*
X60054819Y38038691D02*
X60197676Y38133929D01*
X60197676Y38133929D02*
X60292914Y38229167D01*
X60292914Y38229167D02*
X60340533Y38324405D01*
X60054819Y37419643D02*
X60054819Y36800596D01*
X60054819Y36800596D02*
X60435771Y37133929D01*
X60435771Y37133929D02*
X60435771Y36991072D01*
X60435771Y36991072D02*
X60483390Y36895834D01*
X60483390Y36895834D02*
X60531009Y36848215D01*
X60531009Y36848215D02*
X60626247Y36800596D01*
X60626247Y36800596D02*
X60864342Y36800596D01*
X60864342Y36800596D02*
X60959580Y36848215D01*
X60959580Y36848215D02*
X61007200Y36895834D01*
X61007200Y36895834D02*
X61054819Y36991072D01*
X61054819Y36991072D02*
X61054819Y37276786D01*
X61054819Y37276786D02*
X61007200Y37372024D01*
X61007200Y37372024D02*
X60959580Y37419643D01*
X21404819Y85892858D02*
X20928628Y86226191D01*
X21404819Y86464286D02*
X20404819Y86464286D01*
X20404819Y86464286D02*
X20404819Y86083334D01*
X20404819Y86083334D02*
X20452438Y85988096D01*
X20452438Y85988096D02*
X20500057Y85940477D01*
X20500057Y85940477D02*
X20595295Y85892858D01*
X20595295Y85892858D02*
X20738152Y85892858D01*
X20738152Y85892858D02*
X20833390Y85940477D01*
X20833390Y85940477D02*
X20881009Y85988096D01*
X20881009Y85988096D02*
X20928628Y86083334D01*
X20928628Y86083334D02*
X20928628Y86464286D01*
X21404819Y84940477D02*
X21404819Y85511905D01*
X21404819Y85226191D02*
X20404819Y85226191D01*
X20404819Y85226191D02*
X20547676Y85321429D01*
X20547676Y85321429D02*
X20642914Y85416667D01*
X20642914Y85416667D02*
X20690533Y85511905D01*
X20404819Y84321429D02*
X20404819Y84226191D01*
X20404819Y84226191D02*
X20452438Y84130953D01*
X20452438Y84130953D02*
X20500057Y84083334D01*
X20500057Y84083334D02*
X20595295Y84035715D01*
X20595295Y84035715D02*
X20785771Y83988096D01*
X20785771Y83988096D02*
X21023866Y83988096D01*
X21023866Y83988096D02*
X21214342Y84035715D01*
X21214342Y84035715D02*
X21309580Y84083334D01*
X21309580Y84083334D02*
X21357200Y84130953D01*
X21357200Y84130953D02*
X21404819Y84226191D01*
X21404819Y84226191D02*
X21404819Y84321429D01*
X21404819Y84321429D02*
X21357200Y84416667D01*
X21357200Y84416667D02*
X21309580Y84464286D01*
X21309580Y84464286D02*
X21214342Y84511905D01*
X21214342Y84511905D02*
X21023866Y84559524D01*
X21023866Y84559524D02*
X20785771Y84559524D01*
X20785771Y84559524D02*
X20595295Y84511905D01*
X20595295Y84511905D02*
X20500057Y84464286D01*
X20500057Y84464286D02*
X20452438Y84416667D01*
X20452438Y84416667D02*
X20404819Y84321429D01*
X47554819Y46692858D02*
X47078628Y47026191D01*
X47554819Y47264286D02*
X46554819Y47264286D01*
X46554819Y47264286D02*
X46554819Y46883334D01*
X46554819Y46883334D02*
X46602438Y46788096D01*
X46602438Y46788096D02*
X46650057Y46740477D01*
X46650057Y46740477D02*
X46745295Y46692858D01*
X46745295Y46692858D02*
X46888152Y46692858D01*
X46888152Y46692858D02*
X46983390Y46740477D01*
X46983390Y46740477D02*
X47031009Y46788096D01*
X47031009Y46788096D02*
X47078628Y46883334D01*
X47078628Y46883334D02*
X47078628Y47264286D01*
X46554819Y46359524D02*
X46554819Y45740477D01*
X46554819Y45740477D02*
X46935771Y46073810D01*
X46935771Y46073810D02*
X46935771Y45930953D01*
X46935771Y45930953D02*
X46983390Y45835715D01*
X46983390Y45835715D02*
X47031009Y45788096D01*
X47031009Y45788096D02*
X47126247Y45740477D01*
X47126247Y45740477D02*
X47364342Y45740477D01*
X47364342Y45740477D02*
X47459580Y45788096D01*
X47459580Y45788096D02*
X47507200Y45835715D01*
X47507200Y45835715D02*
X47554819Y45930953D01*
X47554819Y45930953D02*
X47554819Y46216667D01*
X47554819Y46216667D02*
X47507200Y46311905D01*
X47507200Y46311905D02*
X47459580Y46359524D01*
X46554819Y45407143D02*
X46554819Y44788096D01*
X46554819Y44788096D02*
X46935771Y45121429D01*
X46935771Y45121429D02*
X46935771Y44978572D01*
X46935771Y44978572D02*
X46983390Y44883334D01*
X46983390Y44883334D02*
X47031009Y44835715D01*
X47031009Y44835715D02*
X47126247Y44788096D01*
X47126247Y44788096D02*
X47364342Y44788096D01*
X47364342Y44788096D02*
X47459580Y44835715D01*
X47459580Y44835715D02*
X47507200Y44883334D01*
X47507200Y44883334D02*
X47554819Y44978572D01*
X47554819Y44978572D02*
X47554819Y45264286D01*
X47554819Y45264286D02*
X47507200Y45359524D01*
X47507200Y45359524D02*
X47459580Y45407143D01*
X36366666Y80295181D02*
X36699999Y80771372D01*
X36938094Y80295181D02*
X36938094Y81295181D01*
X36938094Y81295181D02*
X36557142Y81295181D01*
X36557142Y81295181D02*
X36461904Y81247562D01*
X36461904Y81247562D02*
X36414285Y81199943D01*
X36414285Y81199943D02*
X36366666Y81104705D01*
X36366666Y81104705D02*
X36366666Y80961848D01*
X36366666Y80961848D02*
X36414285Y80866610D01*
X36414285Y80866610D02*
X36461904Y80818991D01*
X36461904Y80818991D02*
X36557142Y80771372D01*
X36557142Y80771372D02*
X36938094Y80771372D01*
X36033332Y81295181D02*
X35366666Y81295181D01*
X35366666Y81295181D02*
X35795237Y80295181D01*
X21354819Y63492858D02*
X20878628Y63826191D01*
X21354819Y64064286D02*
X20354819Y64064286D01*
X20354819Y64064286D02*
X20354819Y63683334D01*
X20354819Y63683334D02*
X20402438Y63588096D01*
X20402438Y63588096D02*
X20450057Y63540477D01*
X20450057Y63540477D02*
X20545295Y63492858D01*
X20545295Y63492858D02*
X20688152Y63492858D01*
X20688152Y63492858D02*
X20783390Y63540477D01*
X20783390Y63540477D02*
X20831009Y63588096D01*
X20831009Y63588096D02*
X20878628Y63683334D01*
X20878628Y63683334D02*
X20878628Y64064286D01*
X20450057Y63111905D02*
X20402438Y63064286D01*
X20402438Y63064286D02*
X20354819Y62969048D01*
X20354819Y62969048D02*
X20354819Y62730953D01*
X20354819Y62730953D02*
X20402438Y62635715D01*
X20402438Y62635715D02*
X20450057Y62588096D01*
X20450057Y62588096D02*
X20545295Y62540477D01*
X20545295Y62540477D02*
X20640533Y62540477D01*
X20640533Y62540477D02*
X20783390Y62588096D01*
X20783390Y62588096D02*
X21354819Y63159524D01*
X21354819Y63159524D02*
X21354819Y62540477D01*
X20688152Y61683334D02*
X21354819Y61683334D01*
X20307200Y61921429D02*
X21021485Y62159524D01*
X21021485Y62159524D02*
X21021485Y61540477D01*
X18692857Y95595181D02*
X19026190Y96071372D01*
X19264285Y95595181D02*
X19264285Y96595181D01*
X19264285Y96595181D02*
X18883333Y96595181D01*
X18883333Y96595181D02*
X18788095Y96547562D01*
X18788095Y96547562D02*
X18740476Y96499943D01*
X18740476Y96499943D02*
X18692857Y96404705D01*
X18692857Y96404705D02*
X18692857Y96261848D01*
X18692857Y96261848D02*
X18740476Y96166610D01*
X18740476Y96166610D02*
X18788095Y96118991D01*
X18788095Y96118991D02*
X18883333Y96071372D01*
X18883333Y96071372D02*
X19264285Y96071372D01*
X17740476Y95595181D02*
X18311904Y95595181D01*
X18026190Y95595181D02*
X18026190Y96595181D01*
X18026190Y96595181D02*
X18121428Y96452324D01*
X18121428Y96452324D02*
X18216666Y96357086D01*
X18216666Y96357086D02*
X18311904Y96309467D01*
X17407142Y96595181D02*
X16788095Y96595181D01*
X16788095Y96595181D02*
X17121428Y96214229D01*
X17121428Y96214229D02*
X16978571Y96214229D01*
X16978571Y96214229D02*
X16883333Y96166610D01*
X16883333Y96166610D02*
X16835714Y96118991D01*
X16835714Y96118991D02*
X16788095Y96023753D01*
X16788095Y96023753D02*
X16788095Y95785658D01*
X16788095Y95785658D02*
X16835714Y95690420D01*
X16835714Y95690420D02*
X16883333Y95642800D01*
X16883333Y95642800D02*
X16978571Y95595181D01*
X16978571Y95595181D02*
X17264285Y95595181D01*
X17264285Y95595181D02*
X17359523Y95642800D01*
X17359523Y95642800D02*
X17407142Y95690420D01*
X58554819Y96166667D02*
X58078628Y96500000D01*
X58554819Y96738095D02*
X57554819Y96738095D01*
X57554819Y96738095D02*
X57554819Y96357143D01*
X57554819Y96357143D02*
X57602438Y96261905D01*
X57602438Y96261905D02*
X57650057Y96214286D01*
X57650057Y96214286D02*
X57745295Y96166667D01*
X57745295Y96166667D02*
X57888152Y96166667D01*
X57888152Y96166667D02*
X57983390Y96214286D01*
X57983390Y96214286D02*
X58031009Y96261905D01*
X58031009Y96261905D02*
X58078628Y96357143D01*
X58078628Y96357143D02*
X58078628Y96738095D01*
X57650057Y95785714D02*
X57602438Y95738095D01*
X57602438Y95738095D02*
X57554819Y95642857D01*
X57554819Y95642857D02*
X57554819Y95404762D01*
X57554819Y95404762D02*
X57602438Y95309524D01*
X57602438Y95309524D02*
X57650057Y95261905D01*
X57650057Y95261905D02*
X57745295Y95214286D01*
X57745295Y95214286D02*
X57840533Y95214286D01*
X57840533Y95214286D02*
X57983390Y95261905D01*
X57983390Y95261905D02*
X58554819Y95833333D01*
X58554819Y95833333D02*
X58554819Y95214286D01*
X40342857Y32895181D02*
X40676190Y33371372D01*
X40914285Y32895181D02*
X40914285Y33895181D01*
X40914285Y33895181D02*
X40533333Y33895181D01*
X40533333Y33895181D02*
X40438095Y33847562D01*
X40438095Y33847562D02*
X40390476Y33799943D01*
X40390476Y33799943D02*
X40342857Y33704705D01*
X40342857Y33704705D02*
X40342857Y33561848D01*
X40342857Y33561848D02*
X40390476Y33466610D01*
X40390476Y33466610D02*
X40438095Y33418991D01*
X40438095Y33418991D02*
X40533333Y33371372D01*
X40533333Y33371372D02*
X40914285Y33371372D01*
X40009523Y33895181D02*
X39390476Y33895181D01*
X39390476Y33895181D02*
X39723809Y33514229D01*
X39723809Y33514229D02*
X39580952Y33514229D01*
X39580952Y33514229D02*
X39485714Y33466610D01*
X39485714Y33466610D02*
X39438095Y33418991D01*
X39438095Y33418991D02*
X39390476Y33323753D01*
X39390476Y33323753D02*
X39390476Y33085658D01*
X39390476Y33085658D02*
X39438095Y32990420D01*
X39438095Y32990420D02*
X39485714Y32942800D01*
X39485714Y32942800D02*
X39580952Y32895181D01*
X39580952Y32895181D02*
X39866666Y32895181D01*
X39866666Y32895181D02*
X39961904Y32942800D01*
X39961904Y32942800D02*
X40009523Y32990420D01*
X38485714Y33895181D02*
X38961904Y33895181D01*
X38961904Y33895181D02*
X39009523Y33418991D01*
X39009523Y33418991D02*
X38961904Y33466610D01*
X38961904Y33466610D02*
X38866666Y33514229D01*
X38866666Y33514229D02*
X38628571Y33514229D01*
X38628571Y33514229D02*
X38533333Y33466610D01*
X38533333Y33466610D02*
X38485714Y33418991D01*
X38485714Y33418991D02*
X38438095Y33323753D01*
X38438095Y33323753D02*
X38438095Y33085658D01*
X38438095Y33085658D02*
X38485714Y32990420D01*
X38485714Y32990420D02*
X38533333Y32942800D01*
X38533333Y32942800D02*
X38628571Y32895181D01*
X38628571Y32895181D02*
X38866666Y32895181D01*
X38866666Y32895181D02*
X38961904Y32942800D01*
X38961904Y32942800D02*
X39009523Y32990420D01*
X33266666Y86540420D02*
X33314285Y86492800D01*
X33314285Y86492800D02*
X33457142Y86445181D01*
X33457142Y86445181D02*
X33552380Y86445181D01*
X33552380Y86445181D02*
X33695237Y86492800D01*
X33695237Y86492800D02*
X33790475Y86588039D01*
X33790475Y86588039D02*
X33838094Y86683277D01*
X33838094Y86683277D02*
X33885713Y86873753D01*
X33885713Y86873753D02*
X33885713Y87016610D01*
X33885713Y87016610D02*
X33838094Y87207086D01*
X33838094Y87207086D02*
X33790475Y87302324D01*
X33790475Y87302324D02*
X33695237Y87397562D01*
X33695237Y87397562D02*
X33552380Y87445181D01*
X33552380Y87445181D02*
X33457142Y87445181D01*
X33457142Y87445181D02*
X33314285Y87397562D01*
X33314285Y87397562D02*
X33266666Y87349943D01*
X32933332Y87445181D02*
X32266666Y87445181D01*
X32266666Y87445181D02*
X32695237Y86445181D01*
X6911904Y15190181D02*
X6911904Y14380658D01*
X6911904Y14380658D02*
X6864285Y14285420D01*
X6864285Y14285420D02*
X6816666Y14237800D01*
X6816666Y14237800D02*
X6721428Y14190181D01*
X6721428Y14190181D02*
X6530952Y14190181D01*
X6530952Y14190181D02*
X6435714Y14237800D01*
X6435714Y14237800D02*
X6388095Y14285420D01*
X6388095Y14285420D02*
X6340476Y14380658D01*
X6340476Y14380658D02*
X6340476Y15190181D01*
X5340476Y14190181D02*
X5911904Y14190181D01*
X5626190Y14190181D02*
X5626190Y15190181D01*
X5626190Y15190181D02*
X5721428Y15047324D01*
X5721428Y15047324D02*
X5816666Y14952086D01*
X5816666Y14952086D02*
X5911904Y14904467D01*
X55304819Y29292858D02*
X54828628Y29626191D01*
X55304819Y29864286D02*
X54304819Y29864286D01*
X54304819Y29864286D02*
X54304819Y29483334D01*
X54304819Y29483334D02*
X54352438Y29388096D01*
X54352438Y29388096D02*
X54400057Y29340477D01*
X54400057Y29340477D02*
X54495295Y29292858D01*
X54495295Y29292858D02*
X54638152Y29292858D01*
X54638152Y29292858D02*
X54733390Y29340477D01*
X54733390Y29340477D02*
X54781009Y29388096D01*
X54781009Y29388096D02*
X54828628Y29483334D01*
X54828628Y29483334D02*
X54828628Y29864286D01*
X54304819Y28959524D02*
X54304819Y28340477D01*
X54304819Y28340477D02*
X54685771Y28673810D01*
X54685771Y28673810D02*
X54685771Y28530953D01*
X54685771Y28530953D02*
X54733390Y28435715D01*
X54733390Y28435715D02*
X54781009Y28388096D01*
X54781009Y28388096D02*
X54876247Y28340477D01*
X54876247Y28340477D02*
X55114342Y28340477D01*
X55114342Y28340477D02*
X55209580Y28388096D01*
X55209580Y28388096D02*
X55257200Y28435715D01*
X55257200Y28435715D02*
X55304819Y28530953D01*
X55304819Y28530953D02*
X55304819Y28816667D01*
X55304819Y28816667D02*
X55257200Y28911905D01*
X55257200Y28911905D02*
X55209580Y28959524D01*
X55304819Y27864286D02*
X55304819Y27673810D01*
X55304819Y27673810D02*
X55257200Y27578572D01*
X55257200Y27578572D02*
X55209580Y27530953D01*
X55209580Y27530953D02*
X55066723Y27435715D01*
X55066723Y27435715D02*
X54876247Y27388096D01*
X54876247Y27388096D02*
X54495295Y27388096D01*
X54495295Y27388096D02*
X54400057Y27435715D01*
X54400057Y27435715D02*
X54352438Y27483334D01*
X54352438Y27483334D02*
X54304819Y27578572D01*
X54304819Y27578572D02*
X54304819Y27769048D01*
X54304819Y27769048D02*
X54352438Y27864286D01*
X54352438Y27864286D02*
X54400057Y27911905D01*
X54400057Y27911905D02*
X54495295Y27959524D01*
X54495295Y27959524D02*
X54733390Y27959524D01*
X54733390Y27959524D02*
X54828628Y27911905D01*
X54828628Y27911905D02*
X54876247Y27864286D01*
X54876247Y27864286D02*
X54923866Y27769048D01*
X54923866Y27769048D02*
X54923866Y27578572D01*
X54923866Y27578572D02*
X54876247Y27483334D01*
X54876247Y27483334D02*
X54828628Y27435715D01*
X54828628Y27435715D02*
X54733390Y27388096D01*
X40877857Y74402681D02*
X41211190Y74878872D01*
X41449285Y74402681D02*
X41449285Y75402681D01*
X41449285Y75402681D02*
X41068333Y75402681D01*
X41068333Y75402681D02*
X40973095Y75355062D01*
X40973095Y75355062D02*
X40925476Y75307443D01*
X40925476Y75307443D02*
X40877857Y75212205D01*
X40877857Y75212205D02*
X40877857Y75069348D01*
X40877857Y75069348D02*
X40925476Y74974110D01*
X40925476Y74974110D02*
X40973095Y74926491D01*
X40973095Y74926491D02*
X41068333Y74878872D01*
X41068333Y74878872D02*
X41449285Y74878872D01*
X40496904Y75307443D02*
X40449285Y75355062D01*
X40449285Y75355062D02*
X40354047Y75402681D01*
X40354047Y75402681D02*
X40115952Y75402681D01*
X40115952Y75402681D02*
X40020714Y75355062D01*
X40020714Y75355062D02*
X39973095Y75307443D01*
X39973095Y75307443D02*
X39925476Y75212205D01*
X39925476Y75212205D02*
X39925476Y75116967D01*
X39925476Y75116967D02*
X39973095Y74974110D01*
X39973095Y74974110D02*
X40544523Y74402681D01*
X40544523Y74402681D02*
X39925476Y74402681D01*
X39306428Y75402681D02*
X39211190Y75402681D01*
X39211190Y75402681D02*
X39115952Y75355062D01*
X39115952Y75355062D02*
X39068333Y75307443D01*
X39068333Y75307443D02*
X39020714Y75212205D01*
X39020714Y75212205D02*
X38973095Y75021729D01*
X38973095Y75021729D02*
X38973095Y74783634D01*
X38973095Y74783634D02*
X39020714Y74593158D01*
X39020714Y74593158D02*
X39068333Y74497920D01*
X39068333Y74497920D02*
X39115952Y74450300D01*
X39115952Y74450300D02*
X39211190Y74402681D01*
X39211190Y74402681D02*
X39306428Y74402681D01*
X39306428Y74402681D02*
X39401666Y74450300D01*
X39401666Y74450300D02*
X39449285Y74497920D01*
X39449285Y74497920D02*
X39496904Y74593158D01*
X39496904Y74593158D02*
X39544523Y74783634D01*
X39544523Y74783634D02*
X39544523Y75021729D01*
X39544523Y75021729D02*
X39496904Y75212205D01*
X39496904Y75212205D02*
X39449285Y75307443D01*
X39449285Y75307443D02*
X39401666Y75355062D01*
X39401666Y75355062D02*
X39306428Y75402681D01*
X47554819Y40242858D02*
X47078628Y40576191D01*
X47554819Y40814286D02*
X46554819Y40814286D01*
X46554819Y40814286D02*
X46554819Y40433334D01*
X46554819Y40433334D02*
X46602438Y40338096D01*
X46602438Y40338096D02*
X46650057Y40290477D01*
X46650057Y40290477D02*
X46745295Y40242858D01*
X46745295Y40242858D02*
X46888152Y40242858D01*
X46888152Y40242858D02*
X46983390Y40290477D01*
X46983390Y40290477D02*
X47031009Y40338096D01*
X47031009Y40338096D02*
X47078628Y40433334D01*
X47078628Y40433334D02*
X47078628Y40814286D01*
X46554819Y39909524D02*
X46554819Y39290477D01*
X46554819Y39290477D02*
X46935771Y39623810D01*
X46935771Y39623810D02*
X46935771Y39480953D01*
X46935771Y39480953D02*
X46983390Y39385715D01*
X46983390Y39385715D02*
X47031009Y39338096D01*
X47031009Y39338096D02*
X47126247Y39290477D01*
X47126247Y39290477D02*
X47364342Y39290477D01*
X47364342Y39290477D02*
X47459580Y39338096D01*
X47459580Y39338096D02*
X47507200Y39385715D01*
X47507200Y39385715D02*
X47554819Y39480953D01*
X47554819Y39480953D02*
X47554819Y39766667D01*
X47554819Y39766667D02*
X47507200Y39861905D01*
X47507200Y39861905D02*
X47459580Y39909524D01*
X47554819Y38338096D02*
X47554819Y38909524D01*
X47554819Y38623810D02*
X46554819Y38623810D01*
X46554819Y38623810D02*
X46697676Y38719048D01*
X46697676Y38719048D02*
X46792914Y38814286D01*
X46792914Y38814286D02*
X46840533Y38909524D01*
X36416666Y82890420D02*
X36464285Y82842800D01*
X36464285Y82842800D02*
X36607142Y82795181D01*
X36607142Y82795181D02*
X36702380Y82795181D01*
X36702380Y82795181D02*
X36845237Y82842800D01*
X36845237Y82842800D02*
X36940475Y82938039D01*
X36940475Y82938039D02*
X36988094Y83033277D01*
X36988094Y83033277D02*
X37035713Y83223753D01*
X37035713Y83223753D02*
X37035713Y83366610D01*
X37035713Y83366610D02*
X36988094Y83557086D01*
X36988094Y83557086D02*
X36940475Y83652324D01*
X36940475Y83652324D02*
X36845237Y83747562D01*
X36845237Y83747562D02*
X36702380Y83795181D01*
X36702380Y83795181D02*
X36607142Y83795181D01*
X36607142Y83795181D02*
X36464285Y83747562D01*
X36464285Y83747562D02*
X36416666Y83699943D01*
X35559523Y83795181D02*
X35749999Y83795181D01*
X35749999Y83795181D02*
X35845237Y83747562D01*
X35845237Y83747562D02*
X35892856Y83699943D01*
X35892856Y83699943D02*
X35988094Y83557086D01*
X35988094Y83557086D02*
X36035713Y83366610D01*
X36035713Y83366610D02*
X36035713Y82985658D01*
X36035713Y82985658D02*
X35988094Y82890420D01*
X35988094Y82890420D02*
X35940475Y82842800D01*
X35940475Y82842800D02*
X35845237Y82795181D01*
X35845237Y82795181D02*
X35654761Y82795181D01*
X35654761Y82795181D02*
X35559523Y82842800D01*
X35559523Y82842800D02*
X35511904Y82890420D01*
X35511904Y82890420D02*
X35464285Y82985658D01*
X35464285Y82985658D02*
X35464285Y83223753D01*
X35464285Y83223753D02*
X35511904Y83318991D01*
X35511904Y83318991D02*
X35559523Y83366610D01*
X35559523Y83366610D02*
X35654761Y83414229D01*
X35654761Y83414229D02*
X35845237Y83414229D01*
X35845237Y83414229D02*
X35940475Y83366610D01*
X35940475Y83366610D02*
X35988094Y83318991D01*
X35988094Y83318991D02*
X36035713Y83223753D01*
X47904819Y25017858D02*
X47428628Y25351191D01*
X47904819Y25589286D02*
X46904819Y25589286D01*
X46904819Y25589286D02*
X46904819Y25208334D01*
X46904819Y25208334D02*
X46952438Y25113096D01*
X46952438Y25113096D02*
X47000057Y25065477D01*
X47000057Y25065477D02*
X47095295Y25017858D01*
X47095295Y25017858D02*
X47238152Y25017858D01*
X47238152Y25017858D02*
X47333390Y25065477D01*
X47333390Y25065477D02*
X47381009Y25113096D01*
X47381009Y25113096D02*
X47428628Y25208334D01*
X47428628Y25208334D02*
X47428628Y25589286D01*
X47238152Y24160715D02*
X47904819Y24160715D01*
X46857200Y24398810D02*
X47571485Y24636905D01*
X47571485Y24636905D02*
X47571485Y24017858D01*
X46904819Y23446429D02*
X46904819Y23351191D01*
X46904819Y23351191D02*
X46952438Y23255953D01*
X46952438Y23255953D02*
X47000057Y23208334D01*
X47000057Y23208334D02*
X47095295Y23160715D01*
X47095295Y23160715D02*
X47285771Y23113096D01*
X47285771Y23113096D02*
X47523866Y23113096D01*
X47523866Y23113096D02*
X47714342Y23160715D01*
X47714342Y23160715D02*
X47809580Y23208334D01*
X47809580Y23208334D02*
X47857200Y23255953D01*
X47857200Y23255953D02*
X47904819Y23351191D01*
X47904819Y23351191D02*
X47904819Y23446429D01*
X47904819Y23446429D02*
X47857200Y23541667D01*
X47857200Y23541667D02*
X47809580Y23589286D01*
X47809580Y23589286D02*
X47714342Y23636905D01*
X47714342Y23636905D02*
X47523866Y23684524D01*
X47523866Y23684524D02*
X47285771Y23684524D01*
X47285771Y23684524D02*
X47095295Y23636905D01*
X47095295Y23636905D02*
X47000057Y23589286D01*
X47000057Y23589286D02*
X46952438Y23541667D01*
X46952438Y23541667D02*
X46904819Y23446429D01*
X40442857Y39740420D02*
X40490476Y39692800D01*
X40490476Y39692800D02*
X40633333Y39645181D01*
X40633333Y39645181D02*
X40728571Y39645181D01*
X40728571Y39645181D02*
X40871428Y39692800D01*
X40871428Y39692800D02*
X40966666Y39788039D01*
X40966666Y39788039D02*
X41014285Y39883277D01*
X41014285Y39883277D02*
X41061904Y40073753D01*
X41061904Y40073753D02*
X41061904Y40216610D01*
X41061904Y40216610D02*
X41014285Y40407086D01*
X41014285Y40407086D02*
X40966666Y40502324D01*
X40966666Y40502324D02*
X40871428Y40597562D01*
X40871428Y40597562D02*
X40728571Y40645181D01*
X40728571Y40645181D02*
X40633333Y40645181D01*
X40633333Y40645181D02*
X40490476Y40597562D01*
X40490476Y40597562D02*
X40442857Y40549943D01*
X39490476Y39645181D02*
X40061904Y39645181D01*
X39776190Y39645181D02*
X39776190Y40645181D01*
X39776190Y40645181D02*
X39871428Y40502324D01*
X39871428Y40502324D02*
X39966666Y40407086D01*
X39966666Y40407086D02*
X40061904Y40359467D01*
X38633333Y40311848D02*
X38633333Y39645181D01*
X38871428Y40692800D02*
X39109523Y39978515D01*
X39109523Y39978515D02*
X38490476Y39978515D01*
X40466666Y96165181D02*
X40799999Y96641372D01*
X41038094Y96165181D02*
X41038094Y97165181D01*
X41038094Y97165181D02*
X40657142Y97165181D01*
X40657142Y97165181D02*
X40561904Y97117562D01*
X40561904Y97117562D02*
X40514285Y97069943D01*
X40514285Y97069943D02*
X40466666Y96974705D01*
X40466666Y96974705D02*
X40466666Y96831848D01*
X40466666Y96831848D02*
X40514285Y96736610D01*
X40514285Y96736610D02*
X40561904Y96688991D01*
X40561904Y96688991D02*
X40657142Y96641372D01*
X40657142Y96641372D02*
X41038094Y96641372D01*
X39609523Y97165181D02*
X39799999Y97165181D01*
X39799999Y97165181D02*
X39895237Y97117562D01*
X39895237Y97117562D02*
X39942856Y97069943D01*
X39942856Y97069943D02*
X40038094Y96927086D01*
X40038094Y96927086D02*
X40085713Y96736610D01*
X40085713Y96736610D02*
X40085713Y96355658D01*
X40085713Y96355658D02*
X40038094Y96260420D01*
X40038094Y96260420D02*
X39990475Y96212800D01*
X39990475Y96212800D02*
X39895237Y96165181D01*
X39895237Y96165181D02*
X39704761Y96165181D01*
X39704761Y96165181D02*
X39609523Y96212800D01*
X39609523Y96212800D02*
X39561904Y96260420D01*
X39561904Y96260420D02*
X39514285Y96355658D01*
X39514285Y96355658D02*
X39514285Y96593753D01*
X39514285Y96593753D02*
X39561904Y96688991D01*
X39561904Y96688991D02*
X39609523Y96736610D01*
X39609523Y96736610D02*
X39704761Y96784229D01*
X39704761Y96784229D02*
X39895237Y96784229D01*
X39895237Y96784229D02*
X39990475Y96736610D01*
X39990475Y96736610D02*
X40038094Y96688991D01*
X40038094Y96688991D02*
X40085713Y96593753D01*
X47804819Y18292858D02*
X47328628Y18626191D01*
X47804819Y18864286D02*
X46804819Y18864286D01*
X46804819Y18864286D02*
X46804819Y18483334D01*
X46804819Y18483334D02*
X46852438Y18388096D01*
X46852438Y18388096D02*
X46900057Y18340477D01*
X46900057Y18340477D02*
X46995295Y18292858D01*
X46995295Y18292858D02*
X47138152Y18292858D01*
X47138152Y18292858D02*
X47233390Y18340477D01*
X47233390Y18340477D02*
X47281009Y18388096D01*
X47281009Y18388096D02*
X47328628Y18483334D01*
X47328628Y18483334D02*
X47328628Y18864286D01*
X46804819Y17959524D02*
X46804819Y17340477D01*
X46804819Y17340477D02*
X47185771Y17673810D01*
X47185771Y17673810D02*
X47185771Y17530953D01*
X47185771Y17530953D02*
X47233390Y17435715D01*
X47233390Y17435715D02*
X47281009Y17388096D01*
X47281009Y17388096D02*
X47376247Y17340477D01*
X47376247Y17340477D02*
X47614342Y17340477D01*
X47614342Y17340477D02*
X47709580Y17388096D01*
X47709580Y17388096D02*
X47757200Y17435715D01*
X47757200Y17435715D02*
X47804819Y17530953D01*
X47804819Y17530953D02*
X47804819Y17816667D01*
X47804819Y17816667D02*
X47757200Y17911905D01*
X47757200Y17911905D02*
X47709580Y17959524D01*
X47233390Y16769048D02*
X47185771Y16864286D01*
X47185771Y16864286D02*
X47138152Y16911905D01*
X47138152Y16911905D02*
X47042914Y16959524D01*
X47042914Y16959524D02*
X46995295Y16959524D01*
X46995295Y16959524D02*
X46900057Y16911905D01*
X46900057Y16911905D02*
X46852438Y16864286D01*
X46852438Y16864286D02*
X46804819Y16769048D01*
X46804819Y16769048D02*
X46804819Y16578572D01*
X46804819Y16578572D02*
X46852438Y16483334D01*
X46852438Y16483334D02*
X46900057Y16435715D01*
X46900057Y16435715D02*
X46995295Y16388096D01*
X46995295Y16388096D02*
X47042914Y16388096D01*
X47042914Y16388096D02*
X47138152Y16435715D01*
X47138152Y16435715D02*
X47185771Y16483334D01*
X47185771Y16483334D02*
X47233390Y16578572D01*
X47233390Y16578572D02*
X47233390Y16769048D01*
X47233390Y16769048D02*
X47281009Y16864286D01*
X47281009Y16864286D02*
X47328628Y16911905D01*
X47328628Y16911905D02*
X47423866Y16959524D01*
X47423866Y16959524D02*
X47614342Y16959524D01*
X47614342Y16959524D02*
X47709580Y16911905D01*
X47709580Y16911905D02*
X47757200Y16864286D01*
X47757200Y16864286D02*
X47804819Y16769048D01*
X47804819Y16769048D02*
X47804819Y16578572D01*
X47804819Y16578572D02*
X47757200Y16483334D01*
X47757200Y16483334D02*
X47709580Y16435715D01*
X47709580Y16435715D02*
X47614342Y16388096D01*
X47614342Y16388096D02*
X47423866Y16388096D01*
X47423866Y16388096D02*
X47328628Y16435715D01*
X47328628Y16435715D02*
X47281009Y16483334D01*
X47281009Y16483334D02*
X47233390Y16578572D01*
X9716666Y82690420D02*
X9764285Y82642800D01*
X9764285Y82642800D02*
X9907142Y82595181D01*
X9907142Y82595181D02*
X10002380Y82595181D01*
X10002380Y82595181D02*
X10145237Y82642800D01*
X10145237Y82642800D02*
X10240475Y82738039D01*
X10240475Y82738039D02*
X10288094Y82833277D01*
X10288094Y82833277D02*
X10335713Y83023753D01*
X10335713Y83023753D02*
X10335713Y83166610D01*
X10335713Y83166610D02*
X10288094Y83357086D01*
X10288094Y83357086D02*
X10240475Y83452324D01*
X10240475Y83452324D02*
X10145237Y83547562D01*
X10145237Y83547562D02*
X10002380Y83595181D01*
X10002380Y83595181D02*
X9907142Y83595181D01*
X9907142Y83595181D02*
X9764285Y83547562D01*
X9764285Y83547562D02*
X9716666Y83499943D01*
X9145237Y83166610D02*
X9240475Y83214229D01*
X9240475Y83214229D02*
X9288094Y83261848D01*
X9288094Y83261848D02*
X9335713Y83357086D01*
X9335713Y83357086D02*
X9335713Y83404705D01*
X9335713Y83404705D02*
X9288094Y83499943D01*
X9288094Y83499943D02*
X9240475Y83547562D01*
X9240475Y83547562D02*
X9145237Y83595181D01*
X9145237Y83595181D02*
X8954761Y83595181D01*
X8954761Y83595181D02*
X8859523Y83547562D01*
X8859523Y83547562D02*
X8811904Y83499943D01*
X8811904Y83499943D02*
X8764285Y83404705D01*
X8764285Y83404705D02*
X8764285Y83357086D01*
X8764285Y83357086D02*
X8811904Y83261848D01*
X8811904Y83261848D02*
X8859523Y83214229D01*
X8859523Y83214229D02*
X8954761Y83166610D01*
X8954761Y83166610D02*
X9145237Y83166610D01*
X9145237Y83166610D02*
X9240475Y83118991D01*
X9240475Y83118991D02*
X9288094Y83071372D01*
X9288094Y83071372D02*
X9335713Y82976134D01*
X9335713Y82976134D02*
X9335713Y82785658D01*
X9335713Y82785658D02*
X9288094Y82690420D01*
X9288094Y82690420D02*
X9240475Y82642800D01*
X9240475Y82642800D02*
X9145237Y82595181D01*
X9145237Y82595181D02*
X8954761Y82595181D01*
X8954761Y82595181D02*
X8859523Y82642800D01*
X8859523Y82642800D02*
X8811904Y82690420D01*
X8811904Y82690420D02*
X8764285Y82785658D01*
X8764285Y82785658D02*
X8764285Y82976134D01*
X8764285Y82976134D02*
X8811904Y83071372D01*
X8811904Y83071372D02*
X8859523Y83118991D01*
X8859523Y83118991D02*
X8954761Y83166610D01*
X10292857Y54040420D02*
X10340476Y53992800D01*
X10340476Y53992800D02*
X10483333Y53945181D01*
X10483333Y53945181D02*
X10578571Y53945181D01*
X10578571Y53945181D02*
X10721428Y53992800D01*
X10721428Y53992800D02*
X10816666Y54088039D01*
X10816666Y54088039D02*
X10864285Y54183277D01*
X10864285Y54183277D02*
X10911904Y54373753D01*
X10911904Y54373753D02*
X10911904Y54516610D01*
X10911904Y54516610D02*
X10864285Y54707086D01*
X10864285Y54707086D02*
X10816666Y54802324D01*
X10816666Y54802324D02*
X10721428Y54897562D01*
X10721428Y54897562D02*
X10578571Y54945181D01*
X10578571Y54945181D02*
X10483333Y54945181D01*
X10483333Y54945181D02*
X10340476Y54897562D01*
X10340476Y54897562D02*
X10292857Y54849943D01*
X9340476Y53945181D02*
X9911904Y53945181D01*
X9626190Y53945181D02*
X9626190Y54945181D01*
X9626190Y54945181D02*
X9721428Y54802324D01*
X9721428Y54802324D02*
X9816666Y54707086D01*
X9816666Y54707086D02*
X9911904Y54659467D01*
X8388095Y53945181D02*
X8959523Y53945181D01*
X8673809Y53945181D02*
X8673809Y54945181D01*
X8673809Y54945181D02*
X8769047Y54802324D01*
X8769047Y54802324D02*
X8864285Y54707086D01*
X8864285Y54707086D02*
X8959523Y54659467D01*
X8716666Y15035420D02*
X8764285Y14987800D01*
X8764285Y14987800D02*
X8907142Y14940181D01*
X8907142Y14940181D02*
X9002380Y14940181D01*
X9002380Y14940181D02*
X9145237Y14987800D01*
X9145237Y14987800D02*
X9240475Y15083039D01*
X9240475Y15083039D02*
X9288094Y15178277D01*
X9288094Y15178277D02*
X9335713Y15368753D01*
X9335713Y15368753D02*
X9335713Y15511610D01*
X9335713Y15511610D02*
X9288094Y15702086D01*
X9288094Y15702086D02*
X9240475Y15797324D01*
X9240475Y15797324D02*
X9145237Y15892562D01*
X9145237Y15892562D02*
X9002380Y15940181D01*
X9002380Y15940181D02*
X8907142Y15940181D01*
X8907142Y15940181D02*
X8764285Y15892562D01*
X8764285Y15892562D02*
X8716666Y15844943D01*
X8335713Y15844943D02*
X8288094Y15892562D01*
X8288094Y15892562D02*
X8192856Y15940181D01*
X8192856Y15940181D02*
X7954761Y15940181D01*
X7954761Y15940181D02*
X7859523Y15892562D01*
X7859523Y15892562D02*
X7811904Y15844943D01*
X7811904Y15844943D02*
X7764285Y15749705D01*
X7764285Y15749705D02*
X7764285Y15654467D01*
X7764285Y15654467D02*
X7811904Y15511610D01*
X7811904Y15511610D02*
X8383332Y14940181D01*
X8383332Y14940181D02*
X7764285Y14940181D01*
X40592857Y10845181D02*
X40926190Y11321372D01*
X41164285Y10845181D02*
X41164285Y11845181D01*
X41164285Y11845181D02*
X40783333Y11845181D01*
X40783333Y11845181D02*
X40688095Y11797562D01*
X40688095Y11797562D02*
X40640476Y11749943D01*
X40640476Y11749943D02*
X40592857Y11654705D01*
X40592857Y11654705D02*
X40592857Y11511848D01*
X40592857Y11511848D02*
X40640476Y11416610D01*
X40640476Y11416610D02*
X40688095Y11368991D01*
X40688095Y11368991D02*
X40783333Y11321372D01*
X40783333Y11321372D02*
X41164285Y11321372D01*
X39735714Y11511848D02*
X39735714Y10845181D01*
X39973809Y11892800D02*
X40211904Y11178515D01*
X40211904Y11178515D02*
X39592857Y11178515D01*
X39259523Y11749943D02*
X39211904Y11797562D01*
X39211904Y11797562D02*
X39116666Y11845181D01*
X39116666Y11845181D02*
X38878571Y11845181D01*
X38878571Y11845181D02*
X38783333Y11797562D01*
X38783333Y11797562D02*
X38735714Y11749943D01*
X38735714Y11749943D02*
X38688095Y11654705D01*
X38688095Y11654705D02*
X38688095Y11559467D01*
X38688095Y11559467D02*
X38735714Y11416610D01*
X38735714Y11416610D02*
X39307142Y10845181D01*
X39307142Y10845181D02*
X38688095Y10845181D01*
X40692857Y17840420D02*
X40740476Y17792800D01*
X40740476Y17792800D02*
X40883333Y17745181D01*
X40883333Y17745181D02*
X40978571Y17745181D01*
X40978571Y17745181D02*
X41121428Y17792800D01*
X41121428Y17792800D02*
X41216666Y17888039D01*
X41216666Y17888039D02*
X41264285Y17983277D01*
X41264285Y17983277D02*
X41311904Y18173753D01*
X41311904Y18173753D02*
X41311904Y18316610D01*
X41311904Y18316610D02*
X41264285Y18507086D01*
X41264285Y18507086D02*
X41216666Y18602324D01*
X41216666Y18602324D02*
X41121428Y18697562D01*
X41121428Y18697562D02*
X40978571Y18745181D01*
X40978571Y18745181D02*
X40883333Y18745181D01*
X40883333Y18745181D02*
X40740476Y18697562D01*
X40740476Y18697562D02*
X40692857Y18649943D01*
X39740476Y17745181D02*
X40311904Y17745181D01*
X40026190Y17745181D02*
X40026190Y18745181D01*
X40026190Y18745181D02*
X40121428Y18602324D01*
X40121428Y18602324D02*
X40216666Y18507086D01*
X40216666Y18507086D02*
X40311904Y18459467D01*
X38883333Y18745181D02*
X39073809Y18745181D01*
X39073809Y18745181D02*
X39169047Y18697562D01*
X39169047Y18697562D02*
X39216666Y18649943D01*
X39216666Y18649943D02*
X39311904Y18507086D01*
X39311904Y18507086D02*
X39359523Y18316610D01*
X39359523Y18316610D02*
X39359523Y17935658D01*
X39359523Y17935658D02*
X39311904Y17840420D01*
X39311904Y17840420D02*
X39264285Y17792800D01*
X39264285Y17792800D02*
X39169047Y17745181D01*
X39169047Y17745181D02*
X38978571Y17745181D01*
X38978571Y17745181D02*
X38883333Y17792800D01*
X38883333Y17792800D02*
X38835714Y17840420D01*
X38835714Y17840420D02*
X38788095Y17935658D01*
X38788095Y17935658D02*
X38788095Y18173753D01*
X38788095Y18173753D02*
X38835714Y18268991D01*
X38835714Y18268991D02*
X38883333Y18316610D01*
X38883333Y18316610D02*
X38978571Y18364229D01*
X38978571Y18364229D02*
X39169047Y18364229D01*
X39169047Y18364229D02*
X39264285Y18316610D01*
X39264285Y18316610D02*
X39311904Y18268991D01*
X39311904Y18268991D02*
X39359523Y18173753D01*
X11416666Y18135420D02*
X11464285Y18087800D01*
X11464285Y18087800D02*
X11607142Y18040181D01*
X11607142Y18040181D02*
X11702380Y18040181D01*
X11702380Y18040181D02*
X11845237Y18087800D01*
X11845237Y18087800D02*
X11940475Y18183039D01*
X11940475Y18183039D02*
X11988094Y18278277D01*
X11988094Y18278277D02*
X12035713Y18468753D01*
X12035713Y18468753D02*
X12035713Y18611610D01*
X12035713Y18611610D02*
X11988094Y18802086D01*
X11988094Y18802086D02*
X11940475Y18897324D01*
X11940475Y18897324D02*
X11845237Y18992562D01*
X11845237Y18992562D02*
X11702380Y19040181D01*
X11702380Y19040181D02*
X11607142Y19040181D01*
X11607142Y19040181D02*
X11464285Y18992562D01*
X11464285Y18992562D02*
X11416666Y18944943D01*
X11083332Y19040181D02*
X10464285Y19040181D01*
X10464285Y19040181D02*
X10797618Y18659229D01*
X10797618Y18659229D02*
X10654761Y18659229D01*
X10654761Y18659229D02*
X10559523Y18611610D01*
X10559523Y18611610D02*
X10511904Y18563991D01*
X10511904Y18563991D02*
X10464285Y18468753D01*
X10464285Y18468753D02*
X10464285Y18230658D01*
X10464285Y18230658D02*
X10511904Y18135420D01*
X10511904Y18135420D02*
X10559523Y18087800D01*
X10559523Y18087800D02*
X10654761Y18040181D01*
X10654761Y18040181D02*
X10940475Y18040181D01*
X10940475Y18040181D02*
X11035713Y18087800D01*
X11035713Y18087800D02*
X11083332Y18135420D01*
X57209580Y60904167D02*
X57257200Y60951786D01*
X57257200Y60951786D02*
X57304819Y61094643D01*
X57304819Y61094643D02*
X57304819Y61189881D01*
X57304819Y61189881D02*
X57257200Y61332738D01*
X57257200Y61332738D02*
X57161961Y61427976D01*
X57161961Y61427976D02*
X57066723Y61475595D01*
X57066723Y61475595D02*
X56876247Y61523214D01*
X56876247Y61523214D02*
X56733390Y61523214D01*
X56733390Y61523214D02*
X56542914Y61475595D01*
X56542914Y61475595D02*
X56447676Y61427976D01*
X56447676Y61427976D02*
X56352438Y61332738D01*
X56352438Y61332738D02*
X56304819Y61189881D01*
X56304819Y61189881D02*
X56304819Y61094643D01*
X56304819Y61094643D02*
X56352438Y60951786D01*
X56352438Y60951786D02*
X56400057Y60904167D01*
X57304819Y60427976D02*
X57304819Y60237500D01*
X57304819Y60237500D02*
X57257200Y60142262D01*
X57257200Y60142262D02*
X57209580Y60094643D01*
X57209580Y60094643D02*
X57066723Y59999405D01*
X57066723Y59999405D02*
X56876247Y59951786D01*
X56876247Y59951786D02*
X56495295Y59951786D01*
X56495295Y59951786D02*
X56400057Y59999405D01*
X56400057Y59999405D02*
X56352438Y60047024D01*
X56352438Y60047024D02*
X56304819Y60142262D01*
X56304819Y60142262D02*
X56304819Y60332738D01*
X56304819Y60332738D02*
X56352438Y60427976D01*
X56352438Y60427976D02*
X56400057Y60475595D01*
X56400057Y60475595D02*
X56495295Y60523214D01*
X56495295Y60523214D02*
X56733390Y60523214D01*
X56733390Y60523214D02*
X56828628Y60475595D01*
X56828628Y60475595D02*
X56876247Y60427976D01*
X56876247Y60427976D02*
X56923866Y60332738D01*
X56923866Y60332738D02*
X56923866Y60142262D01*
X56923866Y60142262D02*
X56876247Y60047024D01*
X56876247Y60047024D02*
X56828628Y59999405D01*
X56828628Y59999405D02*
X56733390Y59951786D01*
X58454819Y29342858D02*
X57978628Y29676191D01*
X58454819Y29914286D02*
X57454819Y29914286D01*
X57454819Y29914286D02*
X57454819Y29533334D01*
X57454819Y29533334D02*
X57502438Y29438096D01*
X57502438Y29438096D02*
X57550057Y29390477D01*
X57550057Y29390477D02*
X57645295Y29342858D01*
X57645295Y29342858D02*
X57788152Y29342858D01*
X57788152Y29342858D02*
X57883390Y29390477D01*
X57883390Y29390477D02*
X57931009Y29438096D01*
X57931009Y29438096D02*
X57978628Y29533334D01*
X57978628Y29533334D02*
X57978628Y29914286D01*
X57454819Y29009524D02*
X57454819Y28390477D01*
X57454819Y28390477D02*
X57835771Y28723810D01*
X57835771Y28723810D02*
X57835771Y28580953D01*
X57835771Y28580953D02*
X57883390Y28485715D01*
X57883390Y28485715D02*
X57931009Y28438096D01*
X57931009Y28438096D02*
X58026247Y28390477D01*
X58026247Y28390477D02*
X58264342Y28390477D01*
X58264342Y28390477D02*
X58359580Y28438096D01*
X58359580Y28438096D02*
X58407200Y28485715D01*
X58407200Y28485715D02*
X58454819Y28580953D01*
X58454819Y28580953D02*
X58454819Y28866667D01*
X58454819Y28866667D02*
X58407200Y28961905D01*
X58407200Y28961905D02*
X58359580Y29009524D01*
X57454819Y28057143D02*
X57454819Y27390477D01*
X57454819Y27390477D02*
X58454819Y27819048D01*
X47654819Y92066667D02*
X47178628Y92400000D01*
X47654819Y92638095D02*
X46654819Y92638095D01*
X46654819Y92638095D02*
X46654819Y92257143D01*
X46654819Y92257143D02*
X46702438Y92161905D01*
X46702438Y92161905D02*
X46750057Y92114286D01*
X46750057Y92114286D02*
X46845295Y92066667D01*
X46845295Y92066667D02*
X46988152Y92066667D01*
X46988152Y92066667D02*
X47083390Y92114286D01*
X47083390Y92114286D02*
X47131009Y92161905D01*
X47131009Y92161905D02*
X47178628Y92257143D01*
X47178628Y92257143D02*
X47178628Y92638095D01*
X46654819Y91161905D02*
X46654819Y91638095D01*
X46654819Y91638095D02*
X47131009Y91685714D01*
X47131009Y91685714D02*
X47083390Y91638095D01*
X47083390Y91638095D02*
X47035771Y91542857D01*
X47035771Y91542857D02*
X47035771Y91304762D01*
X47035771Y91304762D02*
X47083390Y91209524D01*
X47083390Y91209524D02*
X47131009Y91161905D01*
X47131009Y91161905D02*
X47226247Y91114286D01*
X47226247Y91114286D02*
X47464342Y91114286D01*
X47464342Y91114286D02*
X47559580Y91161905D01*
X47559580Y91161905D02*
X47607200Y91209524D01*
X47607200Y91209524D02*
X47654819Y91304762D01*
X47654819Y91304762D02*
X47654819Y91542857D01*
X47654819Y91542857D02*
X47607200Y91638095D01*
X47607200Y91638095D02*
X47559580Y91685714D01*
X29554819Y74142858D02*
X29078628Y74476191D01*
X29554819Y74714286D02*
X28554819Y74714286D01*
X28554819Y74714286D02*
X28554819Y74333334D01*
X28554819Y74333334D02*
X28602438Y74238096D01*
X28602438Y74238096D02*
X28650057Y74190477D01*
X28650057Y74190477D02*
X28745295Y74142858D01*
X28745295Y74142858D02*
X28888152Y74142858D01*
X28888152Y74142858D02*
X28983390Y74190477D01*
X28983390Y74190477D02*
X29031009Y74238096D01*
X29031009Y74238096D02*
X29078628Y74333334D01*
X29078628Y74333334D02*
X29078628Y74714286D01*
X28650057Y73761905D02*
X28602438Y73714286D01*
X28602438Y73714286D02*
X28554819Y73619048D01*
X28554819Y73619048D02*
X28554819Y73380953D01*
X28554819Y73380953D02*
X28602438Y73285715D01*
X28602438Y73285715D02*
X28650057Y73238096D01*
X28650057Y73238096D02*
X28745295Y73190477D01*
X28745295Y73190477D02*
X28840533Y73190477D01*
X28840533Y73190477D02*
X28983390Y73238096D01*
X28983390Y73238096D02*
X29554819Y73809524D01*
X29554819Y73809524D02*
X29554819Y73190477D01*
X28554819Y72285715D02*
X28554819Y72761905D01*
X28554819Y72761905D02*
X29031009Y72809524D01*
X29031009Y72809524D02*
X28983390Y72761905D01*
X28983390Y72761905D02*
X28935771Y72666667D01*
X28935771Y72666667D02*
X28935771Y72428572D01*
X28935771Y72428572D02*
X28983390Y72333334D01*
X28983390Y72333334D02*
X29031009Y72285715D01*
X29031009Y72285715D02*
X29126247Y72238096D01*
X29126247Y72238096D02*
X29364342Y72238096D01*
X29364342Y72238096D02*
X29459580Y72285715D01*
X29459580Y72285715D02*
X29507200Y72333334D01*
X29507200Y72333334D02*
X29554819Y72428572D01*
X29554819Y72428572D02*
X29554819Y72666667D01*
X29554819Y72666667D02*
X29507200Y72761905D01*
X29507200Y72761905D02*
X29459580Y72809524D01*
X40392857Y62240420D02*
X40440476Y62192800D01*
X40440476Y62192800D02*
X40583333Y62145181D01*
X40583333Y62145181D02*
X40678571Y62145181D01*
X40678571Y62145181D02*
X40821428Y62192800D01*
X40821428Y62192800D02*
X40916666Y62288039D01*
X40916666Y62288039D02*
X40964285Y62383277D01*
X40964285Y62383277D02*
X41011904Y62573753D01*
X41011904Y62573753D02*
X41011904Y62716610D01*
X41011904Y62716610D02*
X40964285Y62907086D01*
X40964285Y62907086D02*
X40916666Y63002324D01*
X40916666Y63002324D02*
X40821428Y63097562D01*
X40821428Y63097562D02*
X40678571Y63145181D01*
X40678571Y63145181D02*
X40583333Y63145181D01*
X40583333Y63145181D02*
X40440476Y63097562D01*
X40440476Y63097562D02*
X40392857Y63049943D01*
X39440476Y62145181D02*
X40011904Y62145181D01*
X39726190Y62145181D02*
X39726190Y63145181D01*
X39726190Y63145181D02*
X39821428Y63002324D01*
X39821428Y63002324D02*
X39916666Y62907086D01*
X39916666Y62907086D02*
X40011904Y62859467D01*
X38821428Y63145181D02*
X38726190Y63145181D01*
X38726190Y63145181D02*
X38630952Y63097562D01*
X38630952Y63097562D02*
X38583333Y63049943D01*
X38583333Y63049943D02*
X38535714Y62954705D01*
X38535714Y62954705D02*
X38488095Y62764229D01*
X38488095Y62764229D02*
X38488095Y62526134D01*
X38488095Y62526134D02*
X38535714Y62335658D01*
X38535714Y62335658D02*
X38583333Y62240420D01*
X38583333Y62240420D02*
X38630952Y62192800D01*
X38630952Y62192800D02*
X38726190Y62145181D01*
X38726190Y62145181D02*
X38821428Y62145181D01*
X38821428Y62145181D02*
X38916666Y62192800D01*
X38916666Y62192800D02*
X38964285Y62240420D01*
X38964285Y62240420D02*
X39011904Y62335658D01*
X39011904Y62335658D02*
X39059523Y62526134D01*
X39059523Y62526134D02*
X39059523Y62764229D01*
X39059523Y62764229D02*
X39011904Y62954705D01*
X39011904Y62954705D02*
X38964285Y63049943D01*
X38964285Y63049943D02*
X38916666Y63097562D01*
X38916666Y63097562D02*
X38821428Y63145181D01*
X56992857Y52495181D02*
X57326190Y52971372D01*
X57564285Y52495181D02*
X57564285Y53495181D01*
X57564285Y53495181D02*
X57183333Y53495181D01*
X57183333Y53495181D02*
X57088095Y53447562D01*
X57088095Y53447562D02*
X57040476Y53399943D01*
X57040476Y53399943D02*
X56992857Y53304705D01*
X56992857Y53304705D02*
X56992857Y53161848D01*
X56992857Y53161848D02*
X57040476Y53066610D01*
X57040476Y53066610D02*
X57088095Y53018991D01*
X57088095Y53018991D02*
X57183333Y52971372D01*
X57183333Y52971372D02*
X57564285Y52971372D01*
X56040476Y52495181D02*
X56611904Y52495181D01*
X56326190Y52495181D02*
X56326190Y53495181D01*
X56326190Y53495181D02*
X56421428Y53352324D01*
X56421428Y53352324D02*
X56516666Y53257086D01*
X56516666Y53257086D02*
X56611904Y53209467D01*
X55135714Y53495181D02*
X55611904Y53495181D01*
X55611904Y53495181D02*
X55659523Y53018991D01*
X55659523Y53018991D02*
X55611904Y53066610D01*
X55611904Y53066610D02*
X55516666Y53114229D01*
X55516666Y53114229D02*
X55278571Y53114229D01*
X55278571Y53114229D02*
X55183333Y53066610D01*
X55183333Y53066610D02*
X55135714Y53018991D01*
X55135714Y53018991D02*
X55088095Y52923753D01*
X55088095Y52923753D02*
X55088095Y52685658D01*
X55088095Y52685658D02*
X55135714Y52590420D01*
X55135714Y52590420D02*
X55183333Y52542800D01*
X55183333Y52542800D02*
X55278571Y52495181D01*
X55278571Y52495181D02*
X55516666Y52495181D01*
X55516666Y52495181D02*
X55611904Y52542800D01*
X55611904Y52542800D02*
X55659523Y52590420D01*
X11416666Y21135420D02*
X11464285Y21087800D01*
X11464285Y21087800D02*
X11607142Y21040181D01*
X11607142Y21040181D02*
X11702380Y21040181D01*
X11702380Y21040181D02*
X11845237Y21087800D01*
X11845237Y21087800D02*
X11940475Y21183039D01*
X11940475Y21183039D02*
X11988094Y21278277D01*
X11988094Y21278277D02*
X12035713Y21468753D01*
X12035713Y21468753D02*
X12035713Y21611610D01*
X12035713Y21611610D02*
X11988094Y21802086D01*
X11988094Y21802086D02*
X11940475Y21897324D01*
X11940475Y21897324D02*
X11845237Y21992562D01*
X11845237Y21992562D02*
X11702380Y22040181D01*
X11702380Y22040181D02*
X11607142Y22040181D01*
X11607142Y22040181D02*
X11464285Y21992562D01*
X11464285Y21992562D02*
X11416666Y21944943D01*
X10559523Y21706848D02*
X10559523Y21040181D01*
X10797618Y22087800D02*
X11035713Y21373515D01*
X11035713Y21373515D02*
X10416666Y21373515D01*
X47704819Y62942858D02*
X47228628Y63276191D01*
X47704819Y63514286D02*
X46704819Y63514286D01*
X46704819Y63514286D02*
X46704819Y63133334D01*
X46704819Y63133334D02*
X46752438Y63038096D01*
X46752438Y63038096D02*
X46800057Y62990477D01*
X46800057Y62990477D02*
X46895295Y62942858D01*
X46895295Y62942858D02*
X47038152Y62942858D01*
X47038152Y62942858D02*
X47133390Y62990477D01*
X47133390Y62990477D02*
X47181009Y63038096D01*
X47181009Y63038096D02*
X47228628Y63133334D01*
X47228628Y63133334D02*
X47228628Y63514286D01*
X47704819Y61990477D02*
X47704819Y62561905D01*
X47704819Y62276191D02*
X46704819Y62276191D01*
X46704819Y62276191D02*
X46847676Y62371429D01*
X46847676Y62371429D02*
X46942914Y62466667D01*
X46942914Y62466667D02*
X46990533Y62561905D01*
X46704819Y61657143D02*
X46704819Y60990477D01*
X46704819Y60990477D02*
X47704819Y61419048D01*
X41042857Y29840181D02*
X41376190Y30316372D01*
X41614285Y29840181D02*
X41614285Y30840181D01*
X41614285Y30840181D02*
X41233333Y30840181D01*
X41233333Y30840181D02*
X41138095Y30792562D01*
X41138095Y30792562D02*
X41090476Y30744943D01*
X41090476Y30744943D02*
X41042857Y30649705D01*
X41042857Y30649705D02*
X41042857Y30506848D01*
X41042857Y30506848D02*
X41090476Y30411610D01*
X41090476Y30411610D02*
X41138095Y30363991D01*
X41138095Y30363991D02*
X41233333Y30316372D01*
X41233333Y30316372D02*
X41614285Y30316372D01*
X40185714Y30506848D02*
X40185714Y29840181D01*
X40423809Y30887800D02*
X40661904Y30173515D01*
X40661904Y30173515D02*
X40042857Y30173515D01*
X39138095Y29840181D02*
X39709523Y29840181D01*
X39423809Y29840181D02*
X39423809Y30840181D01*
X39423809Y30840181D02*
X39519047Y30697324D01*
X39519047Y30697324D02*
X39614285Y30602086D01*
X39614285Y30602086D02*
X39709523Y30554467D01*
X32354819Y96266667D02*
X31878628Y96600000D01*
X32354819Y96838095D02*
X31354819Y96838095D01*
X31354819Y96838095D02*
X31354819Y96457143D01*
X31354819Y96457143D02*
X31402438Y96361905D01*
X31402438Y96361905D02*
X31450057Y96314286D01*
X31450057Y96314286D02*
X31545295Y96266667D01*
X31545295Y96266667D02*
X31688152Y96266667D01*
X31688152Y96266667D02*
X31783390Y96314286D01*
X31783390Y96314286D02*
X31831009Y96361905D01*
X31831009Y96361905D02*
X31878628Y96457143D01*
X31878628Y96457143D02*
X31878628Y96838095D01*
X32354819Y95790476D02*
X32354819Y95600000D01*
X32354819Y95600000D02*
X32307200Y95504762D01*
X32307200Y95504762D02*
X32259580Y95457143D01*
X32259580Y95457143D02*
X32116723Y95361905D01*
X32116723Y95361905D02*
X31926247Y95314286D01*
X31926247Y95314286D02*
X31545295Y95314286D01*
X31545295Y95314286D02*
X31450057Y95361905D01*
X31450057Y95361905D02*
X31402438Y95409524D01*
X31402438Y95409524D02*
X31354819Y95504762D01*
X31354819Y95504762D02*
X31354819Y95695238D01*
X31354819Y95695238D02*
X31402438Y95790476D01*
X31402438Y95790476D02*
X31450057Y95838095D01*
X31450057Y95838095D02*
X31545295Y95885714D01*
X31545295Y95885714D02*
X31783390Y95885714D01*
X31783390Y95885714D02*
X31878628Y95838095D01*
X31878628Y95838095D02*
X31926247Y95790476D01*
X31926247Y95790476D02*
X31973866Y95695238D01*
X31973866Y95695238D02*
X31973866Y95504762D01*
X31973866Y95504762D02*
X31926247Y95409524D01*
X31926247Y95409524D02*
X31878628Y95361905D01*
X31878628Y95361905D02*
X31783390Y95314286D01*
X57092857Y7895181D02*
X57426190Y8371372D01*
X57664285Y7895181D02*
X57664285Y8895181D01*
X57664285Y8895181D02*
X57283333Y8895181D01*
X57283333Y8895181D02*
X57188095Y8847562D01*
X57188095Y8847562D02*
X57140476Y8799943D01*
X57140476Y8799943D02*
X57092857Y8704705D01*
X57092857Y8704705D02*
X57092857Y8561848D01*
X57092857Y8561848D02*
X57140476Y8466610D01*
X57140476Y8466610D02*
X57188095Y8418991D01*
X57188095Y8418991D02*
X57283333Y8371372D01*
X57283333Y8371372D02*
X57664285Y8371372D01*
X56759523Y8895181D02*
X56140476Y8895181D01*
X56140476Y8895181D02*
X56473809Y8514229D01*
X56473809Y8514229D02*
X56330952Y8514229D01*
X56330952Y8514229D02*
X56235714Y8466610D01*
X56235714Y8466610D02*
X56188095Y8418991D01*
X56188095Y8418991D02*
X56140476Y8323753D01*
X56140476Y8323753D02*
X56140476Y8085658D01*
X56140476Y8085658D02*
X56188095Y7990420D01*
X56188095Y7990420D02*
X56235714Y7942800D01*
X56235714Y7942800D02*
X56330952Y7895181D01*
X56330952Y7895181D02*
X56616666Y7895181D01*
X56616666Y7895181D02*
X56711904Y7942800D01*
X56711904Y7942800D02*
X56759523Y7990420D01*
X55283333Y8895181D02*
X55473809Y8895181D01*
X55473809Y8895181D02*
X55569047Y8847562D01*
X55569047Y8847562D02*
X55616666Y8799943D01*
X55616666Y8799943D02*
X55711904Y8657086D01*
X55711904Y8657086D02*
X55759523Y8466610D01*
X55759523Y8466610D02*
X55759523Y8085658D01*
X55759523Y8085658D02*
X55711904Y7990420D01*
X55711904Y7990420D02*
X55664285Y7942800D01*
X55664285Y7942800D02*
X55569047Y7895181D01*
X55569047Y7895181D02*
X55378571Y7895181D01*
X55378571Y7895181D02*
X55283333Y7942800D01*
X55283333Y7942800D02*
X55235714Y7990420D01*
X55235714Y7990420D02*
X55188095Y8085658D01*
X55188095Y8085658D02*
X55188095Y8323753D01*
X55188095Y8323753D02*
X55235714Y8418991D01*
X55235714Y8418991D02*
X55283333Y8466610D01*
X55283333Y8466610D02*
X55378571Y8514229D01*
X55378571Y8514229D02*
X55569047Y8514229D01*
X55569047Y8514229D02*
X55664285Y8466610D01*
X55664285Y8466610D02*
X55711904Y8418991D01*
X55711904Y8418991D02*
X55759523Y8323753D01*
X21404819Y69742858D02*
X20928628Y70076191D01*
X21404819Y70314286D02*
X20404819Y70314286D01*
X20404819Y70314286D02*
X20404819Y69933334D01*
X20404819Y69933334D02*
X20452438Y69838096D01*
X20452438Y69838096D02*
X20500057Y69790477D01*
X20500057Y69790477D02*
X20595295Y69742858D01*
X20595295Y69742858D02*
X20738152Y69742858D01*
X20738152Y69742858D02*
X20833390Y69790477D01*
X20833390Y69790477D02*
X20881009Y69838096D01*
X20881009Y69838096D02*
X20928628Y69933334D01*
X20928628Y69933334D02*
X20928628Y70314286D01*
X20500057Y69361905D02*
X20452438Y69314286D01*
X20452438Y69314286D02*
X20404819Y69219048D01*
X20404819Y69219048D02*
X20404819Y68980953D01*
X20404819Y68980953D02*
X20452438Y68885715D01*
X20452438Y68885715D02*
X20500057Y68838096D01*
X20500057Y68838096D02*
X20595295Y68790477D01*
X20595295Y68790477D02*
X20690533Y68790477D01*
X20690533Y68790477D02*
X20833390Y68838096D01*
X20833390Y68838096D02*
X21404819Y69409524D01*
X21404819Y69409524D02*
X21404819Y68790477D01*
X20404819Y67933334D02*
X20404819Y68123810D01*
X20404819Y68123810D02*
X20452438Y68219048D01*
X20452438Y68219048D02*
X20500057Y68266667D01*
X20500057Y68266667D02*
X20642914Y68361905D01*
X20642914Y68361905D02*
X20833390Y68409524D01*
X20833390Y68409524D02*
X21214342Y68409524D01*
X21214342Y68409524D02*
X21309580Y68361905D01*
X21309580Y68361905D02*
X21357200Y68314286D01*
X21357200Y68314286D02*
X21404819Y68219048D01*
X21404819Y68219048D02*
X21404819Y68028572D01*
X21404819Y68028572D02*
X21357200Y67933334D01*
X21357200Y67933334D02*
X21309580Y67885715D01*
X21309580Y67885715D02*
X21214342Y67838096D01*
X21214342Y67838096D02*
X20976247Y67838096D01*
X20976247Y67838096D02*
X20881009Y67885715D01*
X20881009Y67885715D02*
X20833390Y67933334D01*
X20833390Y67933334D02*
X20785771Y68028572D01*
X20785771Y68028572D02*
X20785771Y68219048D01*
X20785771Y68219048D02*
X20833390Y68314286D01*
X20833390Y68314286D02*
X20881009Y68361905D01*
X20881009Y68361905D02*
X20976247Y68409524D01*
X57042857Y30145181D02*
X57376190Y30621372D01*
X57614285Y30145181D02*
X57614285Y31145181D01*
X57614285Y31145181D02*
X57233333Y31145181D01*
X57233333Y31145181D02*
X57138095Y31097562D01*
X57138095Y31097562D02*
X57090476Y31049943D01*
X57090476Y31049943D02*
X57042857Y30954705D01*
X57042857Y30954705D02*
X57042857Y30811848D01*
X57042857Y30811848D02*
X57090476Y30716610D01*
X57090476Y30716610D02*
X57138095Y30668991D01*
X57138095Y30668991D02*
X57233333Y30621372D01*
X57233333Y30621372D02*
X57614285Y30621372D01*
X56661904Y31049943D02*
X56614285Y31097562D01*
X56614285Y31097562D02*
X56519047Y31145181D01*
X56519047Y31145181D02*
X56280952Y31145181D01*
X56280952Y31145181D02*
X56185714Y31097562D01*
X56185714Y31097562D02*
X56138095Y31049943D01*
X56138095Y31049943D02*
X56090476Y30954705D01*
X56090476Y30954705D02*
X56090476Y30859467D01*
X56090476Y30859467D02*
X56138095Y30716610D01*
X56138095Y30716610D02*
X56709523Y30145181D01*
X56709523Y30145181D02*
X56090476Y30145181D01*
X55614285Y30145181D02*
X55423809Y30145181D01*
X55423809Y30145181D02*
X55328571Y30192800D01*
X55328571Y30192800D02*
X55280952Y30240420D01*
X55280952Y30240420D02*
X55185714Y30383277D01*
X55185714Y30383277D02*
X55138095Y30573753D01*
X55138095Y30573753D02*
X55138095Y30954705D01*
X55138095Y30954705D02*
X55185714Y31049943D01*
X55185714Y31049943D02*
X55233333Y31097562D01*
X55233333Y31097562D02*
X55328571Y31145181D01*
X55328571Y31145181D02*
X55519047Y31145181D01*
X55519047Y31145181D02*
X55614285Y31097562D01*
X55614285Y31097562D02*
X55661904Y31049943D01*
X55661904Y31049943D02*
X55709523Y30954705D01*
X55709523Y30954705D02*
X55709523Y30716610D01*
X55709523Y30716610D02*
X55661904Y30621372D01*
X55661904Y30621372D02*
X55614285Y30573753D01*
X55614285Y30573753D02*
X55519047Y30526134D01*
X55519047Y30526134D02*
X55328571Y30526134D01*
X55328571Y30526134D02*
X55233333Y30573753D01*
X55233333Y30573753D02*
X55185714Y30621372D01*
X55185714Y30621372D02*
X55138095Y30716610D01*
X30466666Y75395181D02*
X30799999Y75871372D01*
X31038094Y75395181D02*
X31038094Y76395181D01*
X31038094Y76395181D02*
X30657142Y76395181D01*
X30657142Y76395181D02*
X30561904Y76347562D01*
X30561904Y76347562D02*
X30514285Y76299943D01*
X30514285Y76299943D02*
X30466666Y76204705D01*
X30466666Y76204705D02*
X30466666Y76061848D01*
X30466666Y76061848D02*
X30514285Y75966610D01*
X30514285Y75966610D02*
X30561904Y75918991D01*
X30561904Y75918991D02*
X30657142Y75871372D01*
X30657142Y75871372D02*
X31038094Y75871372D01*
X29895237Y75966610D02*
X29990475Y76014229D01*
X29990475Y76014229D02*
X30038094Y76061848D01*
X30038094Y76061848D02*
X30085713Y76157086D01*
X30085713Y76157086D02*
X30085713Y76204705D01*
X30085713Y76204705D02*
X30038094Y76299943D01*
X30038094Y76299943D02*
X29990475Y76347562D01*
X29990475Y76347562D02*
X29895237Y76395181D01*
X29895237Y76395181D02*
X29704761Y76395181D01*
X29704761Y76395181D02*
X29609523Y76347562D01*
X29609523Y76347562D02*
X29561904Y76299943D01*
X29561904Y76299943D02*
X29514285Y76204705D01*
X29514285Y76204705D02*
X29514285Y76157086D01*
X29514285Y76157086D02*
X29561904Y76061848D01*
X29561904Y76061848D02*
X29609523Y76014229D01*
X29609523Y76014229D02*
X29704761Y75966610D01*
X29704761Y75966610D02*
X29895237Y75966610D01*
X29895237Y75966610D02*
X29990475Y75918991D01*
X29990475Y75918991D02*
X30038094Y75871372D01*
X30038094Y75871372D02*
X30085713Y75776134D01*
X30085713Y75776134D02*
X30085713Y75585658D01*
X30085713Y75585658D02*
X30038094Y75490420D01*
X30038094Y75490420D02*
X29990475Y75442800D01*
X29990475Y75442800D02*
X29895237Y75395181D01*
X29895237Y75395181D02*
X29704761Y75395181D01*
X29704761Y75395181D02*
X29609523Y75442800D01*
X29609523Y75442800D02*
X29561904Y75490420D01*
X29561904Y75490420D02*
X29514285Y75585658D01*
X29514285Y75585658D02*
X29514285Y75776134D01*
X29514285Y75776134D02*
X29561904Y75871372D01*
X29561904Y75871372D02*
X29609523Y75918991D01*
X29609523Y75918991D02*
X29704761Y75966610D01*
X11416666Y14310181D02*
X11892856Y14310181D01*
X11892856Y14310181D02*
X11892856Y15310181D01*
X10559523Y14310181D02*
X11130951Y14310181D01*
X10845237Y14310181D02*
X10845237Y15310181D01*
X10845237Y15310181D02*
X10940475Y15167324D01*
X10940475Y15167324D02*
X11035713Y15072086D01*
X11035713Y15072086D02*
X11130951Y15024467D01*
X21154819Y92392858D02*
X20678628Y92726191D01*
X21154819Y92964286D02*
X20154819Y92964286D01*
X20154819Y92964286D02*
X20154819Y92583334D01*
X20154819Y92583334D02*
X20202438Y92488096D01*
X20202438Y92488096D02*
X20250057Y92440477D01*
X20250057Y92440477D02*
X20345295Y92392858D01*
X20345295Y92392858D02*
X20488152Y92392858D01*
X20488152Y92392858D02*
X20583390Y92440477D01*
X20583390Y92440477D02*
X20631009Y92488096D01*
X20631009Y92488096D02*
X20678628Y92583334D01*
X20678628Y92583334D02*
X20678628Y92964286D01*
X21154819Y91440477D02*
X21154819Y92011905D01*
X21154819Y91726191D02*
X20154819Y91726191D01*
X20154819Y91726191D02*
X20297676Y91821429D01*
X20297676Y91821429D02*
X20392914Y91916667D01*
X20392914Y91916667D02*
X20440533Y92011905D01*
X20250057Y91059524D02*
X20202438Y91011905D01*
X20202438Y91011905D02*
X20154819Y90916667D01*
X20154819Y90916667D02*
X20154819Y90678572D01*
X20154819Y90678572D02*
X20202438Y90583334D01*
X20202438Y90583334D02*
X20250057Y90535715D01*
X20250057Y90535715D02*
X20345295Y90488096D01*
X20345295Y90488096D02*
X20440533Y90488096D01*
X20440533Y90488096D02*
X20583390Y90535715D01*
X20583390Y90535715D02*
X21154819Y91107143D01*
X21154819Y91107143D02*
X21154819Y90488096D01*
X29504819Y96642858D02*
X29028628Y96976191D01*
X29504819Y97214286D02*
X28504819Y97214286D01*
X28504819Y97214286D02*
X28504819Y96833334D01*
X28504819Y96833334D02*
X28552438Y96738096D01*
X28552438Y96738096D02*
X28600057Y96690477D01*
X28600057Y96690477D02*
X28695295Y96642858D01*
X28695295Y96642858D02*
X28838152Y96642858D01*
X28838152Y96642858D02*
X28933390Y96690477D01*
X28933390Y96690477D02*
X28981009Y96738096D01*
X28981009Y96738096D02*
X29028628Y96833334D01*
X29028628Y96833334D02*
X29028628Y97214286D01*
X29504819Y95690477D02*
X29504819Y96261905D01*
X29504819Y95976191D02*
X28504819Y95976191D01*
X28504819Y95976191D02*
X28647676Y96071429D01*
X28647676Y96071429D02*
X28742914Y96166667D01*
X28742914Y96166667D02*
X28790533Y96261905D01*
X29504819Y94738096D02*
X29504819Y95309524D01*
X29504819Y95023810D02*
X28504819Y95023810D01*
X28504819Y95023810D02*
X28647676Y95119048D01*
X28647676Y95119048D02*
X28742914Y95214286D01*
X28742914Y95214286D02*
X28790533Y95309524D01*
X47754819Y85066667D02*
X47278628Y85400000D01*
X47754819Y85638095D02*
X46754819Y85638095D01*
X46754819Y85638095D02*
X46754819Y85257143D01*
X46754819Y85257143D02*
X46802438Y85161905D01*
X46802438Y85161905D02*
X46850057Y85114286D01*
X46850057Y85114286D02*
X46945295Y85066667D01*
X46945295Y85066667D02*
X47088152Y85066667D01*
X47088152Y85066667D02*
X47183390Y85114286D01*
X47183390Y85114286D02*
X47231009Y85161905D01*
X47231009Y85161905D02*
X47278628Y85257143D01*
X47278628Y85257143D02*
X47278628Y85638095D01*
X46754819Y84733333D02*
X46754819Y84114286D01*
X46754819Y84114286D02*
X47135771Y84447619D01*
X47135771Y84447619D02*
X47135771Y84304762D01*
X47135771Y84304762D02*
X47183390Y84209524D01*
X47183390Y84209524D02*
X47231009Y84161905D01*
X47231009Y84161905D02*
X47326247Y84114286D01*
X47326247Y84114286D02*
X47564342Y84114286D01*
X47564342Y84114286D02*
X47659580Y84161905D01*
X47659580Y84161905D02*
X47707200Y84209524D01*
X47707200Y84209524D02*
X47754819Y84304762D01*
X47754819Y84304762D02*
X47754819Y84590476D01*
X47754819Y84590476D02*
X47707200Y84685714D01*
X47707200Y84685714D02*
X47659580Y84733333D01*
X10242857Y80195181D02*
X10576190Y80671372D01*
X10814285Y80195181D02*
X10814285Y81195181D01*
X10814285Y81195181D02*
X10433333Y81195181D01*
X10433333Y81195181D02*
X10338095Y81147562D01*
X10338095Y81147562D02*
X10290476Y81099943D01*
X10290476Y81099943D02*
X10242857Y81004705D01*
X10242857Y81004705D02*
X10242857Y80861848D01*
X10242857Y80861848D02*
X10290476Y80766610D01*
X10290476Y80766610D02*
X10338095Y80718991D01*
X10338095Y80718991D02*
X10433333Y80671372D01*
X10433333Y80671372D02*
X10814285Y80671372D01*
X9290476Y80195181D02*
X9861904Y80195181D01*
X9576190Y80195181D02*
X9576190Y81195181D01*
X9576190Y81195181D02*
X9671428Y81052324D01*
X9671428Y81052324D02*
X9766666Y80957086D01*
X9766666Y80957086D02*
X9861904Y80909467D01*
X8433333Y80861848D02*
X8433333Y80195181D01*
X8671428Y81242800D02*
X8909523Y80528515D01*
X8909523Y80528515D02*
X8290476Y80528515D01*
X40442857Y55645181D02*
X40776190Y56121372D01*
X41014285Y55645181D02*
X41014285Y56645181D01*
X41014285Y56645181D02*
X40633333Y56645181D01*
X40633333Y56645181D02*
X40538095Y56597562D01*
X40538095Y56597562D02*
X40490476Y56549943D01*
X40490476Y56549943D02*
X40442857Y56454705D01*
X40442857Y56454705D02*
X40442857Y56311848D01*
X40442857Y56311848D02*
X40490476Y56216610D01*
X40490476Y56216610D02*
X40538095Y56168991D01*
X40538095Y56168991D02*
X40633333Y56121372D01*
X40633333Y56121372D02*
X41014285Y56121372D01*
X40061904Y56549943D02*
X40014285Y56597562D01*
X40014285Y56597562D02*
X39919047Y56645181D01*
X39919047Y56645181D02*
X39680952Y56645181D01*
X39680952Y56645181D02*
X39585714Y56597562D01*
X39585714Y56597562D02*
X39538095Y56549943D01*
X39538095Y56549943D02*
X39490476Y56454705D01*
X39490476Y56454705D02*
X39490476Y56359467D01*
X39490476Y56359467D02*
X39538095Y56216610D01*
X39538095Y56216610D02*
X40109523Y55645181D01*
X40109523Y55645181D02*
X39490476Y55645181D01*
X38538095Y55645181D02*
X39109523Y55645181D01*
X38823809Y55645181D02*
X38823809Y56645181D01*
X38823809Y56645181D02*
X38919047Y56502324D01*
X38919047Y56502324D02*
X39014285Y56407086D01*
X39014285Y56407086D02*
X39109523Y56359467D01*
D10*
%TO.C,R30*%
X56980000Y46137936D02*
X56980000Y47592064D01*
X58800000Y46137936D02*
X58800000Y47592064D01*
%TO.C,R19*%
X48225000Y69664564D02*
X48225000Y68210436D01*
X50045000Y69664564D02*
X50045000Y68210436D01*
%TO.C,C5*%
X37988748Y78610000D02*
X39411252Y78610000D01*
X37988748Y76790000D02*
X39411252Y76790000D01*
%TO.C,R28*%
X14364564Y61422500D02*
X12910436Y61422500D01*
X14364564Y59602500D02*
X12910436Y59602500D01*
%TO.C,R34*%
X39462936Y51425000D02*
X40917064Y51425000D01*
X39462936Y49605000D02*
X40917064Y49605000D01*
%TO.C,R1*%
X55772936Y78585000D02*
X57227064Y78585000D01*
X55772936Y76765000D02*
X57227064Y76765000D01*
%TO.C,R32*%
X54180000Y46137936D02*
X54180000Y47592064D01*
X56000000Y46137936D02*
X56000000Y47592064D01*
%TO.C,J1*%
X24488000Y5185000D02*
X25538000Y5185000D01*
X24488000Y2685000D02*
X24488000Y5185000D01*
X29538000Y715000D02*
X25658000Y715000D01*
X29658000Y5185000D02*
X29658000Y6175000D01*
X30708000Y5185000D02*
X29658000Y5185000D01*
X30708000Y2685000D02*
X30708000Y5185000D01*
%TO.C,R4*%
X54290000Y91597936D02*
X54290000Y93052064D01*
X56110000Y91597936D02*
X56110000Y93052064D01*
%TO.C,R18*%
X54225000Y68660436D02*
X54225000Y70114564D01*
X56045000Y68660436D02*
X56045000Y70114564D01*
%TO.C,R22*%
X29572936Y55710000D02*
X31027064Y55710000D01*
X29572936Y53890000D02*
X31027064Y53890000D01*
%TO.C,C12*%
X12926248Y58922500D02*
X14348752Y58922500D01*
X12926248Y57102500D02*
X14348752Y57102500D01*
%TO.C,C1*%
X5238748Y21255000D02*
X6661252Y21255000D01*
X5238748Y19435000D02*
X6661252Y19435000D01*
%TO.C,R16*%
X57025000Y68660436D02*
X57025000Y70114564D01*
X58845000Y68660436D02*
X58845000Y70114564D01*
%TO.C,R23*%
X30890000Y68722936D02*
X30890000Y70177064D01*
X32710000Y68722936D02*
X32710000Y70177064D01*
%TO.C,C15*%
X53690000Y15226248D02*
X53690000Y16648752D01*
X55510000Y15226248D02*
X55510000Y16648752D01*
%TO.C,R27*%
X13372936Y74010000D02*
X14827064Y74010000D01*
X13372936Y72190000D02*
X14827064Y72190000D01*
%TO.C,C13*%
X57690000Y37351248D02*
X57690000Y38773752D01*
X59510000Y37351248D02*
X59510000Y38773752D01*
%TO.C,R10*%
X22090000Y86102064D02*
X22090000Y84647936D01*
X23910000Y86102064D02*
X23910000Y84647936D01*
%TO.C,R33*%
X48180000Y47142064D02*
X48180000Y45687936D01*
X50000000Y47142064D02*
X50000000Y45687936D01*
%TO.C,R7*%
X40564564Y84297500D02*
X39110436Y84297500D01*
X40564564Y82477500D02*
X39110436Y82477500D01*
%TO.C,R24*%
X22090000Y63202064D02*
X22090000Y61747936D01*
X23910000Y63202064D02*
X23910000Y61747936D01*
%TO.C,R13*%
X13372936Y96910000D02*
X14827064Y96910000D01*
X13372936Y95090000D02*
X14827064Y95090000D01*
%TO.C,R2*%
X57090000Y91597936D02*
X57090000Y93052064D01*
X58910000Y91597936D02*
X58910000Y93052064D01*
%TO.C,R35*%
X40454564Y38837500D02*
X39000436Y38837500D01*
X40454564Y37017500D02*
X39000436Y37017500D01*
%TO.C,C7*%
X32190000Y82888748D02*
X32190000Y84311252D01*
X34010000Y82888748D02*
X34010000Y84311252D01*
%TO.C,U1*%
X5350000Y18605000D02*
X6150000Y18605000D01*
X5350000Y15485000D02*
X6150000Y15485000D01*
X6950000Y18605000D02*
X6150000Y18605000D01*
X6950000Y15485000D02*
X6150000Y15485000D01*
X5090000Y15205000D02*
X4610000Y15205000D01*
X4850000Y15535000D01*
X5090000Y15205000D01*
G36*
X5090000Y15205000D02*
G01*
X4610000Y15205000D01*
X4850000Y15535000D01*
X5090000Y15205000D01*
G37*
%TO.C,R39*%
X54390000Y24097936D02*
X54390000Y25552064D01*
X56210000Y24097936D02*
X56210000Y25552064D01*
%TO.C,R20*%
X39507936Y73947500D02*
X40962064Y73947500D01*
X39507936Y72127500D02*
X40962064Y72127500D01*
%TO.C,R31*%
X48180000Y40617064D02*
X48180000Y39162936D01*
X50000000Y40617064D02*
X50000000Y39162936D01*
%TO.C,C6*%
X39126248Y81797500D02*
X40548752Y81797500D01*
X39126248Y79977500D02*
X40548752Y79977500D01*
%TO.C,R40*%
X48390000Y25102064D02*
X48390000Y23647936D01*
X50210000Y25102064D02*
X50210000Y23647936D01*
%TO.C,C14*%
X39016248Y36337500D02*
X40438752Y36337500D01*
X39016248Y34517500D02*
X40438752Y34517500D01*
%TO.C,R6*%
X39572936Y95710000D02*
X41027064Y95710000D01*
X39572936Y93890000D02*
X41027064Y93890000D01*
%TO.C,R38*%
X48390000Y18577064D02*
X48390000Y17122936D01*
X50210000Y18577064D02*
X50210000Y17122936D01*
%TO.C,C8*%
X12926248Y81822500D02*
X14348752Y81822500D01*
X12926248Y80002500D02*
X14348752Y80002500D01*
%TO.C,C11*%
X14461252Y55435000D02*
X13038748Y55435000D01*
X14461252Y53615000D02*
X13038748Y53615000D01*
%TO.C,C2*%
X7838748Y14455000D02*
X9261252Y14455000D01*
X7838748Y12635000D02*
X9261252Y12635000D01*
%TO.C,R42*%
X40664564Y16797500D02*
X39210436Y16797500D01*
X40664564Y14977500D02*
X39210436Y14977500D01*
%TO.C,C16*%
X39226248Y14297500D02*
X40648752Y14297500D01*
X39226248Y12477500D02*
X40648752Y12477500D01*
%TO.C,C3*%
X11961252Y21255000D02*
X10538748Y21255000D01*
X11961252Y19435000D02*
X10538748Y19435000D01*
%TO.C,C9*%
X57790000Y60026248D02*
X57790000Y61448752D01*
X59610000Y60026248D02*
X59610000Y61448752D01*
%TO.C,R37*%
X57190000Y24097936D02*
X57190000Y25552064D01*
X59010000Y24097936D02*
X59010000Y25552064D01*
%TO.C,R5*%
X48290000Y92602064D02*
X48290000Y91147936D01*
X50110000Y92602064D02*
X50110000Y91147936D01*
%TO.C,R25*%
X28090000Y68722936D02*
X28090000Y70177064D01*
X29910000Y68722936D02*
X29910000Y70177064D01*
%TO.C,C10*%
X39061248Y58860000D02*
X40483752Y58860000D01*
X39061248Y57040000D02*
X40483752Y57040000D01*
%TO.C,R15*%
X55707936Y55647500D02*
X57162064Y55647500D01*
X55707936Y53827500D02*
X57162064Y53827500D01*
%TO.C,C4*%
X11961252Y24255000D02*
X10538748Y24255000D01*
X11961252Y22435000D02*
X10538748Y22435000D01*
%TO.C,R17*%
X48225000Y63139564D02*
X48225000Y61685436D01*
X50045000Y63139564D02*
X50045000Y61685436D01*
%TO.C,R41*%
X39672936Y29385000D02*
X41127064Y29385000D01*
X39672936Y27565000D02*
X41127064Y27565000D01*
%TO.C,R9*%
X30890000Y91622936D02*
X30890000Y93077064D01*
X32710000Y91622936D02*
X32710000Y93077064D01*
%TO.C,R36*%
X55872936Y11085000D02*
X57327064Y11085000D01*
X55872936Y9265000D02*
X57327064Y9265000D01*
%TO.C,R26*%
X22090000Y69727064D02*
X22090000Y68272936D01*
X23910000Y69727064D02*
X23910000Y68272936D01*
%TO.C,R29*%
X55662936Y33125000D02*
X57117064Y33125000D01*
X55662936Y31305000D02*
X57117064Y31305000D01*
%TO.C,R8*%
X29572936Y78610000D02*
X31027064Y78610000D01*
X29572936Y76790000D02*
X31027064Y76790000D01*
%TO.C,L1*%
X11852064Y18405000D02*
X10647936Y18405000D01*
X11852064Y15685000D02*
X10647936Y15685000D01*
%TO.C,R12*%
X22090000Y92627064D02*
X22090000Y91172936D01*
X23910000Y92627064D02*
X23910000Y91172936D01*
%TO.C,R11*%
X28090000Y91622936D02*
X28090000Y93077064D01*
X29910000Y91622936D02*
X29910000Y93077064D01*
%TO.C,R3*%
X48290000Y86077064D02*
X48290000Y84622936D01*
X50110000Y86077064D02*
X50110000Y84622936D01*
%TO.C,R14*%
X14364564Y84322500D02*
X12910436Y84322500D01*
X14364564Y82502500D02*
X12910436Y82502500D01*
%TO.C,R21*%
X40499564Y61360000D02*
X39045436Y61360000D01*
X40499564Y59540000D02*
X39045436Y59540000D01*
%TD*%
M02*
