%TF.GenerationSoftware,KiCad,Pcbnew,8.0.5*%
%TF.CreationDate,2024-09-29T17:50:40-04:00*%
%TF.ProjectId,BREAD_Slice,42524541-445f-4536-9c69-63652e6b6963,rev?*%
%TF.SameCoordinates,PX74eba40PY8552dc0*%
%TF.FileFunction,Copper,L1,Top*%
%TF.FilePolarity,Positive*%
%FSLAX46Y46*%
G04 Gerber Fmt 4.6, Leading zero omitted, Abs format (unit mm)*
G04 Created by KiCad (PCBNEW 8.0.5) date 2024-09-29 17:50:40*
%MOMM*%
%LPD*%
G01*
G04 APERTURE LIST*
G04 Aperture macros list*
%AMRoundRect*
0 Rectangle with rounded corners*
0 $1 Rounding radius*
0 $2 $3 $4 $5 $6 $7 $8 $9 X,Y pos of 4 corners*
0 Add a 4 corners polygon primitive as box body*
4,1,4,$2,$3,$4,$5,$6,$7,$8,$9,$2,$3,0*
0 Add four circle primitives for the rounded corners*
1,1,$1+$1,$2,$3*
1,1,$1+$1,$4,$5*
1,1,$1+$1,$6,$7*
1,1,$1+$1,$8,$9*
0 Add four rect primitives between the rounded corners*
20,1,$1+$1,$2,$3,$4,$5,0*
20,1,$1+$1,$4,$5,$6,$7,0*
20,1,$1+$1,$6,$7,$8,$9,0*
20,1,$1+$1,$8,$9,$2,$3,0*%
G04 Aperture macros list end*
%TA.AperFunction,ComponentPad*%
%ADD10R,1.600000X1.600000*%
%TD*%
%TA.AperFunction,ComponentPad*%
%ADD11O,1.600000X1.600000*%
%TD*%
%TA.AperFunction,ComponentPad*%
%ADD12R,1.700000X1.700000*%
%TD*%
%TA.AperFunction,ComponentPad*%
%ADD13O,1.700000X1.700000*%
%TD*%
%TA.AperFunction,ComponentPad*%
%ADD14R,2.600000X2.600000*%
%TD*%
%TA.AperFunction,ComponentPad*%
%ADD15C,2.600000*%
%TD*%
%TA.AperFunction,SMDPad,CuDef*%
%ADD16RoundRect,1.000000X-5.000000X-5.000000X5.000000X-5.000000X5.000000X5.000000X-5.000000X5.000000X0*%
%TD*%
%TA.AperFunction,ComponentPad*%
%ADD17R,2.400000X1.600000*%
%TD*%
%TA.AperFunction,ComponentPad*%
%ADD18O,2.400000X1.600000*%
%TD*%
%TA.AperFunction,ComponentPad*%
%ADD19C,1.440000*%
%TD*%
%TA.AperFunction,SMDPad,CuDef*%
%ADD20R,1.651000X1.000000*%
%TD*%
%TA.AperFunction,ViaPad*%
%ADD21C,0.800000*%
%TD*%
%TA.AperFunction,ViaPad*%
%ADD22C,0.500000*%
%TD*%
%TA.AperFunction,Conductor*%
%ADD23C,0.250000*%
%TD*%
%TA.AperFunction,Conductor*%
%ADD24C,0.500000*%
%TD*%
%TA.AperFunction,Conductor*%
%ADD25C,1.500000*%
%TD*%
%TA.AperFunction,Conductor*%
%ADD26C,1.000000*%
%TD*%
G04 APERTURE END LIST*
D10*
%TO.P,A1,1,D1/TX*%
%TO.N,unconnected-(A1-D1{slash}TX-Pad1)*%
X19988000Y39800000D03*
D11*
%TO.P,A1,2,D0/RX*%
%TO.N,unconnected-(A1-D0{slash}RX-Pad2)*%
X19988000Y37260000D03*
%TO.P,A1,3,~{RESET}*%
%TO.N,unconnected-(A1-~{RESET}-Pad3)*%
X19988000Y34720000D03*
%TO.P,A1,4,GND*%
%TO.N,GND*%
X19988000Y32180000D03*
%TO.P,A1,5,D2*%
%TO.N,/E_STOP*%
X19988000Y29640000D03*
%TO.P,A1,6,D3*%
%TO.N,/INT*%
X19988000Y27100000D03*
%TO.P,A1,7,D4*%
%TO.N,/SYNC*%
X19988000Y24560000D03*
%TO.P,A1,8,D5*%
%TO.N,/LED*%
X19988000Y22020000D03*
%TO.P,A1,9,D6*%
%TO.N,unconnected-(A1-D6-Pad9)*%
X19988000Y19480000D03*
%TO.P,A1,10,D7*%
%TO.N,unconnected-(A1-D7-Pad10)*%
X19988000Y16940000D03*
%TO.P,A1,11,D8*%
%TO.N,unconnected-(A1-D8-Pad11)*%
X19988000Y14400000D03*
%TO.P,A1,12,D9*%
%TO.N,unconnected-(A1-D9-Pad12)*%
X19988000Y11860000D03*
%TO.P,A1,13,D10*%
%TO.N,unconnected-(A1-D10-Pad13)*%
X19988000Y9320000D03*
%TO.P,A1,14,D11*%
%TO.N,unconnected-(A1-D11-Pad14)*%
X19988000Y6780000D03*
%TO.P,A1,15,D12*%
%TO.N,unconnected-(A1-D12-Pad15)*%
X19988000Y4240000D03*
%TO.P,A1,16,D13*%
%TO.N,unconnected-(A1-D13-Pad16)*%
X35228000Y4240000D03*
%TO.P,A1,17,3V3*%
%TO.N,unconnected-(A1-3V3-Pad17)*%
X35228000Y6780000D03*
%TO.P,A1,18,AREF*%
%TO.N,unconnected-(A1-AREF-Pad18)*%
X35228000Y9320000D03*
%TO.P,A1,19,A0*%
%TO.N,/CH5_AI*%
X35228000Y11860000D03*
%TO.P,A1,20,A1*%
%TO.N,/CH4_AI*%
X35228000Y14400000D03*
%TO.P,A1,21,A2*%
%TO.N,/CH2_AI*%
X35228000Y16940000D03*
%TO.P,A1,22,A3*%
%TO.N,/CH0_AI*%
X35228000Y19480000D03*
%TO.P,A1,23,A4*%
%TO.N,/I2C_DAT*%
X35228000Y22020000D03*
%TO.P,A1,24,A5*%
%TO.N,/I2C_CLK*%
X35228000Y24560000D03*
%TO.P,A1,25,A6*%
%TO.N,/CH1_AI*%
X35228000Y27100000D03*
%TO.P,A1,26,A7*%
%TO.N,/CH3_AI*%
X35228000Y29640000D03*
%TO.P,A1,27,+5V*%
%TO.N,+5V*%
X35228000Y32180000D03*
%TO.P,A1,28,~{RESET}*%
%TO.N,unconnected-(A1-~{RESET}-Pad28)*%
X35228000Y34720000D03*
%TO.P,A1,29,GND*%
%TO.N,GND*%
X35228000Y37260000D03*
%TO.P,A1,30,VIN*%
%TO.N,unconnected-(A1-VIN-Pad30)*%
X35228000Y39800000D03*
%TD*%
D12*
%TO.P,J2,1,Pin_1*%
%TO.N,GND*%
X3600000Y61450000D03*
D13*
%TO.P,J2,2,Pin_2*%
%TO.N,+12V*%
X3600000Y58910000D03*
%TO.P,J2,3,Pin_3*%
%TO.N,/I2C_CLK*%
X3600000Y56370000D03*
%TO.P,J2,4,Pin_4*%
%TO.N,/I2C_DAT*%
X3600000Y53830000D03*
%TO.P,J2,5,Pin_5*%
%TO.N,GND*%
X3600000Y51290000D03*
%TO.P,J2,6,Pin_6*%
%TO.N,/E_STOP*%
X3600000Y48750000D03*
%TO.P,J2,7,Pin_7*%
%TO.N,/INT*%
X3600000Y46210000D03*
%TO.P,J2,8,Pin_8*%
%TO.N,/SYNC*%
X3600000Y43670000D03*
%TO.P,J2,9,Pin_9*%
%TO.N,+12V*%
X3600000Y41130000D03*
%TO.P,J2,10,Pin_10*%
%TO.N,GND*%
X3600000Y38590000D03*
%TD*%
D14*
%TO.P,J3,1*%
%TO.N,/Ch0_in*%
X64495000Y84400000D03*
D15*
%TO.P,J3,2*%
%TO.N,/Ch1_in*%
X64495000Y79400000D03*
%TD*%
D16*
%TO.P,HS1,1*%
%TO.N,GND*%
X8750000Y18445000D03*
%TD*%
D17*
%TO.P,U2,1*%
%TO.N,Net-(R1-Pad2)*%
X52100000Y77950000D03*
D18*
%TO.P,U2,2,-*%
%TO.N,Net-(U2A--)*%
X52100000Y80490000D03*
%TO.P,U2,3,+*%
%TO.N,Net-(U2A-+)*%
X52100000Y83030000D03*
%TO.P,U2,4,V+*%
%TO.N,+5V*%
X52100000Y85570000D03*
%TO.P,U2,5,+*%
%TO.N,Net-(U2B-+)*%
X52100000Y88110000D03*
%TO.P,U2,6,-*%
%TO.N,Net-(U2B--)*%
X52100000Y90650000D03*
%TO.P,U2,7*%
%TO.N,Net-(U2C-+)*%
X52100000Y93190000D03*
%TO.P,U2,8*%
%TO.N,Net-(R7-Pad1)*%
X44480000Y93190000D03*
%TO.P,U2,9,-*%
%TO.N,Net-(U2C--)*%
X44480000Y90650000D03*
%TO.P,U2,10,+*%
%TO.N,Net-(U2C-+)*%
X44480000Y88110000D03*
%TO.P,U2,11,V-*%
%TO.N,GND*%
X44480000Y85570000D03*
%TO.P,U2,12,+*%
%TO.N,Net-(U2D-+)*%
X44480000Y83030000D03*
%TO.P,U2,13,-*%
%TO.N,/CH0_AI*%
X44480000Y80490000D03*
%TO.P,U2,14*%
X44480000Y77950000D03*
%TD*%
D17*
%TO.P,U5,1*%
%TO.N,Net-(R22-Pad2)*%
X25900000Y55075000D03*
D18*
%TO.P,U5,2,-*%
%TO.N,Net-(U5A--)*%
X25900000Y57615000D03*
%TO.P,U5,3,+*%
%TO.N,Net-(U5A-+)*%
X25900000Y60155000D03*
%TO.P,U5,4,V+*%
%TO.N,+5V*%
X25900000Y62695000D03*
%TO.P,U5,5,+*%
%TO.N,Net-(U5B-+)*%
X25900000Y65235000D03*
%TO.P,U5,6,-*%
%TO.N,Net-(U5B--)*%
X25900000Y67775000D03*
%TO.P,U5,7*%
%TO.N,Net-(U5C-+)*%
X25900000Y70315000D03*
%TO.P,U5,8*%
%TO.N,Net-(R28-Pad1)*%
X18280000Y70315000D03*
%TO.P,U5,9,-*%
%TO.N,Net-(U5C--)*%
X18280000Y67775000D03*
%TO.P,U5,10,+*%
%TO.N,Net-(U5C-+)*%
X18280000Y65235000D03*
%TO.P,U5,11,V-*%
%TO.N,GND*%
X18280000Y62695000D03*
%TO.P,U5,12,+*%
%TO.N,Net-(U5D-+)*%
X18280000Y60155000D03*
%TO.P,U5,13,-*%
%TO.N,/CH3_AI*%
X18280000Y57615000D03*
%TO.P,U5,14*%
X18280000Y55075000D03*
%TD*%
D17*
%TO.P,U4,1*%
%TO.N,Net-(R15-Pad2)*%
X52035000Y55012500D03*
D18*
%TO.P,U4,2,-*%
%TO.N,Net-(U4A--)*%
X52035000Y57552500D03*
%TO.P,U4,3,+*%
%TO.N,Net-(U4A-+)*%
X52035000Y60092500D03*
%TO.P,U4,4,V+*%
%TO.N,+5V*%
X52035000Y62632500D03*
%TO.P,U4,5,+*%
%TO.N,Net-(U4B-+)*%
X52035000Y65172500D03*
%TO.P,U4,6,-*%
%TO.N,Net-(U4B--)*%
X52035000Y67712500D03*
%TO.P,U4,7*%
%TO.N,Net-(U4C-+)*%
X52035000Y70252500D03*
%TO.P,U4,8*%
%TO.N,Net-(R21-Pad1)*%
X44415000Y70252500D03*
%TO.P,U4,9,-*%
%TO.N,Net-(U4C--)*%
X44415000Y67712500D03*
%TO.P,U4,10,+*%
%TO.N,Net-(U4C-+)*%
X44415000Y65172500D03*
%TO.P,U4,11,V-*%
%TO.N,GND*%
X44415000Y62632500D03*
%TO.P,U4,12,+*%
%TO.N,Net-(U4D-+)*%
X44415000Y60092500D03*
%TO.P,U4,13,-*%
%TO.N,/CH2_AI*%
X44415000Y57552500D03*
%TO.P,U4,14*%
X44415000Y55012500D03*
%TD*%
D19*
%TO.P,RV5,1,1*%
%TO.N,+5V*%
X56335000Y64137500D03*
%TO.P,RV5,2,2*%
%TO.N,Net-(U4A-+)*%
X56335000Y61597500D03*
%TO.P,RV5,3,3*%
%TO.N,GND*%
X56335000Y59057500D03*
%TD*%
D14*
%TO.P,J6,1*%
%TO.N,+5V*%
X64495000Y48820000D03*
D15*
%TO.P,J6,2*%
%TO.N,GND*%
X64495000Y43820000D03*
%TD*%
D14*
%TO.P,J7,1*%
%TO.N,+5V*%
X64495000Y36960000D03*
D15*
%TO.P,J7,2*%
%TO.N,GND*%
X64495000Y31960000D03*
%TD*%
D17*
%TO.P,U6,1*%
%TO.N,Net-(R29-Pad2)*%
X51990000Y32490000D03*
D18*
%TO.P,U6,2,-*%
%TO.N,Net-(U6A--)*%
X51990000Y35030000D03*
%TO.P,U6,3,+*%
%TO.N,Net-(U6A-+)*%
X51990000Y37570000D03*
%TO.P,U6,4,V+*%
%TO.N,+5V*%
X51990000Y40110000D03*
%TO.P,U6,5,+*%
%TO.N,Net-(U6B-+)*%
X51990000Y42650000D03*
%TO.P,U6,6,-*%
%TO.N,Net-(U6B--)*%
X51990000Y45190000D03*
%TO.P,U6,7*%
%TO.N,Net-(U6C-+)*%
X51990000Y47730000D03*
%TO.P,U6,8*%
%TO.N,Net-(R35-Pad1)*%
X44370000Y47730000D03*
%TO.P,U6,9,-*%
%TO.N,Net-(U6C--)*%
X44370000Y45190000D03*
%TO.P,U6,10,+*%
%TO.N,Net-(U6C-+)*%
X44370000Y42650000D03*
%TO.P,U6,11,V-*%
%TO.N,GND*%
X44370000Y40110000D03*
%TO.P,U6,12,+*%
%TO.N,Net-(U6D-+)*%
X44370000Y37570000D03*
%TO.P,U6,13,-*%
%TO.N,/CH4_AI*%
X44370000Y35030000D03*
%TO.P,U6,14*%
X44370000Y32490000D03*
%TD*%
D19*
%TO.P,RV2,1,1*%
%TO.N,Net-(R7-Pad1)*%
X40100000Y92275000D03*
%TO.P,RV2,2,2*%
%TO.N,Net-(R6-Pad2)*%
X40100000Y89735000D03*
%TO.P,RV2,3,3*%
%TO.N,GND*%
X40100000Y87195000D03*
%TD*%
D20*
%TO.P,D1,1,VDD*%
%TO.N,+5V*%
X48123000Y5267200D03*
%TO.P,D1,2,DOUT*%
%TO.N,unconnected-(D1-DOUT-Pad2)*%
X48123000Y2067200D03*
%TO.P,D1,3,VSS*%
%TO.N,GND*%
X53277000Y2067200D03*
%TO.P,D1,4,DIN*%
%TO.N,/LED*%
X53277000Y5267200D03*
%TD*%
D19*
%TO.P,RV11,1,1*%
%TO.N,+5V*%
X56500000Y19575000D03*
%TO.P,RV11,2,2*%
%TO.N,Net-(U7A-+)*%
X56500000Y17035000D03*
%TO.P,RV11,3,3*%
%TO.N,GND*%
X56500000Y14495000D03*
%TD*%
D14*
%TO.P,J5,1*%
%TO.N,/Ch4_in*%
X64495000Y60680000D03*
D15*
%TO.P,J5,2*%
%TO.N,/Ch5_in*%
X64495000Y55680000D03*
%TD*%
D19*
%TO.P,RV9,1,1*%
%TO.N,+5V*%
X56290000Y41615000D03*
%TO.P,RV9,2,2*%
%TO.N,Net-(U6A-+)*%
X56290000Y39075000D03*
%TO.P,RV9,3,3*%
%TO.N,GND*%
X56290000Y36535000D03*
%TD*%
%TO.P,RV10,1,1*%
%TO.N,Net-(R35-Pad1)*%
X39990000Y46815000D03*
%TO.P,RV10,2,2*%
%TO.N,Net-(R34-Pad2)*%
X39990000Y44275000D03*
%TO.P,RV10,3,3*%
%TO.N,GND*%
X39990000Y41735000D03*
%TD*%
%TO.P,RV8,1,1*%
%TO.N,Net-(R28-Pad1)*%
X13900000Y69400000D03*
%TO.P,RV8,2,2*%
%TO.N,Net-(R27-Pad2)*%
X13900000Y66860000D03*
%TO.P,RV8,3,3*%
%TO.N,GND*%
X13900000Y64320000D03*
%TD*%
%TO.P,RV7,1,1*%
%TO.N,+5V*%
X30200000Y64200000D03*
%TO.P,RV7,2,2*%
%TO.N,Net-(U5A-+)*%
X30200000Y61660000D03*
%TO.P,RV7,3,3*%
%TO.N,GND*%
X30200000Y59120000D03*
%TD*%
D14*
%TO.P,J4,1*%
%TO.N,/Ch2_in*%
X64495000Y72540000D03*
D15*
%TO.P,J4,2*%
%TO.N,/Ch3_in*%
X64495000Y67540000D03*
%TD*%
D17*
%TO.P,U7,1*%
%TO.N,Net-(R36-Pad2)*%
X52200000Y10450000D03*
D18*
%TO.P,U7,2,-*%
%TO.N,Net-(U7A--)*%
X52200000Y12990000D03*
%TO.P,U7,3,+*%
%TO.N,Net-(U7A-+)*%
X52200000Y15530000D03*
%TO.P,U7,4,V+*%
%TO.N,+5V*%
X52200000Y18070000D03*
%TO.P,U7,5,+*%
%TO.N,Net-(U7B-+)*%
X52200000Y20610000D03*
%TO.P,U7,6,-*%
%TO.N,Net-(U7B--)*%
X52200000Y23150000D03*
%TO.P,U7,7*%
%TO.N,Net-(U7C-+)*%
X52200000Y25690000D03*
%TO.P,U7,8*%
%TO.N,Net-(R42-Pad1)*%
X44580000Y25690000D03*
%TO.P,U7,9,-*%
%TO.N,Net-(U7C--)*%
X44580000Y23150000D03*
%TO.P,U7,10,+*%
%TO.N,Net-(U7C-+)*%
X44580000Y20610000D03*
%TO.P,U7,11,V-*%
%TO.N,GND*%
X44580000Y18070000D03*
%TO.P,U7,12,+*%
%TO.N,Net-(U7D-+)*%
X44580000Y15530000D03*
%TO.P,U7,13,-*%
%TO.N,/CH5_AI*%
X44580000Y12990000D03*
%TO.P,U7,14*%
X44580000Y10450000D03*
%TD*%
D19*
%TO.P,RV4,1,1*%
%TO.N,Net-(R14-Pad1)*%
X13900000Y92300000D03*
%TO.P,RV4,2,2*%
%TO.N,Net-(R13-Pad2)*%
X13900000Y89760000D03*
%TO.P,RV4,3,3*%
%TO.N,GND*%
X13900000Y87220000D03*
%TD*%
%TO.P,RV1,1,1*%
%TO.N,+5V*%
X56400000Y87075000D03*
%TO.P,RV1,2,2*%
%TO.N,Net-(U2A-+)*%
X56400000Y84535000D03*
%TO.P,RV1,3,3*%
%TO.N,GND*%
X56400000Y81995000D03*
%TD*%
D17*
%TO.P,U3,1*%
%TO.N,Net-(R10-Pad1)*%
X25900000Y77975000D03*
D18*
%TO.P,U3,2,-*%
%TO.N,Net-(U3A--)*%
X25900000Y80515000D03*
%TO.P,U3,3,+*%
%TO.N,Net-(U3A-+)*%
X25900000Y83055000D03*
%TO.P,U3,4,V+*%
%TO.N,+5V*%
X25900000Y85595000D03*
%TO.P,U3,5,+*%
%TO.N,Net-(U3B-+)*%
X25900000Y88135000D03*
%TO.P,U3,6,-*%
%TO.N,Net-(U3B--)*%
X25900000Y90675000D03*
%TO.P,U3,7*%
%TO.N,Net-(U3C-+)*%
X25900000Y93215000D03*
%TO.P,U3,8*%
%TO.N,Net-(R14-Pad1)*%
X18280000Y93215000D03*
%TO.P,U3,9,-*%
%TO.N,Net-(U3C--)*%
X18280000Y90675000D03*
%TO.P,U3,10,+*%
%TO.N,Net-(U3C-+)*%
X18280000Y88135000D03*
%TO.P,U3,11,V-*%
%TO.N,GND*%
X18280000Y85595000D03*
%TO.P,U3,12,+*%
%TO.N,Net-(U3D-+)*%
X18280000Y83055000D03*
%TO.P,U3,13,-*%
%TO.N,/CH1_AI*%
X18280000Y80515000D03*
%TO.P,U3,14*%
X18280000Y77975000D03*
%TD*%
D19*
%TO.P,RV3,1,1*%
%TO.N,+5V*%
X30200000Y87100000D03*
%TO.P,RV3,2,2*%
%TO.N,Net-(U3A-+)*%
X30200000Y84560000D03*
%TO.P,RV3,3,3*%
%TO.N,GND*%
X30200000Y82020000D03*
%TD*%
D14*
%TO.P,J8,1*%
%TO.N,+5V*%
X64495000Y25100000D03*
D15*
%TO.P,J8,2*%
%TO.N,GND*%
X64495000Y20100000D03*
%TD*%
D19*
%TO.P,RV6,1,1*%
%TO.N,Net-(R21-Pad1)*%
X40035000Y69337500D03*
%TO.P,RV6,2,2*%
%TO.N,Net-(R20-Pad2)*%
X40035000Y66797500D03*
%TO.P,RV6,3,3*%
%TO.N,GND*%
X40035000Y64257500D03*
%TD*%
%TO.P,RV12,1,1*%
%TO.N,Net-(R42-Pad1)*%
X40200000Y24775000D03*
%TO.P,RV12,2,2*%
%TO.N,Net-(R41-Pad2)*%
X40200000Y22235000D03*
%TO.P,RV12,3,3*%
%TO.N,GND*%
X40200000Y19695000D03*
%TD*%
D21*
%TO.N,GND*%
X14250000Y18995000D03*
D22*
X9750000Y21845000D03*
X8550000Y19545000D03*
D21*
X14250000Y13995000D03*
D22*
X8150000Y18845000D03*
X8550000Y21045000D03*
D21*
X3550000Y16595000D03*
X50200000Y2100000D03*
X14250000Y21895000D03*
X7350000Y23595000D03*
D22*
X6150000Y16145000D03*
D21*
X3750000Y13345000D03*
D22*
X7450000Y21845000D03*
X7250000Y18845000D03*
D21*
%TO.N,+5V*%
X22860000Y7300000D03*
X41600000Y32100000D03*
%TO.N,/CH4_AI*%
X42700000Y19300000D03*
%TO.N,/Ch1_in*%
X33500000Y94900000D03*
%TD*%
D23*
%TO.N,/CH3_AI*%
X35046396Y29640000D02*
X35228000Y29640000D01*
X18280000Y55075000D02*
X18280000Y46406396D01*
X18280000Y46406396D02*
X35046396Y29640000D01*
%TO.N,/CH1_AI*%
X16400000Y75600000D02*
X18280000Y77480000D01*
X8800000Y73100000D02*
X11300000Y75600000D01*
X8800000Y55250000D02*
X8800000Y73100000D01*
X32263000Y30065000D02*
X32263000Y31787000D01*
X32263000Y31787000D02*
X8800000Y55250000D01*
X11300000Y75600000D02*
X16400000Y75600000D01*
X35228000Y27100000D02*
X32263000Y30065000D01*
X18280000Y77480000D02*
X18280000Y77975000D01*
D24*
%TO.N,GND*%
X67700000Y28755000D02*
X67700000Y23305000D01*
X67700000Y23305000D02*
X64495000Y20100000D01*
D23*
X53276800Y2067000D02*
X53277000Y2067200D01*
D24*
X64495000Y31960000D02*
X67700000Y28755000D01*
X50233000Y2067000D02*
X53276800Y2067000D01*
D23*
X8550000Y19545000D02*
X8750000Y19345000D01*
D24*
X50200000Y2100000D02*
X50233000Y2067000D01*
X53276800Y2067000D02*
X53277000Y2067000D01*
D23*
%TO.N,+5V*%
X64495000Y36146700D02*
X64495000Y36960000D01*
X48122800Y5267000D02*
X48123000Y5267200D01*
X64495000Y48006700D02*
X64495000Y48820000D01*
X48700000Y34200000D02*
X48700000Y37600000D01*
D24*
X47677000Y5267000D02*
X44310000Y1900000D01*
D23*
X43100000Y30600000D02*
X45100000Y30600000D01*
D24*
X44310000Y1900000D02*
X28260000Y1900000D01*
D23*
X48700000Y37600000D02*
X51210000Y40110000D01*
D24*
X48123000Y5267000D02*
X48122800Y5267000D01*
D23*
X51210000Y40110000D02*
X51990000Y40110000D01*
X41600000Y32100000D02*
X43100000Y30600000D01*
D25*
X35208000Y32180000D02*
X35228000Y32180000D01*
D24*
X48122800Y5267000D02*
X47677000Y5267000D01*
X28260000Y1900000D02*
X22860000Y7300000D01*
D23*
X45100000Y30600000D02*
X48700000Y34200000D01*
D24*
%TO.N,/LED*%
X20068000Y22020000D02*
X21688000Y20400000D01*
X21688000Y6900000D02*
X27388000Y1200000D01*
X47000000Y3600000D02*
X51610000Y3600000D01*
X27388000Y1200000D02*
X44600000Y1200000D01*
X44600000Y1200000D02*
X47000000Y3600000D01*
X51610000Y3600000D02*
X53277000Y5267000D01*
X19988000Y22020000D02*
X20068000Y22020000D01*
X21688000Y20400000D02*
X21688000Y6900000D01*
D23*
X53277000Y5267000D02*
X53277000Y5267200D01*
D24*
%TO.N,/I2C_CLK*%
X17600000Y42400000D02*
X3630000Y56370000D01*
X20740000Y42400000D02*
X17600000Y42400000D01*
X34240000Y24560000D02*
X31688000Y27112000D01*
X3630000Y56370000D02*
X3600000Y56370000D01*
X31688000Y27112000D02*
X31688000Y31452000D01*
X35228000Y24560000D02*
X34240000Y24560000D01*
X31688000Y31452000D02*
X20740000Y42400000D01*
%TO.N,/I2C_DAT*%
X3600000Y53830000D02*
X3600000Y53296000D01*
X30988000Y26260000D02*
X35228000Y22020000D01*
X3600000Y53296000D02*
X15196000Y41700000D01*
X15196000Y41700000D02*
X20450000Y41700000D01*
X30988000Y31162000D02*
X30988000Y26260000D01*
X20450000Y41700000D02*
X30988000Y31162000D01*
%TO.N,/SYNC*%
X5800000Y41470000D02*
X5800000Y35400000D01*
X5800000Y35400000D02*
X8900000Y32300000D01*
X12248000Y32300000D02*
X19988000Y24560000D01*
X8900000Y32300000D02*
X12248000Y32300000D01*
X3600000Y43670000D02*
X5800000Y41470000D01*
%TO.N,/E_STOP*%
X7200000Y35980000D02*
X9480000Y33700000D01*
X3600000Y48750000D02*
X4250000Y48750000D01*
X9480000Y33700000D02*
X15928000Y33700000D01*
X7200000Y45800000D02*
X7200000Y35980000D01*
X4250000Y48750000D02*
X7200000Y45800000D01*
X15928000Y33700000D02*
X19988000Y29640000D01*
D23*
%TO.N,/CH0_AI*%
X35228000Y19480000D02*
X38350000Y22602000D01*
X38350000Y22602000D02*
X38350000Y71820000D01*
X38350000Y71820000D02*
X44480000Y77950000D01*
%TO.N,/CH4_AI*%
X35228000Y14400000D02*
X38328000Y17500000D01*
X40900000Y17500000D02*
X42700000Y19300000D01*
X38328000Y17500000D02*
X40900000Y17500000D01*
%TO.N,/CH2_AI*%
X35228000Y16940000D02*
X38800000Y20512000D01*
X38800000Y49397500D02*
X44415000Y55012500D01*
X38800000Y20512000D02*
X38800000Y49397500D01*
D25*
%TO.N,+12V*%
X1800000Y57115600D02*
X1800000Y42924400D01*
X3600000Y58910000D02*
X3594000Y58910000D01*
D26*
X3600000Y58910000D02*
X3610000Y58900000D01*
D25*
X1800000Y42924400D02*
X3594000Y41130000D01*
X3594000Y58910000D02*
X1800000Y57115600D01*
X3594000Y41130000D02*
X3600000Y41130000D01*
D24*
%TO.N,/INT*%
X6500000Y35690000D02*
X9190000Y33000000D01*
X14088000Y33000000D02*
X19988000Y27100000D01*
X3600000Y46210000D02*
X6500000Y43310000D01*
X9190000Y33000000D02*
X14088000Y33000000D01*
X6500000Y43310000D02*
X6500000Y35690000D01*
D23*
%TO.N,/CH5_AI*%
X44580000Y12990000D02*
X44580000Y11700000D01*
X44580000Y11800000D02*
X44520000Y11860000D01*
X44580000Y11700000D02*
X44580000Y10450000D01*
X44520000Y11860000D02*
X35228000Y11860000D01*
%TO.N,/Ch1_in*%
X56700000Y94000000D02*
X56700000Y89033477D01*
X64495000Y81238477D02*
X64495000Y79400000D01*
X56700000Y89033477D02*
X64495000Y81238477D01*
X55800000Y94900000D02*
X56700000Y94000000D01*
X33500000Y94900000D02*
X55800000Y94900000D01*
%TD*%
M02*
