M48
; DRILL file {KiCad 8.0.5} date 2024-09-29T17:50:41-0400
; FORMAT={-:-/ absolute / inch / decimal}
; #@! TF.CreationDate,2024-09-29T17:50:41-04:00
; #@! TF.GenerationSoftware,Kicad,Pcbnew,8.0.5
; #@! TF.FileFunction,Plated,1,2,PTH
FMAT,2
INCH
; #@! TA.AperFunction,Plated,PTH,ViaDrill
T1C0.0079
; #@! TA.AperFunction,Plated,PTH,ViaDrill
T2C0.0157
; #@! TA.AperFunction,Plated,PTH,ComponentDrill
T3C0.0315
; #@! TA.AperFunction,Plated,PTH,ComponentDrill
T4C0.0394
; #@! TA.AperFunction,Plated,PTH,ComponentDrill
T5C0.0512
%
G90
G05
T1
X0.2421Y0.6356
X0.2854Y0.7419
X0.2933Y0.86
X0.3209Y0.7419
X0.3366Y0.8285
X0.3366Y0.7695
X0.3839Y0.86
T2
X0.1398Y0.6533
X0.1476Y0.5254
X0.2894Y0.9289
X0.561Y0.862
X0.561Y0.7478
X0.561Y0.551
X0.9Y0.2874
X1.3189Y3.7362
X1.6378Y1.2638
X1.6811Y0.7598
X1.9764Y0.0827
T3
X0.5472Y3.6339
X0.5472Y3.5339
X0.5472Y3.4339
X0.5472Y2.7323
X0.5472Y2.6323
X0.5472Y2.5323
X0.7197Y3.6699
X0.7197Y3.5699
X0.7197Y3.4699
X0.7197Y3.3699
X0.7197Y3.2699
X0.7197Y3.1699
X0.7197Y3.0699
X0.7197Y2.7683
X0.7197Y2.6683
X0.7197Y2.5683
X0.7197Y2.4683
X0.7197Y2.3683
X0.7197Y2.2683
X0.7197Y2.1683
X1.0197Y3.6699
X1.0197Y3.5699
X1.0197Y3.4699
X1.0197Y3.3699
X1.0197Y3.2699
X1.0197Y3.1699
X1.0197Y3.0699
X1.0197Y2.7683
X1.0197Y2.6683
X1.0197Y2.5683
X1.0197Y2.4683
X1.0197Y2.3683
X1.0197Y2.2683
X1.0197Y2.1683
X1.189Y3.4291
X1.189Y3.3291
X1.189Y3.2291
X1.189Y2.5276
X1.189Y2.4276
X1.189Y2.3276
X1.5744Y1.8431
X1.5744Y1.7431
X1.5744Y1.6431
X1.5762Y2.7298
X1.5762Y2.6298
X1.5762Y2.5298
X1.5787Y3.6329
X1.5787Y3.5329
X1.5787Y3.4329
X1.5827Y0.9754
X1.5827Y0.8754
X1.5827Y0.7754
X1.7469Y1.8791
X1.7469Y1.7791
X1.7469Y1.6791
X1.7469Y1.5791
X1.7469Y1.4791
X1.7469Y1.3791
X1.7469Y1.2791
X1.7486Y2.7658
X1.7486Y2.6658
X1.7486Y2.5658
X1.7486Y2.4658
X1.7486Y2.3658
X1.7486Y2.2658
X1.7486Y2.1658
X1.7512Y3.6689
X1.7512Y3.5689
X1.7512Y3.4689
X1.7512Y3.3689
X1.7512Y3.2689
X1.7512Y3.1689
X1.7512Y3.0689
X1.7551Y1.0114
X1.7551Y0.9114
X1.7551Y0.8114
X1.7551Y0.7114
X1.7551Y0.6114
X1.7551Y0.5114
X1.7551Y0.4114
X2.0469Y1.8791
X2.0469Y1.7791
X2.0469Y1.6791
X2.0469Y1.5791
X2.0469Y1.4791
X2.0469Y1.3791
X2.0469Y1.2791
X2.0486Y2.7658
X2.0486Y2.6658
X2.0486Y2.5658
X2.0486Y2.4658
X2.0486Y2.3658
X2.0486Y2.2658
X2.0486Y2.1658
X2.0512Y3.6689
X2.0512Y3.5689
X2.0512Y3.4689
X2.0512Y3.3689
X2.0512Y3.2689
X2.0512Y3.1689
X2.0512Y3.0689
X2.0551Y1.0114
X2.0551Y0.9114
X2.0551Y0.8114
X2.0551Y0.7114
X2.0551Y0.6114
X2.0551Y0.5114
X2.0551Y0.4114
X2.2161Y1.6384
X2.2161Y1.5384
X2.2161Y1.4384
X2.2179Y2.5251
X2.2179Y2.4251
X2.2179Y2.3251
X2.2205Y3.4281
X2.2205Y3.3281
X2.2205Y3.2281
X2.2244Y0.7707
X2.2244Y0.6707
X2.2244Y0.5707
T4
X0.1417Y2.4193
X0.1417Y2.3193
X0.1417Y2.2193
X0.1417Y2.1193
X0.1417Y2.0193
X0.1417Y1.9193
X0.1417Y1.8193
X0.1417Y1.7193
X0.1417Y1.6193
X0.1417Y1.5193
X0.7869Y1.5669
X0.7869Y1.4669
X0.7869Y1.3669
X0.7869Y1.2669
X0.7869Y1.1669
X0.7869Y1.0669
X0.7869Y0.9669
X0.7869Y0.8669
X0.7869Y0.7669
X0.7869Y0.6669
X0.7869Y0.5669
X0.7869Y0.4669
X0.7869Y0.3669
X0.7869Y0.2669
X0.7869Y0.1669
X1.3869Y1.5669
X1.3869Y1.4669
X1.3869Y1.3669
X1.3869Y1.2669
X1.3869Y1.1669
X1.3869Y1.0669
X1.3869Y0.9669
X1.3869Y0.8669
X1.3869Y0.7669
X1.3869Y0.6669
X1.3869Y0.5669
X1.3869Y0.4669
X1.3869Y0.3669
X1.3869Y0.2669
X1.3869Y0.1669
T5
X2.5392Y3.3228
X2.5392Y3.126
X2.5392Y2.8559
X2.5392Y2.6591
X2.5392Y2.389
X2.5392Y2.1921
X2.5392Y1.922
X2.5392Y1.7252
X2.5392Y1.4551
X2.5392Y1.2583
X2.5392Y0.9882
X2.5392Y0.7913
M30
