%TF.GenerationSoftware,KiCad,Pcbnew,(6.0.4)*%
%TF.CreationDate,2023-07-24T12:45:13-04:00*%
%TF.ProjectId,BREAD_Slice,42524541-445f-4536-9c69-63652e6b6963,rev?*%
%TF.SameCoordinates,PX74eba40PY8552dc0*%
%TF.FileFunction,Soldermask,Top*%
%TF.FilePolarity,Negative*%
%FSLAX46Y46*%
G04 Gerber Fmt 4.6, Leading zero omitted, Abs format (unit mm)*
G04 Created by KiCad (PCBNEW (6.0.4)) date 2023-07-24 12:45:13*
%MOMM*%
%LPD*%
G01*
G04 APERTURE LIST*
G04 Aperture macros list*
%AMRoundRect*
0 Rectangle with rounded corners*
0 $1 Rounding radius*
0 $2 $3 $4 $5 $6 $7 $8 $9 X,Y pos of 4 corners*
0 Add a 4 corners polygon primitive as box body*
4,1,4,$2,$3,$4,$5,$6,$7,$8,$9,$2,$3,0*
0 Add four circle primitives for the rounded corners*
1,1,$1+$1,$2,$3*
1,1,$1+$1,$4,$5*
1,1,$1+$1,$6,$7*
1,1,$1+$1,$8,$9*
0 Add four rect primitives between the rounded corners*
20,1,$1+$1,$2,$3,$4,$5,0*
20,1,$1+$1,$4,$5,$6,$7,0*
20,1,$1+$1,$6,$7,$8,$9,0*
20,1,$1+$1,$8,$9,$2,$3,0*%
G04 Aperture macros list end*
%ADD10C,5.700000*%
%ADD11RoundRect,0.050000X-0.800000X-0.800000X0.800000X-0.800000X0.800000X0.800000X-0.800000X0.800000X0*%
%ADD12O,1.700000X1.700000*%
%ADD13RoundRect,0.050000X-0.850000X-0.850000X0.850000X-0.850000X0.850000X0.850000X-0.850000X0.850000X0*%
%ADD14O,1.800000X1.800000*%
%ADD15RoundRect,0.050000X-1.250000X1.250000X-1.250000X-1.250000X1.250000X-1.250000X1.250000X1.250000X0*%
%ADD16C,2.600000*%
%ADD17C,1.624000*%
%ADD18RoundRect,0.050000X-1.200000X-0.800000X1.200000X-0.800000X1.200000X0.800000X-1.200000X0.800000X0*%
%ADD19O,2.500000X1.700000*%
G04 APERTURE END LIST*
D10*
%TO.C,H1*%
X5000000Y95000000D03*
%TD*%
%TO.C,H2*%
X65000000Y95000000D03*
%TD*%
%TO.C,H3*%
X5000000Y5000000D03*
%TD*%
%TO.C,H4*%
X65000000Y5000000D03*
%TD*%
D11*
%TO.C,A1*%
X12400000Y39800000D03*
D12*
X12400000Y37260000D03*
X12400000Y34720000D03*
X12400000Y32180000D03*
X12400000Y29640000D03*
X12400000Y27100000D03*
X12400000Y24560000D03*
X12400000Y22020000D03*
X12400000Y19480000D03*
X12400000Y16940000D03*
X12400000Y14400000D03*
X12400000Y11860000D03*
X12400000Y9320000D03*
X12400000Y6780000D03*
X12400000Y4240000D03*
X27640000Y4240000D03*
X27640000Y6780000D03*
X27640000Y9320000D03*
X27640000Y11860000D03*
X27640000Y14400000D03*
X27640000Y16940000D03*
X27640000Y19480000D03*
X27640000Y22020000D03*
X27640000Y24560000D03*
X27640000Y27100000D03*
X27640000Y29640000D03*
X27640000Y32180000D03*
X27640000Y34720000D03*
X27640000Y37260000D03*
X27640000Y39800000D03*
%TD*%
D13*
%TO.C,J1*%
X7000000Y61000000D03*
D14*
X7000000Y58460000D03*
X7000000Y55920000D03*
X7000000Y53380000D03*
X7000000Y50840000D03*
X7000000Y48300000D03*
X7000000Y45760000D03*
X7000000Y43220000D03*
X7000000Y40680000D03*
X7000000Y38140000D03*
%TD*%
D15*
%TO.C,J2*%
X64500000Y65960000D03*
D16*
X64500000Y60960000D03*
%TD*%
D15*
%TO.C,J3*%
X64500000Y55880000D03*
D16*
X64500000Y50880000D03*
%TD*%
D15*
%TO.C,J4*%
X64500000Y45720000D03*
D16*
X64500000Y40720000D03*
%TD*%
D15*
%TO.C,J5*%
X64500000Y35560000D03*
D16*
X64500000Y30560000D03*
%TD*%
D17*
%TO.C,RV1*%
X14300000Y87740000D03*
X14300000Y90280000D03*
X14300000Y92820000D03*
%TD*%
%TO.C,RV7*%
X32210000Y86700000D03*
X32210000Y89240000D03*
X32210000Y91780000D03*
%TD*%
D18*
%TO.C,U1*%
X19000000Y95360000D03*
D19*
X19000000Y92820000D03*
X19000000Y90280000D03*
X19000000Y87740000D03*
X19000000Y85200000D03*
X19000000Y82660000D03*
X19000000Y80120000D03*
X26620000Y80120000D03*
X26620000Y82660000D03*
X26620000Y85200000D03*
X26620000Y87740000D03*
X26620000Y90280000D03*
X26620000Y92820000D03*
X26620000Y95360000D03*
%TD*%
D17*
%TO.C,RV2*%
X38300000Y87740000D03*
X38300000Y90280000D03*
X38300000Y92820000D03*
%TD*%
%TO.C,RV8*%
X56210000Y86700000D03*
X56210000Y89240000D03*
X56210000Y91780000D03*
%TD*%
D18*
%TO.C,U2*%
X43000000Y95360000D03*
D19*
X43000000Y92820000D03*
X43000000Y90280000D03*
X43000000Y87740000D03*
X43000000Y85200000D03*
X43000000Y82660000D03*
X43000000Y80120000D03*
X50620000Y80120000D03*
X50620000Y82660000D03*
X50620000Y85200000D03*
X50620000Y87740000D03*
X50620000Y90280000D03*
X50620000Y92820000D03*
X50620000Y95360000D03*
%TD*%
D17*
%TO.C,RV3*%
X14300000Y63740000D03*
X14300000Y66280000D03*
X14300000Y68820000D03*
%TD*%
%TO.C,RV9*%
X32210000Y62700000D03*
X32210000Y65240000D03*
X32210000Y67780000D03*
%TD*%
D18*
%TO.C,U3*%
X19000000Y71360000D03*
D19*
X19000000Y68820000D03*
X19000000Y66280000D03*
X19000000Y63740000D03*
X19000000Y61200000D03*
X19000000Y58660000D03*
X19000000Y56120000D03*
X26620000Y56120000D03*
X26620000Y58660000D03*
X26620000Y61200000D03*
X26620000Y63740000D03*
X26620000Y66280000D03*
X26620000Y68820000D03*
X26620000Y71360000D03*
%TD*%
D17*
%TO.C,RV4*%
X38300000Y63740000D03*
X38300000Y66280000D03*
X38300000Y68820000D03*
%TD*%
%TO.C,RV10*%
X56210000Y62700000D03*
X56210000Y65240000D03*
X56210000Y67780000D03*
%TD*%
D18*
%TO.C,U4*%
X43000000Y71360000D03*
D19*
X43000000Y68820000D03*
X43000000Y66280000D03*
X43000000Y63740000D03*
X43000000Y61200000D03*
X43000000Y58660000D03*
X43000000Y56120000D03*
X50620000Y56120000D03*
X50620000Y58660000D03*
X50620000Y61200000D03*
X50620000Y63740000D03*
X50620000Y66280000D03*
X50620000Y68820000D03*
X50620000Y71360000D03*
%TD*%
D17*
%TO.C,RV5*%
X38300000Y40740000D03*
X38300000Y43280000D03*
X38300000Y45820000D03*
%TD*%
%TO.C,RV11*%
X56210000Y39700000D03*
X56210000Y42240000D03*
X56210000Y44780000D03*
%TD*%
D18*
%TO.C,U5*%
X43000000Y48360000D03*
D19*
X43000000Y45820000D03*
X43000000Y43280000D03*
X43000000Y40740000D03*
X43000000Y38200000D03*
X43000000Y35660000D03*
X43000000Y33120000D03*
X50620000Y33120000D03*
X50620000Y35660000D03*
X50620000Y38200000D03*
X50620000Y40740000D03*
X50620000Y43280000D03*
X50620000Y45820000D03*
X50620000Y48360000D03*
%TD*%
D17*
%TO.C,RV6*%
X38300000Y16740000D03*
X38300000Y19280000D03*
X38300000Y21820000D03*
%TD*%
%TO.C,RV12*%
X56210000Y15700000D03*
X56210000Y18240000D03*
X56210000Y20780000D03*
%TD*%
D18*
%TO.C,U6*%
X43000000Y24360000D03*
D19*
X43000000Y21820000D03*
X43000000Y19280000D03*
X43000000Y16740000D03*
X43000000Y14200000D03*
X43000000Y11660000D03*
X43000000Y9120000D03*
X50620000Y9120000D03*
X50620000Y11660000D03*
X50620000Y14200000D03*
X50620000Y16740000D03*
X50620000Y19280000D03*
X50620000Y21820000D03*
X50620000Y24360000D03*
%TD*%
M02*
