%TF.GenerationSoftware,KiCad,Pcbnew,(6.0.4)*%
%TF.CreationDate,2023-07-24T12:45:13-04:00*%
%TF.ProjectId,BREAD_Slice,42524541-445f-4536-9c69-63652e6b6963,rev?*%
%TF.SameCoordinates,PX74eba40PY8552dc0*%
%TF.FileFunction,Paste,Bot*%
%TF.FilePolarity,Positive*%
%FSLAX46Y46*%
G04 Gerber Fmt 4.6, Leading zero omitted, Abs format (unit mm)*
G04 Created by KiCad (PCBNEW (6.0.4)) date 2023-07-24 12:45:13*
%MOMM*%
%LPD*%
G01*
G04 APERTURE LIST*
%ADD10R,2.350000X2.770000*%
%ADD11R,1.600000X2.000000*%
%ADD12R,2.000000X1.600000*%
%ADD13R,1.700000X2.000000*%
%ADD14R,2.000000X1.700000*%
G04 APERTURE END LIST*
D10*
%TO.C,C2*%
X31000000Y32430000D03*
X31000000Y37570000D03*
%TD*%
%TO.C,C1*%
X4000000Y39570000D03*
X4000000Y34430000D03*
%TD*%
D11*
%TO.C,C3*%
X13570000Y84720000D03*
X13570000Y80720000D03*
%TD*%
D12*
%TO.C,C9*%
X29440000Y95390000D03*
X33440000Y95390000D03*
%TD*%
D13*
%TO.C,R1*%
X21750000Y91570000D03*
X21750000Y95570000D03*
%TD*%
%TO.C,R7*%
X16120000Y80720000D03*
X16120000Y84720000D03*
%TD*%
D14*
%TO.C,R8*%
X21360000Y98040000D03*
X25360000Y98040000D03*
%TD*%
D13*
%TO.C,R19*%
X21790000Y81080000D03*
X21790000Y85080000D03*
%TD*%
%TO.C,R25*%
X29650000Y89770000D03*
X29650000Y85770000D03*
%TD*%
%TO.C,R31*%
X29660000Y82890000D03*
X29660000Y78890000D03*
%TD*%
%TO.C,R37*%
X32240000Y78880000D03*
X32240000Y82880000D03*
%TD*%
D11*
%TO.C,C4*%
X37570000Y84720000D03*
X37570000Y80720000D03*
%TD*%
D12*
%TO.C,C10*%
X53440000Y95390000D03*
X57440000Y95390000D03*
%TD*%
D13*
%TO.C,R2*%
X45750000Y91570000D03*
X45750000Y95570000D03*
%TD*%
%TO.C,R9*%
X40120000Y80720000D03*
X40120000Y84720000D03*
%TD*%
D14*
%TO.C,R10*%
X45360000Y98040000D03*
X49360000Y98040000D03*
%TD*%
D13*
%TO.C,R20*%
X45790000Y81080000D03*
X45790000Y85080000D03*
%TD*%
%TO.C,R26*%
X53650000Y89770000D03*
X53650000Y85770000D03*
%TD*%
%TO.C,R32*%
X53660000Y82890000D03*
X53660000Y78890000D03*
%TD*%
%TO.C,R38*%
X56240000Y78880000D03*
X56240000Y82880000D03*
%TD*%
D11*
%TO.C,C5*%
X13570000Y60720000D03*
X13570000Y56720000D03*
%TD*%
D12*
%TO.C,C12*%
X53440000Y71390000D03*
X57440000Y71390000D03*
%TD*%
D14*
%TO.C,R14*%
X45360000Y74040000D03*
X49360000Y74040000D03*
%TD*%
D13*
%TO.C,R4*%
X45750000Y67570000D03*
X45750000Y71570000D03*
%TD*%
D12*
%TO.C,C11*%
X29440000Y71390000D03*
X33440000Y71390000D03*
%TD*%
D13*
%TO.C,R3*%
X21750000Y67570000D03*
X21750000Y71570000D03*
%TD*%
%TO.C,R11*%
X16120000Y56720000D03*
X16120000Y60720000D03*
%TD*%
D14*
%TO.C,R12*%
X21360000Y74040000D03*
X25360000Y74040000D03*
%TD*%
D13*
%TO.C,R28*%
X53650000Y65770000D03*
X53650000Y61770000D03*
%TD*%
%TO.C,R21*%
X21790000Y57080000D03*
X21790000Y61080000D03*
%TD*%
%TO.C,R27*%
X29650000Y65770000D03*
X29650000Y61770000D03*
%TD*%
%TO.C,R33*%
X29660000Y58890000D03*
X29660000Y54890000D03*
%TD*%
%TO.C,R39*%
X32240000Y54880000D03*
X32240000Y58880000D03*
%TD*%
D11*
%TO.C,C6*%
X37570000Y60720000D03*
X37570000Y56720000D03*
%TD*%
D13*
%TO.C,R22*%
X45790000Y57080000D03*
X45790000Y61080000D03*
%TD*%
%TO.C,R34*%
X53660000Y58890000D03*
X53660000Y54890000D03*
%TD*%
%TO.C,R40*%
X56240000Y54880000D03*
X56240000Y58880000D03*
%TD*%
%TO.C,R13*%
X40120000Y56720000D03*
X40120000Y60720000D03*
%TD*%
D12*
%TO.C,C13*%
X53440000Y48390000D03*
X57440000Y48390000D03*
%TD*%
D14*
%TO.C,R16*%
X45360000Y51040000D03*
X49360000Y51040000D03*
%TD*%
D12*
%TO.C,C14*%
X53440000Y24390000D03*
X57440000Y24390000D03*
%TD*%
D14*
%TO.C,R18*%
X45360000Y27040000D03*
X49360000Y27040000D03*
%TD*%
D13*
%TO.C,R5*%
X45750000Y44570000D03*
X45750000Y48570000D03*
%TD*%
%TO.C,R29*%
X53650000Y42770000D03*
X53650000Y38770000D03*
%TD*%
D11*
%TO.C,C7*%
X37570000Y37720000D03*
X37570000Y33720000D03*
%TD*%
D13*
%TO.C,R23*%
X45790000Y34080000D03*
X45790000Y38080000D03*
%TD*%
%TO.C,R6*%
X45750000Y20570000D03*
X45750000Y24570000D03*
%TD*%
%TO.C,R30*%
X53650000Y18770000D03*
X53650000Y14770000D03*
%TD*%
%TO.C,R35*%
X53660000Y35890000D03*
X53660000Y31890000D03*
%TD*%
%TO.C,R41*%
X56240000Y31880000D03*
X56240000Y35880000D03*
%TD*%
%TO.C,R15*%
X40120000Y33720000D03*
X40120000Y37720000D03*
%TD*%
D11*
%TO.C,C8*%
X37570000Y13720000D03*
X37570000Y9720000D03*
%TD*%
D13*
%TO.C,R24*%
X45790000Y10080000D03*
X45790000Y14080000D03*
%TD*%
%TO.C,R36*%
X53660000Y11890000D03*
X53660000Y7890000D03*
%TD*%
%TO.C,R42*%
X56240000Y7880000D03*
X56240000Y11880000D03*
%TD*%
%TO.C,R17*%
X40120000Y9720000D03*
X40120000Y13720000D03*
%TD*%
M02*
