M48
; DRILL file {KiCad (6.0.4)} date Mon Jul 24 12:45:15 2023
; FORMAT={-:-/ absolute / inch / decimal}
; #@! TF.CreationDate,2023-07-24T12:45:15-04:00
; #@! TF.GenerationSoftware,Kicad,Pcbnew,(6.0.4)
; #@! TF.FileFunction,Plated,1,2,PTH
FMAT,2
INCH
; #@! TA.AperFunction,Plated,PTH,ViaDrill
T1C0.0157
; #@! TA.AperFunction,Plated,PTH,ComponentDrill
T2C0.0315
; #@! TA.AperFunction,Plated,PTH,ComponentDrill
T3C0.0320
; #@! TA.AperFunction,Plated,PTH,ComponentDrill
T4C0.0394
; #@! TA.AperFunction,Plated,PTH,ComponentDrill
T5C0.0512
; #@! TA.AperFunction,Plated,PTH,ComponentDrill
T6C0.1260
%
G90
G05
T1
X0.9449Y3.2283
X0.9449Y3.0709
X0.9449Y2.2835
X0.9492Y1.8437
X1.0055Y1.8728
X1.2244Y3.5638
X1.2244Y2.6189
X1.2996Y1.2764
X1.5406Y1.1551
X1.8898Y3.2283
X1.8898Y3.0709
X1.8898Y2.2835
X1.8898Y1.378
X1.8898Y0.4331
X2.1693Y3.5638
X2.1693Y2.6189
X2.1693Y1.7134
X2.1693Y0.7685
T2
X0.748Y3.7543
X0.748Y3.6543
X0.748Y3.5543
X0.748Y3.4543
X0.748Y3.3543
X0.748Y3.2543
X0.748Y3.1543
X0.748Y2.8094
X0.748Y2.7094
X0.748Y2.6094
X0.748Y2.5094
X0.748Y2.4094
X0.748Y2.3094
X0.748Y2.2094
X1.048Y3.7543
X1.048Y3.6543
X1.048Y3.5543
X1.048Y3.4543
X1.048Y3.3543
X1.048Y3.2543
X1.048Y3.1543
X1.048Y2.8094
X1.048Y2.7094
X1.048Y2.6094
X1.048Y2.5094
X1.048Y2.4094
X1.048Y2.3094
X1.048Y2.2094
X1.6929Y3.7543
X1.6929Y3.6543
X1.6929Y3.5543
X1.6929Y3.4543
X1.6929Y3.3543
X1.6929Y3.2543
X1.6929Y3.1543
X1.6929Y2.8094
X1.6929Y2.7094
X1.6929Y2.6094
X1.6929Y2.5094
X1.6929Y2.4094
X1.6929Y2.3094
X1.6929Y2.2094
X1.6929Y1.9039
X1.6929Y1.8039
X1.6929Y1.7039
X1.6929Y1.6039
X1.6929Y1.5039
X1.6929Y1.4039
X1.6929Y1.3039
X1.6929Y0.9591
X1.6929Y0.8591
X1.6929Y0.7591
X1.6929Y0.6591
X1.6929Y0.5591
X1.6929Y0.4591
X1.6929Y0.3591
X1.9929Y3.7543
X1.9929Y3.6543
X1.9929Y3.5543
X1.9929Y3.4543
X1.9929Y3.3543
X1.9929Y3.2543
X1.9929Y3.1543
X1.9929Y2.8094
X1.9929Y2.7094
X1.9929Y2.6094
X1.9929Y2.5094
X1.9929Y2.4094
X1.9929Y2.3094
X1.9929Y2.2094
X1.9929Y1.9039
X1.9929Y1.8039
X1.9929Y1.7039
X1.9929Y1.6039
X1.9929Y1.5039
X1.9929Y1.4039
X1.9929Y1.3039
X1.9929Y0.9591
X1.9929Y0.8591
X1.9929Y0.7591
X1.9929Y0.6591
X1.9929Y0.5591
X1.9929Y0.4591
X1.9929Y0.3591
T3
X0.563Y3.6543
X0.563Y3.5543
X0.563Y3.4543
X0.563Y2.7094
X0.563Y2.6094
X0.563Y2.5094
X1.2681Y3.6134
X1.2681Y3.5134
X1.2681Y3.4134
X1.2681Y2.6685
X1.2681Y2.5685
X1.2681Y2.4685
X1.5079Y3.6543
X1.5079Y3.5543
X1.5079Y3.4543
X1.5079Y2.7094
X1.5079Y2.6094
X1.5079Y2.5094
X1.5079Y1.8039
X1.5079Y1.7039
X1.5079Y1.6039
X1.5079Y0.8591
X1.5079Y0.7591
X1.5079Y0.6591
X2.213Y3.6134
X2.213Y3.5134
X2.213Y3.4134
X2.213Y2.6685
X2.213Y2.5685
X2.213Y2.4685
X2.213Y1.763
X2.213Y1.663
X2.213Y1.563
X2.213Y0.8181
X2.213Y0.7181
X2.213Y0.6181
T4
X0.2756Y2.4016
X0.2756Y2.3016
X0.2756Y2.2016
X0.2756Y2.1016
X0.2756Y2.0016
X0.2756Y1.9016
X0.2756Y1.8016
X0.2756Y1.7016
X0.2756Y1.6016
X0.2756Y1.5016
X0.4882Y1.5669
X0.4882Y1.4669
X0.4882Y1.3669
X0.4882Y1.2669
X0.4882Y1.1669
X0.4882Y1.0669
X0.4882Y0.9669
X0.4882Y0.8669
X0.4882Y0.7669
X0.4882Y0.6669
X0.4882Y0.5669
X0.4882Y0.4669
X0.4882Y0.3669
X0.4882Y0.2669
X0.4882Y0.1669
X1.0882Y1.5669
X1.0882Y1.4669
X1.0882Y1.3669
X1.0882Y1.2669
X1.0882Y1.1669
X1.0882Y1.0669
X1.0882Y0.9669
X1.0882Y0.8669
X1.0882Y0.7669
X1.0882Y0.6669
X1.0882Y0.5669
X1.0882Y0.4669
X1.0882Y0.3669
X1.0882Y0.2669
X1.0882Y0.1669
T5
X2.5394Y2.5969
X2.5394Y2.4
X2.5394Y2.2
X2.5394Y2.0031
X2.5394Y1.8
X2.5394Y1.6031
X2.5394Y1.4
X2.5394Y1.2031
T6
X0.1969Y3.7402
X0.1969Y0.1969
X2.5591Y3.7402
X2.5591Y0.1969
T0
M30
